<?xml version="1.0" encoding="utf-8"?>
<!-- Generator: Adobe Illustrator 15.0.0, SVG Export Plug-In . SVG Version: 6.00 Build 0)  -->
<!DOCTYPE svg PUBLIC "-//W3C//DTD SVG 1.1//EN" "http://www.w3.org/Graphics/SVG/1.1/DTD/svg11.dtd">
<svg version="1.1" id="Layer_1" xmlns="http://www.w3.org/2000/svg" xmlns:xlink="http://www.w3.org/1999/xlink" x="0px" y="0px"
	 width="48px" height="48px" viewBox="0 0 48 48" enable-background="new 0 0 48 48" xml:space="preserve">
<rect fill="#F2F2F2" width="48" height="48"/>
<g>
	<path fill="#E53029" d="M23.907,11.465c0,0,7.479-0.336,11.442,7.179c-2.095,0-12.079,0-12.079,0s-2.28-0.074-4.225,2.692
		c-0.561,1.161-1.159,2.356-0.486,4.712c-0.972-1.645-5.161-8.937-5.161-8.937S16.354,11.764,23.907,11.465z"/>
	<path fill="#FDD900" d="M34.96,30.549c0,0-3.448,6.645-11.94,6.317c1.048-1.812,6.041-10.46,6.041-10.46s1.206-1.938-0.218-5.005
		c-0.724-1.065-1.46-2.183-3.838-2.777c1.912-0.02,10.321,0.001,10.321,0.001S38.479,23.857,34.96,30.549z"/>
	<path fill="#66B44B" d="M12.907,30.6c0,0-4.03-6.31,0.499-13.5c1.047,1.814,6.038,10.461,6.038,10.461s1.075,2.013,4.443,2.315
		c1.284-0.094,2.62-0.175,4.324-1.935c-0.939,1.664-5.161,8.937-5.161,8.937S16.941,36.991,12.907,30.6z"/>
	<circle fill="#FFFFFF" cx="23.875" cy="24.275" r="5.659"/>
	<circle fill="#4389ED" cx="23.875" cy="24.275" r="4.712"/>
</g>
</svg>
