<?xml version="1.0" encoding="utf-8"?>
<!-- Generator: Adobe Illustrator 15.0.0, SVG Export Plug-In . SVG Version: 6.00 Build 0)  -->
<!DOCTYPE svg PUBLIC "-//W3C//DTD SVG 1.1//EN" "http://www.w3.org/Graphics/SVG/1.1/DTD/svg11.dtd">
<svg version="1.1" id="Layer_1" xmlns="http://www.w3.org/2000/svg" xmlns:xlink="http://www.w3.org/1999/xlink" x="0px" y="0px"
	 width="48px" height="48px" viewBox="0 0 48 48" enable-background="new 0 0 48 48" xml:space="preserve">
<rect x="-2" y="-2" fill="#00AFF0" width="50" height="51"/>
<path fill="#FFFFFF" d="M37.008,26.456c0.205-0.941,0.312-1.912,0.312-2.912c0-7.496-6.076-13.572-13.572-13.572
	c-0.791,0-1.566,0.068-2.32,0.197c-1.213-0.764-2.649-1.207-4.187-1.207c-4.348,0-7.872,3.523-7.872,7.871
	c0,1.453,0.396,2.812,1.082,3.98c-0.18,0.883-0.274,1.795-0.274,2.73c0,7.496,6.076,13.572,13.572,13.572
	c0.85,0,1.68-0.078,2.484-0.229c1.109,0.596,2.377,0.934,3.723,0.934c4.348,0,7.871-3.523,7.871-7.871
	C37.826,28.696,37.529,27.509,37.008,26.456z M30.709,30.03c-0.625,0.887-1.555,1.592-2.758,2.092
	c-1.189,0.494-2.615,0.746-4.24,0.746c-1.95,0-3.583-0.344-4.859-1.02c-0.913-0.492-1.664-1.16-2.235-1.984
	c-0.576-0.83-0.868-1.654-0.868-2.453c0-0.496,0.19-0.928,0.565-1.279c0.372-0.352,0.848-0.527,1.417-0.527
	c0.466,0,0.869,0.139,1.196,0.414c0.311,0.266,0.579,0.658,0.795,1.164c0.241,0.553,0.502,1.018,0.778,1.381
	c0.267,0.354,0.65,0.65,1.139,0.881c0.491,0.232,1.155,0.352,1.971,0.352c1.121,0,2.043-0.238,2.734-0.713
	c0.676-0.459,1.004-1.014,1.004-1.693c0-0.535-0.172-0.955-0.523-1.285c-0.371-0.348-0.857-0.613-1.449-0.801
	c-0.615-0.191-1.455-0.4-2.49-0.617c-1.409-0.301-2.605-0.658-3.557-1.062c-0.974-0.414-1.758-0.99-2.332-1.707
	c-0.583-0.73-0.878-1.645-0.878-2.721c0-1.025,0.31-1.949,0.921-2.746c0.606-0.791,1.494-1.408,2.634-1.828
	c1.127-0.416,2.466-0.629,3.982-0.629c1.212,0,2.277,0.143,3.167,0.418c0.895,0.277,1.648,0.654,2.24,1.117
	c0.598,0.467,1.043,0.965,1.32,1.482c0.281,0.523,0.426,1.045,0.426,1.549c0,0.484-0.189,0.926-0.557,1.311
	c-0.373,0.385-0.842,0.582-1.395,0.582c-0.502,0-0.896-0.123-1.168-0.363c-0.256-0.227-0.52-0.576-0.811-1.08
	c-0.338-0.643-0.75-1.15-1.219-1.508c-0.457-0.348-1.219-0.521-2.267-0.521c-0.972,0-1.764,0.195-2.351,0.58
	c-0.567,0.371-0.842,0.797-0.842,1.301c0,0.311,0.089,0.568,0.271,0.789c0.192,0.238,0.465,0.443,0.809,0.615
	c0.356,0.18,0.724,0.322,1.092,0.424c0.377,0.105,1.01,0.26,1.878,0.461c1.099,0.236,2.108,0.5,3.001,0.785
	c0.904,0.291,1.684,0.645,2.322,1.061c0.65,0.424,1.164,0.965,1.529,1.615c0.365,0.652,0.553,1.455,0.553,2.391
	C31.66,28.118,31.34,29.138,30.709,30.03z"/>
</svg>
