<?xml version="1.0" encoding="utf-8"?>
<!-- Generator: Adobe Illustrator 15.0.0, SVG Export Plug-In . SVG Version: 6.00 Build 0)  -->
<!DOCTYPE svg PUBLIC "-//W3C//DTD SVG 1.1//EN" "http://www.w3.org/Graphics/SVG/1.1/DTD/svg11.dtd">
<svg version="1.1" id="Layer_1" xmlns="http://www.w3.org/2000/svg" xmlns:xlink="http://www.w3.org/1999/xlink" x="0px" y="0px"
	 width="48px" height="48px" viewBox="0 0 48 48" enable-background="new 0 0 48 48" xml:space="preserve">
<rect x="-0.401" y="-0.264" fill="#EFEFEF" width="48.478" height="48.478"/>
<g>
	<g>
		<polygon fill="#009821" points="43.937,20.614 43.937,13.892 37.214,13.892 30.491,13.892 30.491,20.614 37.214,20.614 		"/>
		<polygon fill="#009821" points="23.77,20.614 23.77,27.337 23.77,34.059 30.491,34.059 37.214,34.059 43.937,34.059 
			43.937,27.337 37.214,27.337 30.491,27.337 30.491,20.614 		"/>
	</g>
	<polygon fill="#009821" points="17.183,13.892 10.461,13.892 3.739,13.892 3.739,20.614 10.461,20.614 10.461,27.337 
		10.461,34.059 17.183,34.059 17.183,27.337 17.183,20.614 23.906,20.614 23.906,13.892 	"/>
</g>
</svg>
