<?xml version="1.0" encoding="utf-8"?>
<!-- Generator: Adobe Illustrator 15.0.0, SVG Export Plug-In . SVG Version: 6.00 Build 0)  -->
<!DOCTYPE svg PUBLIC "-//W3C//DTD SVG 1.1//EN" "http://www.w3.org/Graphics/SVG/1.1/DTD/svg11.dtd">
<svg version="1.1" id="Layer_1" xmlns="http://www.w3.org/2000/svg" xmlns:xlink="http://www.w3.org/1999/xlink" x="0px" y="0px"
	 width="48px" height="48px" viewBox="0 0 48 48" enable-background="new 0 0 48 48" xml:space="preserve">
<rect x="-1.105" y="-2.814" fill="#FF0019" width="50.146" height="51.104"/>
<path fill="#FFFFFF" d="M31.869,11.583H16.066c-6.16,0-10.215,4.994-10.215,11.155s4.055,11.155,10.215,11.155h15.803
	c6.16,0,10.215-4.994,10.215-11.155S38.029,11.583,31.869,11.583z M31.869,30.259H16.066c-4.153,0-6.582-3.368-6.582-7.521
	c0-4.154,2.428-7.521,6.582-7.521h15.803c4.152,0,6.582,3.368,6.582,7.521S36.021,30.259,31.869,30.259z"/>
<path fill="#EE3E28" d="M428.531,11.813c1.46-0.183,2.578-0.959,2.578-2.739c0-1.962-1.163-2.83-3.515-2.83h-3.788v9.95h1.507
	v-4.312h1.733l2.624,4.312h1.689L428.531,11.813z M425.312,10.604V7.522h2.055c1.05,0,2.168,0.228,2.168,1.46
	c0,1.529-1.142,1.621-2.419,1.621L425.312,10.604L425.312,10.604z"/>
</svg>
