<?xml version="1.0" encoding="utf-8"?>
<!-- Generator: Adobe Illustrator 15.0.0, SVG Export Plug-In . SVG Version: 6.00 Build 0)  -->
<!DOCTYPE svg PUBLIC "-//W3C//DTD SVG 1.1//EN" "http://www.w3.org/Graphics/SVG/1.1/DTD/svg11.dtd">
<svg version="1.1" id="Layer_1" xmlns="http://www.w3.org/2000/svg" xmlns:xlink="http://www.w3.org/1999/xlink" x="0px" y="0px"
	 width="48px" height="48px" viewBox="0 0 48 48" enable-background="new 0 0 48 48" xml:space="preserve">
<rect x="-1.105" y="-2.314" fill="#FF0019" width="50.146" height="51.104"/>
<path fill="#FFFFFF" d="M31.869,11.083H16.066c-6.16,0-10.215,4.994-10.215,11.155c0,6.16,4.055,11.154,10.215,11.154h15.803
	c6.16,0,10.215-4.994,10.215-11.154C42.084,16.077,38.029,11.083,31.869,11.083z M31.869,29.759H16.066
	c-4.153,0-6.582-3.368-6.582-7.521c0-4.154,2.428-7.521,6.582-7.521h15.803c4.153,0,6.582,3.368,6.582,7.521
	C38.451,26.391,36.022,29.759,31.869,29.759z"/>
<path fill="#EE3E28" d="M428.531,11.813c1.46-0.183,2.578-0.959,2.578-2.739c0-1.962-1.163-2.83-3.514-2.83h-3.788v9.95h1.506
	v-4.312h1.734l2.624,4.312h1.689L428.531,11.813z M425.313,10.604V7.522h2.054c1.05,0,2.168,0.228,2.168,1.46
	c0,1.529-1.141,1.621-2.419,1.621H425.313z"/>
</svg>
