<?xml version="1.0" encoding="utf-8"?>
<!-- Generator: Adobe Illustrator 15.0.0, SVG Export Plug-In . SVG Version: 6.00 Build 0)  -->
<!DOCTYPE svg PUBLIC "-//W3C//DTD SVG 1.1//EN" "http://www.w3.org/Graphics/SVG/1.1/DTD/svg11.dtd">
<svg version="1.1" id="Layer_1" xmlns="http://www.w3.org/2000/svg" xmlns:xlink="http://www.w3.org/1999/xlink" x="0px" y="0px"
	 width="48px" height="48px" viewBox="0 0 48 48" enable-background="new 0 0 48 48" xml:space="preserve">
<rect x="-0.759" y="-1.717" fill="#467C55" width="50.146" height="51.103"/>
<path fill="#D9D9D9" d="M24.314,23.834"/>
<path id="ShareThis_2_" fill="#FFFFFF" d="M19.646,23.834c0,0.108-0.025,0.21-0.031,0.319l11.375,5.687
	c0.975-0.825,2.221-1.339,3.597-1.339c3.095,0,5.604,2.508,5.604,5.602c0,3.098-2.509,5.606-5.604,5.606
	c-3.097,0-5.602-2.509-5.602-5.606c0-0.111,0.024-0.21,0.03-0.318l-11.375-5.687c-0.977,0.821-2.22,1.336-3.597,1.336
	c-3.094,0-5.603-2.506-5.603-5.6c0-3.098,2.509-5.606,5.603-5.606c1.377,0,2.62,0.518,3.597,1.34l11.375-5.687
	c-0.006-0.108-0.03-0.21-0.03-0.322c0-3.091,2.505-5.6,5.602-5.6c3.095,0,5.604,2.508,5.604,5.6c0,3.098-2.509,5.606-5.604,5.606
	c-1.379,0-2.622-0.518-3.597-1.343l-11.375,5.689C19.621,23.621,19.646,23.723,19.646,23.834z"/>
</svg>
