<?xml version="1.0" encoding="utf-8"?>
<!-- Generator: Adobe Illustrator 15.0.0, SVG Export Plug-In . SVG Version: 6.00 Build 0)  -->
<!DOCTYPE svg PUBLIC "-//W3C//DTD SVG 1.1//EN" "http://www.w3.org/Graphics/SVG/1.1/DTD/svg11.dtd">
<svg version="1.1" id="Layer_1" xmlns="http://www.w3.org/2000/svg" xmlns:xlink="http://www.w3.org/1999/xlink" x="0px" y="0px"
	 width="48px" height="48px" viewBox="0 0 48 48" enable-background="new 0 0 48 48" xml:space="preserve">
<rect x="-0.22" y="0.018" fill="#212121" width="48.477" height="48.478"/>
<path id="Squarespace" fill="#FFFFFF" d="M11.583,22.729L22.75,11.496c2.804-2.819,7.348-2.819,10.149,0
	c0.672,0.707,0.639,1.849-0.05,2.544c-0.701,0.707-1.836,0.707-2.539,0l-0.169-0.196c-1.409-1.202-3.524-1.133-4.854,0.206
	L13.871,25.532c-0.753,0.697-1.888,0.697-2.588-0.008c-0.701-0.704-0.701-1.847,0-2.552C11.376,22.879,11.477,22.798,11.583,22.729z
	 M36.655,22.973c-0.702-0.704-1.836-0.704-2.538,0c-0.093,0.095-0.175,0.197-0.244,0.305L22.75,34.465c-1.4,1.41-3.674,1.41-5.075,0
	l-0.05-0.008c-0.701-0.704-1.836-0.704-2.537,0s-0.701,1.849,0,2.552c0.089,0.09,0.184,0.169,0.286,0.237
	c2.818,2.587,7.189,2.513,9.913-0.229l11.368-11.492C37.354,24.82,37.354,23.678,36.655,22.973z M19.195,30.385
	c-0.107,0.071-0.208,0.151-0.301,0.244c-0.701,0.704-0.701,1.849,0,2.552c0.701,0.704,1.835,0.704,2.588,0.008l11.417-11.485
	c1.401-1.41,3.675-1.41,5.073,0c1.404,1.41,1.404,3.696,0,5.105L27.146,37.75c1.404,1.409,3.675,1.409,5.076,0l8.288-8.391
	c2.802-2.817,2.802-7.388,0-10.208c-2.801-2.818-7.346-2.818-10.147,0L19.195,30.385z M17.675,29.359l11.367-11.491
	c0.701-0.705,0.701-1.848,0-2.552c-0.7-0.706-1.837-0.706-2.537,0c-0.093,0.093-0.174,0.196-0.242,0.303L15.14,26.809
	c-1.402,1.41-3.674,1.41-5.074,0c-1.404-1.409-1.404-3.695,0-5.105l10.826-10.94c-1.401-1.411-3.674-1.411-5.075,0l-8.29,8.388
	c-2.802,2.819-2.802,7.39,0,10.208C10.33,32.181,14.875,32.181,17.675,29.359z"/>
</svg>
