<?xml version="1.0" encoding="utf-8"?>
<!-- Generator: Adobe Illustrator 15.0.0, SVG Export Plug-In . SVG Version: 6.00 Build 0)  -->
<!DOCTYPE svg PUBLIC "-//W3C//DTD SVG 1.1//EN" "http://www.w3.org/Graphics/SVG/1.1/DTD/svg11.dtd">
<svg version="1.1" id="Layer_1" xmlns="http://www.w3.org/2000/svg" xmlns:xlink="http://www.w3.org/1999/xlink" x="0px" y="0px"
	 width="48px" height="48px" viewBox="0 0 48 48" enable-background="new 0 0 48 48" xml:space="preserve">
<rect x="-2" y="-2" fill="#D14836" width="51" height="51"/>
<defs>
	<filter id="Adobe_OpacityMaskFilter" filterUnits="userSpaceOnUse" x="-6.822" y="3.843" width="54.822" height="54.863">
		<feColorMatrix  type="matrix" values="1 0 0 0 0  0 1 0 0 0  0 0 1 0 0  0 0 0 1 0"/>
	</filter>
</defs>
<mask maskUnits="userSpaceOnUse" x="-6.822" y="3.843" width="54.822" height="54.863" id="SVGID_1_">
	<g filter="url(#Adobe_OpacityMaskFilter)">
		<path fill="#F5F5F5" d="M48,41.891c0,3.295-2.672,5.968-5.968,5.968H6.224c-3.296,0-5.968-2.673-5.968-5.968V6.082
			c0-3.296,2.672-5.968,5.968-5.968h35.808C45.328,0.113,48,2.786,48,6.082V41.891z"/>
	</g>
</mask>
<g mask="url(#SVGID_1_)">
	<g>
		<polygon fill="#FFFFFF" points="48,12.05 40.54,12.05 40.54,4.59 36.81,4.59 36.81,12.05 29.35,12.05 29.35,15.78 36.81,15.78 
			36.81,23.24 40.54,23.24 40.54,15.78 48,15.78 		"/>
	</g>
	<g>
		<linearGradient id="SVGID_2_" gradientUnits="userSpaceOnUse" x1="10.6147" y1="4.6826" x2="10.6147" y2="59.1476">
			<stop  offset="0" style="stop-color:#FFFFFF"/>
			<stop  offset="1" style="stop-color:#F9DAD6"/>
		</linearGradient>
		<path fill="url(#SVGID_2_)" d="M21.517,35.239c-1.499-1.125-4.761-3.431-4.761-4.978c0-1.814,0.518-2.707,3.247-4.839
			c2.797-2.188,4.779-5.068,4.779-8.643c0-3.895-1.592-7.428-4.588-9.144h4.244l3.613-3.793c0,0-11.941,0-16.17,0
			c-8.206,0-15.044,6.051-15.044,12.707c0,6.801,4.494,12.223,12.21,12.223c0.537,0,1.058-0.027,1.568-0.064
			c-0.5,0.96-0.858,2.03-0.858,3.152c0,1.89,1.039,2.968,2.325,4.218c-0.971,0-1.909,0.026-2.933,0.026
			c-9.394,0-15.971,6.465-15.971,12.671c0,6.109,7.928,9.931,17.322,9.931c10.709,0,17.297-6.077,17.297-12.188
			C27.797,41.619,26.739,39.155,21.517,35.239z M12.172,26.302c-4.359-0.132-8.501-4.13-9.254-9.854
			c-0.752-5.725,2.17-10.104,6.528-9.975c4.357,0.131,8.086,4.827,8.838,10.55S16.528,26.431,12.172,26.302z M10.465,56.005
			c-6.493,0-11.183-4.11-11.183-9.049c0-4.839,5.502-9.013,11.996-8.942c1.515,0.017,2.926,0.26,4.209,0.675
			c3.525,2.451,6.368,3.983,7.082,6.776c0.134,0.564,0.207,1.147,0.207,1.744C22.776,52.146,19.594,56.005,10.465,56.005z"/>
	</g>
</g>
</svg>
