<?xml version="1.0" encoding="utf-8"?>
<!-- Generator: Adobe Illustrator 15.0.0, SVG Export Plug-In . SVG Version: 6.00 Build 0)  -->
<!DOCTYPE svg PUBLIC "-//W3C//DTD SVG 1.1//EN" "http://www.w3.org/Graphics/SVG/1.1/DTD/svg11.dtd">
<svg version="1.1" id="Layer_1" xmlns="http://www.w3.org/2000/svg" xmlns:xlink="http://www.w3.org/1999/xlink" x="0px" y="0px"
	 width="48px" height="48px" viewBox="0 0 48 48" enable-background="new 0 0 48 48" xml:space="preserve">
<rect x="-2" y="-3" fill="#80B719" width="52" height="52"/>
<path fill="#FFFFFF" d="M24.068,8.279c-8,0-14.486,6.486-14.486,14.486c0,8.001,6.486,14.486,14.486,14.486
	c8.001,0,14.487-6.485,14.487-14.486C38.556,14.765,32.069,8.279,24.068,8.279z M30.928,29.502
	c-0.188,0.271-0.488,0.416-0.794,0.416c-0.189,0-0.382-0.056-0.55-0.173c-2.268-1.572-4.928-2.403-7.693-2.403
	c-1.598,0-3.164,0.276-4.65,0.82c-0.501,0.186-1.056-0.073-1.239-0.574c-0.183-0.501,0.074-1.055,0.574-1.239
	c1.701-0.622,3.489-0.938,5.315-0.938c3.16,0,6.202,0.95,8.793,2.749C31.123,28.464,31.232,29.063,30.928,29.502z M33.035,25.049
	c-0.206,0.33-0.561,0.511-0.922,0.511c-0.197,0-0.396-0.054-0.574-0.165c-2.891-1.806-6.226-2.761-9.648-2.761
	c-1.901,0-3.775,0.292-5.573,0.869c-0.571,0.183-1.183-0.131-1.366-0.703c-0.183-0.57,0.131-1.183,0.703-1.366
	c2.012-0.646,4.111-0.973,6.237-0.973c3.829,0,7.564,1.068,10.798,3.09C33.199,23.87,33.354,24.54,33.035,25.049z M34.099,21.185
	c-0.207,0-0.417-0.054-0.61-0.167c-3.503-2.058-7.514-3.146-11.597-3.146c-2.206,0-4.39,0.314-6.493,0.934
	c-0.64,0.188-1.311-0.178-1.499-0.817c-0.189-0.64,0.177-1.311,0.817-1.499c2.324-0.685,4.738-1.032,7.175-1.032
	c4.513,0,8.946,1.203,12.821,3.478c0.574,0.338,0.768,1.077,0.43,1.653C34.916,20.972,34.514,21.185,34.099,21.185z"/>
</svg>
