<?xml version="1.0" encoding="utf-8"?>
<!-- Generator: Adobe Illustrator 15.0.0, SVG Export Plug-In . SVG Version: 6.00 Build 0)  -->
<!DOCTYPE svg PUBLIC "-//W3C//DTD SVG 1.1//EN" "http://www.w3.org/Graphics/SVG/1.1/DTD/svg11.dtd">
<svg version="1.1" id="Layer_1" xmlns="http://www.w3.org/2000/svg" xmlns:xlink="http://www.w3.org/1999/xlink" x="0px" y="0px"
	 width="48px" height="48px" viewBox="0 0 48 48" enable-background="new 0 0 48 48" xml:space="preserve">
<rect x="-1.833" y="-1.667" fill="#8EC11E" width="52" height="52"/>
<g>
	<defs>
		<rect id="SVGID_1_" y="-0.167" width="48" height="48"/>
	</defs>
	<clipPath id="SVGID_2_">
		<use xlink:href="#SVGID_1_"  overflow="visible"/>
	</clipPath>
	<path clip-path="url(#SVGID_2_)" fill="#FFFFFF" d="M24.114,35.193c-8.773,0-16.311,5.225-19.715,12.723
		c1.18,0.787,2.593,1.25,4.109,1.25h4.801c2.408-3.375,6.349-5.59,10.805-5.59c4.453,0,8.395,2.215,10.804,5.59h3.402
		c1.981,0,4.676-0.061,6.014-1.332C40.766,40.775,32.563,35.193,24.114,35.193z"/>
	<g clip-path="url(#SVGID_2_)">
		<g>
			<path fill="#FFFFFF" d="M10.493,32.766c0.366,1.051,1.178,0.973,1.548,0.797C15.489,31.922,19.344,31,23.415,31
				c3.966,0,7.726,0.875,11.105,2.438c0.772,0.357,1.433,0.191,1.802-0.633c0.368-0.822-0.156-1.643-0.732-1.934
				c-3.642-1.838-7.827-2.666-12.175-2.666c-4.428,0-8.615,0.998-12.377,2.758C10.706,31.117,10.128,31.711,10.493,32.766z"/>
			<path fill="#FFFFFF" d="M41.145,17.899c0-0.83-0.485-1.526-1.18-1.879c-5.119-2.046-10.698-3.187-16.55-3.187
				c-5.906,0-11.535,1.164-16.696,3.247c-0.616,0.373-1.034,1.044-1.034,1.819c0,1.177,0.955,2.131,2.131,2.131
				c0.162,0,0.312-0.034,0.463-0.068c4.678-1.888,9.783-2.937,15.137-2.937c5.349,0,10.45,1.048,15.126,2.933
				c0.153,0.035,0.309,0.072,0.472,0.072C40.189,20.03,41.145,19.076,41.145,17.899z"/>
			<path fill="#FFFFFF" d="M38.261,24.398c-4.535-2.035-9.554-3.181-14.846-3.181c-5.295,0-10.318,1.146-14.854,3.183
				c-0.297,0.262-0.496,0.631-0.503,1.059l0.274,0.824c0.262,0.379,0.677,0.641,1.174,0.641c0.166,0,0.319-0.045,0.469-0.096
				c4.115-1.805,8.656-2.816,13.439-2.816c4.817,0,9.389,1.029,13.529,2.855c0.122,0.037,0.244,0.08,0.379,0.08
				c0.486,0,0.895-0.254,1.158-0.621l0.286-0.861C38.76,25.037,38.565,24.656,38.261,24.398z"/>
		</g>
	</g>
</g>
</svg>
