<?xml version="1.0" encoding="utf-8"?>
<!-- Generator: Adobe Illustrator 15.0.0, SVG Export Plug-In . SVG Version: 6.00 Build 0)  -->
<!DOCTYPE svg PUBLIC "-//W3C//DTD SVG 1.1//EN" "http://www.w3.org/Graphics/SVG/1.1/DTD/svg11.dtd">
<svg version="1.1" id="Layer_1" xmlns="http://www.w3.org/2000/svg" xmlns:xlink="http://www.w3.org/1999/xlink" x="0px" y="0px"
	 width="48px" height="48px" viewBox="0 0 48 48" enable-background="new 0 0 48 48" xml:space="preserve">
<rect x="-2" y="-3" fill="#144DFF" width="52" height="52"/>
<g>
	<path fill="#FFFFFF" d="M17.833,12.88c0.939,0,1.785,0.081,2.561,0.248c0.768,0.164,1.424,0.438,1.978,0.81
		c0.548,0.374,0.975,0.87,1.282,1.496c0.3,0.616,0.447,1.389,0.447,2.301c0,0.988-0.225,1.812-0.671,2.472
		c-0.453,0.659-1.117,1.199-2,1.617c1.205,0.347,2.1,0.958,2.692,1.827c0.596,0.875,0.888,1.921,0.888,3.147
		c0,0.996-0.192,1.852-0.572,2.57c-0.382,0.73-0.906,1.322-1.551,1.777c-0.65,0.459-1.395,0.797-2.229,1.018
		c-0.827,0.219-1.685,0.328-2.564,0.328H8.587V12.88H17.833 M17.275,20.803c0.765,0,1.397-0.181,1.9-0.549
		c0.496-0.363,0.737-0.963,0.737-1.784c0-0.456-0.08-0.833-0.241-1.126c-0.167-0.292-0.386-0.521-0.665-0.682
		c-0.276-0.167-0.59-0.282-0.949-0.345c-0.358-0.069-0.73-0.096-1.112-0.096h-4.038v4.582H17.275z M17.514,29.152
		c0.424,0,0.829-0.039,1.209-0.125c0.387-0.082,0.729-0.217,1.018-0.416c0.289-0.189,0.529-0.449,0.703-0.781
		c0.173-0.328,0.258-0.756,0.258-1.271c0-1.012-0.286-1.728-0.851-2.164c-0.566-0.429-1.323-0.644-2.252-0.644h-4.693v5.402H17.514z
		"/>
	<path fill="#FFFFFF" d="M31.163,29.086c0.585,0.57,1.431,0.857,2.524,0.857c0.787,0,1.465-0.199,2.036-0.596
		c0.564-0.396,0.909-0.818,1.042-1.258H40.2c-0.554,1.707-1.39,2.93-2.532,3.664c-1.13,0.736-2.506,1.105-4.112,1.105
		c-1.117,0-2.124-0.182-3.026-0.537c-0.905-0.361-1.661-0.869-2.295-1.529c-0.62-0.662-1.1-1.445-1.442-2.365
		c-0.339-0.914-0.509-1.93-0.509-3.027c0-1.061,0.176-2.052,0.523-2.97c0.354-0.919,0.844-1.714,1.488-2.38
		c0.644-0.668,1.408-1.197,2.3-1.583c0.891-0.385,1.873-0.579,2.961-0.579c1.2,0,2.255,0.232,3.155,0.704
		c0.899,0.464,1.637,1.093,2.215,1.881c0.579,0.787,0.992,1.686,1.247,2.696c0.257,1.006,0.347,2.059,0.273,3.161H30.199
		C30.199,27.453,30.577,28.516,31.163,29.086 M35.646,21.625c-0.465-0.512-1.249-0.79-2.208-0.79c-0.623,0-1.14,0.104-1.551,0.318
		c-0.404,0.211-0.735,0.473-0.989,0.783c-0.252,0.314-0.422,0.646-0.521,1c-0.101,0.346-0.162,0.658-0.178,0.936h6.345
		C36.45,22.877,36.111,22.142,35.646,21.625z"/>
	<rect x="29.401" y="14.197" fill="#FFFFFF" width="7.948" height="1.934"/>
</g>
</svg>
