<?xml version="1.0" encoding="utf-8"?>
<!-- Generator: Adobe Illustrator 15.0.0, SVG Export Plug-In . SVG Version: 6.00 Build 0)  -->
<!DOCTYPE svg PUBLIC "-//W3C//DTD SVG 1.1//EN" "http://www.w3.org/Graphics/SVG/1.1/DTD/svg11.dtd">
<svg version="1.1" id="Layer_1" xmlns="http://www.w3.org/2000/svg" xmlns:xlink="http://www.w3.org/1999/xlink" x="0px" y="0px"
	 width="48px" height="48px" viewBox="0 0 48 48" enable-background="new 0 0 48 48" xml:space="preserve">
<rect x="-2" y="-2" fill="#D51007" width="52" height="52"/>
<path fill="#FFFFFF" d="M34.625,22.683c-0.266-0.087-0.521-0.167-0.768-0.245c-1.885-0.593-3.021-0.95-3.021-2.416
	c0-1.189,0.918-2.052,2.184-2.052c0.969,0,1.691,0.402,2.338,1.309c0.061,0.084,0.176,0.114,0.27,0.065l1.9-0.971
	c0.051-0.025,0.09-0.072,0.107-0.128c0.016-0.055,0.01-0.114-0.02-0.164c-1.018-1.81-2.486-2.689-4.49-2.689
	c-3.049,0-5.018,1.844-5.018,4.697c0,2.918,1.904,4.099,5.42,5.256c2.037,0.679,2.938,1.038,2.938,2.487
	c0,1.629-1.469,2.801-3.475,2.732c-2.102-0.072-2.738-1.186-3.539-3.01c-1.354-3.088-2.895-6.694-2.908-6.729
	c-1.546-3.568-4.613-5.613-8.413-5.613c-5.02,0-9.104,4.085-9.104,9.105c0,5.019,4.084,9.103,9.104,9.103
	c2.738,0,5.304-1.213,7.04-3.33c0.051-0.062,0.062-0.145,0.031-0.219l-1.147-2.648c-0.032-0.072-0.106-0.123-0.187-0.125
	c-0.083-0.004-0.158,0.041-0.195,0.111c-1.083,2.072-3.207,3.357-5.542,3.357c-3.445,0-6.247-2.803-6.247-6.249
	s2.802-6.249,6.247-6.249c2.507,0,4.806,1.488,5.718,3.709l2.839,6.475l0.326,0.727c1.285,2.988,3.17,4.328,6.123,4.34
	c3.51,0,6.158-2.328,6.158-5.412C39.295,24.809,37.582,23.647,34.625,22.683z"/>
</svg>
