<?xml version="1.0" encoding="utf-8"?>
<!-- Generator: Adobe Illustrator 15.0.0, SVG Export Plug-In . SVG Version: 6.00 Build 0)  -->
<!DOCTYPE svg PUBLIC "-//W3C//DTD SVG 1.1//EN" "http://www.w3.org/Graphics/SVG/1.1/DTD/svg11.dtd">
<svg version="1.1" id="Layer_1" xmlns="http://www.w3.org/2000/svg" xmlns:xlink="http://www.w3.org/1999/xlink" x="0px" y="0px"
	 width="48px" height="48px" viewBox="0 0 48 48" enable-background="new 0 0 48 48" xml:space="preserve">
<rect fill="#005270" width="48" height="48"/>
<g>
	<g>
		<path fill="#FFCD33" d="M10,28.394V17.437h1.718v1.536c0.355-0.538,0.828-0.967,1.418-1.295c0.59-0.326,1.263-0.49,2.016-0.49
			c0.839,0,1.526,0.169,2.065,0.506c0.538,0.337,0.914,0.809,1.134,1.413c0.896-1.279,2.063-1.919,3.499-1.919
			c1.126,0,1.989,0.3,2.592,0.901c0.605,0.604,0.907,1.53,0.907,2.782v7.522H23.44V21.49c0-0.743-0.063-1.277-0.187-1.604
			c-0.125-0.327-0.352-0.589-0.678-0.789c-0.327-0.199-0.71-0.3-1.151-0.3c-0.797,0-1.459,0.257-1.985,0.769
			c-0.527,0.514-0.789,1.334-0.789,2.461v6.367h-1.92v-7.12c0-0.824-0.157-1.443-0.469-1.856c-0.313-0.412-0.825-0.62-1.536-0.62
			c-0.541,0-1.041,0.138-1.499,0.414c-0.458,0.274-0.79,0.676-0.997,1.205c-0.207,0.532-0.31,1.295-0.31,2.293v5.685H10z"/>
		<path fill="#FFCD33" d="M35.951,24.864l1.985,0.237c-0.313,1.121-0.893,1.992-1.738,2.612c-0.849,0.619-1.927,0.928-3.244,0.928
			c-1.657,0-2.97-0.493-3.942-1.481c-0.968-0.987-1.454-2.371-1.454-4.153c0-1.843,0.49-3.273,1.473-4.292
			c0.981-1.018,2.253-1.527,3.818-1.527c1.515,0,2.752,0.499,3.71,1.496C37.519,19.681,38,21.085,38,22.895
			c0,0.109-0.003,0.274-0.01,0.495h-8.448c0.07,1.203,0.422,2.125,1.056,2.765c0.632,0.641,1.422,0.959,2.368,0.959
			c0.704,0,1.306-0.177,1.802-0.534C35.266,26.221,35.659,25.648,35.951,24.864z M29.649,21.861h6.324
			c-0.086-0.92-0.327-1.611-0.728-2.073c-0.61-0.716-1.402-1.073-2.377-1.073c-0.882,0-1.623,0.284-2.224,0.856
			C30.044,20.143,29.713,20.906,29.649,21.861z"/>
	</g>
</g>
</svg>
