<?xml version="1.0" encoding="utf-8"?>
<!-- Generator: Adobe Illustrator 15.0.0, SVG Export Plug-In . SVG Version: 6.00 Build 0)  -->
<!DOCTYPE svg PUBLIC "-//W3C//DTD SVG 1.1//EN" "http://www.w3.org/Graphics/SVG/1.1/DTD/svg11.dtd">
<svg version="1.1" id="Layer_1" xmlns="http://www.w3.org/2000/svg" xmlns:xlink="http://www.w3.org/1999/xlink" x="0px" y="0px"
	 width="48px" height="48px" viewBox="0 0 48 48" enable-background="new 0 0 48 48" xml:space="preserve">
<rect x="1.25" y="0.171" fill="#005270" width="48" height="48"/>
<g>
	<g>
		<path fill="#FFCD33" d="M8.75,30.63V17.716h2.024v1.81c0.419-0.634,0.976-1.14,1.671-1.526c0.696-0.384,1.489-0.578,2.376-0.578
			c0.989,0,1.799,0.199,2.434,0.596c0.634,0.397,1.078,0.953,1.337,1.665c1.056-1.507,2.432-2.261,4.124-2.261
			c1.327,0,2.344,0.353,3.054,1.062c0.713,0.712,1.07,1.804,1.07,3.279v8.865H24.59v-8.135c0-0.876-0.074-1.505-0.221-1.891
			c-0.146-0.385-0.414-0.694-0.799-0.929c-0.385-0.235-0.836-0.354-1.356-0.354c-0.939,0-1.72,0.303-2.339,0.906
			c-0.621,0.606-0.93,1.572-0.93,2.9v7.504h-2.263v-8.392c0-0.971-0.185-1.701-0.553-2.188c-0.369-0.486-0.972-0.731-1.81-0.731
			c-0.638,0-1.227,0.163-1.767,0.488c-0.54,0.323-0.931,0.797-1.175,1.42c-0.244,0.627-0.365,1.526-0.365,2.702v6.7H8.75L8.75,30.63
			z"/>
		<path fill="#FFCD33" d="M39.335,26.469l2.339,0.28c-0.368,1.321-1.052,2.347-2.047,3.077c-1.001,0.73-2.271,1.094-3.824,1.094
			c-1.953,0-3.5-0.58-4.646-1.745c-1.141-1.163-1.712-2.794-1.712-4.894c0-2.172,0.576-3.857,1.735-5.059
			c1.155-1.2,2.655-1.799,4.5-1.799c1.784,0,3.243,0.588,4.371,1.763c1.133,1.175,1.699,2.83,1.699,4.963
			c0,0.128-0.004,0.322-0.012,0.583h-9.957c0.082,1.418,0.498,2.506,1.244,3.258c0.746,0.757,1.676,1.132,2.791,1.132
			c0.83,0,1.539-0.208,2.124-0.63C38.527,28.067,38.991,27.394,39.335,26.469z M31.907,22.93h7.453
			c-0.101-1.084-0.384-1.898-0.857-2.443c-0.719-0.844-1.652-1.265-2.801-1.265c-1.04,0-1.913,0.335-2.621,1.009
			C32.373,20.905,31.983,21.805,31.907,22.93z"/>
	</g>
</g>
</svg>
