<?xml version="1.0" encoding="utf-8"?>
<!-- Generator: Adobe Illustrator 15.0.0, SVG Export Plug-In . SVG Version: 6.00 Build 0)  -->
<!DOCTYPE svg PUBLIC "-//W3C//DTD SVG 1.1//EN" "http://www.w3.org/Graphics/SVG/1.1/DTD/svg11.dtd">
<svg version="1.1" id="Layer_1" xmlns="http://www.w3.org/2000/svg" xmlns:xlink="http://www.w3.org/1999/xlink" x="0px" y="0px"
	 width="48px" height="48px" viewBox="0 0 48 48" enable-background="new 0 0 48 48" xml:space="preserve">
<rect x="-2" y="-2" fill="#5B9A68" width="50" height="51"/>
<path fill="#FFFFFF" d="M35.064,35.797L23.639,9.482c-0.1-0.232-0.328-0.381-0.58-0.381l0,0c-0.252,0-0.481,0.148-0.58,0.38
	L11.015,35.795c-0.085,0.197-0.066,0.424,0.051,0.602c0.117,0.18,0.315,0.287,0.529,0.287h10.169v-5.592l-2.724-1.889l0.451-0.648
	l2.273,1.576v-4.48h2.589v2.945l2.372-1.195l0.355,0.707l-2.727,1.371v2.172l4.352-2.193l0.355,0.703l-4.708,2.373v4.15h10.131
	c0.214,0,0.412-0.107,0.529-0.287C35.13,36.219,35.15,35.992,35.064,35.797z"/>
</svg>
