<?xml version="1.0" encoding="utf-8"?>
<!-- Generator: Adobe Illustrator 15.0.0, SVG Export Plug-In . SVG Version: 6.00 Build 0)  -->
<!DOCTYPE svg PUBLIC "-//W3C//DTD SVG 1.1//EN" "http://www.w3.org/Graphics/SVG/1.1/DTD/svg11.dtd">
<svg version="1.1" id="Layer_1" xmlns="http://www.w3.org/2000/svg" xmlns:xlink="http://www.w3.org/1999/xlink" x="0px" y="0px"
	 width="48px" height="48px" viewBox="0 0 48 48" enable-background="new 0 0 48 48" xml:space="preserve">
<rect x="-2" y="-2" fill="#44BBFF" width="50" height="51"/>
<path fill="#FFFFFF" d="M9.018,17.312l1.172,1.537c0,0,2.418-1.904,3.224-0.953c0.806,0.953,3.881,12.455,4.909,14.577
	c0.896,1.861,3.369,4.323,6.08,2.565s11.72-9.45,13.333-18.534c1.611-9.082-10.844-7.181-12.162,0.732
	c3.297-1.979,5.057,0.805,3.37,3.956c-1.685,3.149-3.223,5.203-4.029,5.203c-0.805,0-1.424-2.107-2.345-5.79
	c-0.953-3.808-0.947-10.666-4.908-9.89C13.926,11.45,9.018,17.312,9.018,17.312z"/>
<rect x="-55" y="2" fill="#F57D00" width="48" height="48"/>
<path fill-rule="evenodd" clip-rule="evenodd" fill="#FFFFFF" d="M-16.523,24.717l-0.242-0.502l-0.406-0.318
	c-0.531-0.416-3.217,0.027-3.941-0.631c-0.514-0.471-0.592-1.322-0.748-2.471c-0.287-2.236-0.471-2.35-0.818-3.104
	c-1.266-2.687-4.697-4.706-7.055-4.986h-6.387c-5.023,0-9.131,4.115-9.131,9.139v10.66c0,5.014,4.107,9.121,9.131,9.121h10.493
	c5.023,0,9.105-4.107,9.135-9.121l0.055-7.385L-16.523,24.717z M-36.004,20.174h5.063c0.966,0,1.75,0.783,1.75,1.742
	c0,0.953-0.783,1.748-1.75,1.748h-5.063c-0.967,0-1.75-0.795-1.75-1.748C-37.754,20.957-36.971,20.174-36.004,20.174z
	 M-25.717,34.109h-10.288c-0.967,0-1.75-0.795-1.75-1.74c0-0.959,0.783-1.738,1.75-1.738h10.288c0.961,0,1.74,0.779,1.74,1.738
	C-23.977,33.314-24.756,34.109-25.717,34.109z"/>
</svg>
