<?xml version="1.0" encoding="utf-8"?>
<!-- Generator: Adobe Illustrator 15.0.0, SVG Export Plug-In . SVG Version: 6.00 Build 0)  -->
<!DOCTYPE svg PUBLIC "-//W3C//DTD SVG 1.1//EN" "http://www.w3.org/Graphics/SVG/1.1/DTD/svg11.dtd">
<svg version="1.1" id="Layer_1" xmlns="http://www.w3.org/2000/svg" xmlns:xlink="http://www.w3.org/1999/xlink" x="0px" y="0px"
	 width="48px" height="48px" viewBox="0 0 48 48" enable-background="new 0 0 48 48" xml:space="preserve">
<rect x="-2.217" y="-3.494" fill="#93BD2C" width="52" height="52"/>
<g>
	<path fill="#FFFFFF" d="M27.703,10.262l0.32-0.48l0.315-0.475l0.71-1.065c0.087-0.131,0.052-0.308-0.079-0.395
		s-0.308-0.052-0.396,0.079l-0.762,1.142l-0.318,0.48l-0.324,0.486c-1.027-0.398-2.176-0.622-3.387-0.622
		c-1.21,0-2.357,0.224-3.386,0.622l-0.324-0.486l-0.318-0.48l-0.764-1.142c-0.088-0.131-0.264-0.166-0.396-0.079
		c-0.13,0.087-0.166,0.264-0.078,0.395l0.709,1.065l0.316,0.475l0.32,0.48c-2.416,1.126-4.051,3.257-4.051,5.698h15.939
		C31.754,13.518,30.119,11.388,27.703,10.262z M20.368,13.682c-0.473,0-0.854-0.383-0.854-0.854s0.382-0.854,0.854-0.854
		s0.854,0.383,0.854,0.854S20.84,13.682,20.368,13.682z M27.199,13.682c-0.473,0-0.854-0.383-0.854-0.854s0.381-0.854,0.854-0.854
		s0.854,0.383,0.854,0.854S27.672,13.682,27.199,13.682z"/>
	<path fill="#FFFFFF" d="M15.938,17.098h-0.123v1.42v1.159v9.945c0,0.994,0.809,1.804,1.803,1.804h1.302
		c-0.044,0.149-0.068,0.309-0.068,0.473v0.096v0.57v2.939c0,0.943,0.766,1.708,1.708,1.708c0.943,0,1.708-0.765,1.708-1.708v-2.939
		v-0.57v-0.096c0-0.164-0.024-0.322-0.067-0.473h3.172c-0.043,0.149-0.067,0.309-0.067,0.473v0.096v0.57v2.939
		c0,0.943,0.767,1.708,1.708,1.708c0.943,0,1.709-0.765,1.709-1.708v-2.939v-0.57v-0.096c0-0.164-0.025-0.322-0.068-0.473h1.301
		c0.994,0,1.804-0.81,1.804-1.804v-9.945v-1.159v-1.42h-0.123H15.938z"/>
	<path fill="#FFFFFF" d="M12.967,17.098c-0.942,0-1.707,0.765-1.707,1.707v7.306c0,0.943,0.765,1.709,1.707,1.709
		s1.709-0.766,1.709-1.709v-7.306C14.676,17.862,13.909,17.098,12.967,17.098z"/>
	<path fill="#FFFFFF" d="M34.601,17.098c-0.942,0-1.708,0.765-1.708,1.707v7.306c0,0.943,0.766,1.709,1.708,1.709
		c0.943,0,1.707-0.766,1.707-1.709v-7.306C36.308,17.862,35.544,17.098,34.601,17.098z"/>
</g>
</svg>
