<?xml version="1.0" encoding="utf-8"?>
<!-- Generator: Adobe Illustrator 15.0.0, SVG Export Plug-In . SVG Version: 6.00 Build 0)  -->
<!DOCTYPE svg PUBLIC "-//W3C//DTD SVG 1.1//EN" "http://www.w3.org/Graphics/SVG/1.1/DTD/svg11.dtd">
<svg version="1.1" id="Layer_1" xmlns="http://www.w3.org/2000/svg" xmlns:xlink="http://www.w3.org/1999/xlink" x="0px" y="0px"
	 width="48px" height="48px" viewBox="0 0 48 48" enable-background="new 0 0 48 48" xml:space="preserve">
<rect x="-2" y="-3" fill="#93BD2C" width="52" height="52"/>
<g>
	<path fill="#FFFFFF" d="M27.486,9.768l0.32-0.48l0.316-0.475l0.71-1.065c0.087-0.131,0.052-0.308-0.079-0.395
		s-0.308-0.052-0.395,0.079l-0.762,1.142l-0.319,0.48L26.953,9.54c-1.027-0.398-2.176-0.622-3.386-0.622s-2.358,0.224-3.386,0.622
		l-0.324-0.486l-0.319-0.48l-0.763-1.142c-0.088-0.131-0.264-0.166-0.396-0.079c-0.13,0.087-0.166,0.264-0.078,0.395l0.709,1.065
		l0.316,0.475l0.321,0.48c-2.416,1.126-4.051,3.257-4.051,5.698h15.939C31.537,13.024,29.902,10.894,27.486,9.768z M20.152,13.188
		c-0.473,0-0.854-0.383-0.854-0.854c0-0.471,0.382-0.854,0.854-0.854c0.471,0,0.854,0.383,0.854,0.854
		C21.006,12.805,20.623,13.188,20.152,13.188z M26.983,13.188c-0.473,0-0.854-0.383-0.854-0.854c0-0.471,0.381-0.854,0.854-0.854
		c0.472,0,0.853,0.383,0.853,0.854C27.836,12.805,27.455,13.188,26.983,13.188z"/>
	<path fill="#FFFFFF" d="M15.721,16.604h-0.123v1.42v1.159v9.945c0,0.994,0.808,1.803,1.803,1.803h1.301
		c-0.044,0.15-0.068,0.309-0.068,0.474v0.095v0.57v2.94c0,0.943,0.766,1.708,1.708,1.708c0.943,0,1.708-0.765,1.708-1.708v-2.94
		v-0.57v-0.095c0-0.165-0.024-0.323-0.067-0.474h3.172c-0.044,0.15-0.068,0.309-0.068,0.474v0.095v0.57v2.94
		c0,0.943,0.766,1.708,1.708,1.708c0.943,0,1.709-0.765,1.709-1.708v-2.94v-0.57v-0.095c0-0.165-0.025-0.323-0.068-0.474h1.301
		c0.994,0,1.803-0.809,1.803-1.803v-9.945v-1.159v-1.42h-0.123H15.721z"/>
	<path fill="#FFFFFF" d="M12.75,16.604c-0.942,0-1.707,0.765-1.707,1.707v7.306c0,0.943,0.765,1.709,1.707,1.709
		c0.943,0,1.709-0.766,1.709-1.709v-7.306C14.459,17.368,13.693,16.604,12.75,16.604z"/>
	<path fill="#FFFFFF" d="M34.384,16.604c-0.943,0-1.708,0.765-1.708,1.707v7.306c0,0.943,0.765,1.709,1.708,1.709
		s1.707-0.766,1.707-1.709v-7.306C36.091,17.368,35.327,16.604,34.384,16.604z"/>
</g>
</svg>
