<?xml version="1.0" encoding="utf-8"?>
<!-- Generator: Adobe Illustrator 15.0.0, SVG Export Plug-In . SVG Version: 6.00 Build 0)  -->
<!DOCTYPE svg PUBLIC "-//W3C//DTD SVG 1.1//EN" "http://www.w3.org/Graphics/SVG/1.1/DTD/svg11.dtd">
<svg version="1.1" id="Layer_1" xmlns="http://www.w3.org/2000/svg" xmlns:xlink="http://www.w3.org/1999/xlink" x="0px" y="0px"
	 width="48px" height="48px" viewBox="0 0 48 48" enable-background="new 0 0 48 48" xml:space="preserve">
<rect x="-2" y="-3" fill="#E96922" width="52" height="52"/>
<g>
	<circle fill="#FFFFFF" cx="24" cy="23" r="16"/>
	<g>
		<path fill="#E96922" d="M14.6,22.081c0,0.468,0.38,0.849,0.849,0.849l0,0c0.469,0,0.847-0.381,0.847-0.849v-4.239
			c0-0.468-0.378-0.846-0.847-0.846l0,0c-0.469,0-0.849,0.378-0.849,0.846V22.081z"/>
		<path fill="#E4450F" d="M15.449,23.142c-0.585,0-1.061-0.476-1.061-1.061v-4.239c0-0.583,0.476-1.061,1.061-1.061
			c0.586,0,1.059,0.478,1.059,1.061v4.239C16.508,22.666,16.035,23.142,15.449,23.142z M15.449,17.208
			c-0.352,0-0.638,0.284-0.638,0.635v4.239c0,0.352,0.286,0.637,0.638,0.637s0.636-0.286,0.636-0.637v-4.239
			C16.085,17.491,15.801,17.208,15.449,17.208z"/>
	</g>
	<g>
		<path fill="#E96922" d="M32.828,22.081c0,0.468,0.38,0.849,0.85,0.849l0,0c0.469,0,0.846-0.381,0.846-0.849v-4.239
			c0-0.468-0.377-0.846-0.846-0.846l0,0c-0.47,0-0.85,0.378-0.85,0.846V22.081z"/>
		<path fill="#E4450F" d="M33.678,23.142c-0.583,0-1.061-0.476-1.061-1.061v-4.239c0-0.583,0.478-1.061,1.061-1.061
			c0.582,0,1.06,0.478,1.06,1.061v4.239C34.737,22.666,34.26,23.142,33.678,23.142z M33.678,17.208
			c-0.353,0-0.637,0.284-0.637,0.635v4.239c0,0.352,0.284,0.637,0.637,0.637c0.351,0,0.635-0.286,0.635-0.637v-4.239
			C34.312,17.491,34.028,17.208,33.678,17.208z"/>
	</g>
	<g>
		<path fill="#E96922" d="M24.987,25.473c-0.177,0-0.352-0.074-0.48-0.217l-2.967-2.968c-0.221-0.252-0.208-0.63,0.029-0.866
			l2.967-2.969c0.25-0.248,0.653-0.248,0.901,0c0.246,0.247,0.246,0.651,0,0.898l-2.548,2.547l2.573,2.519
			c0.234,0.267,0.205,0.668-0.057,0.901C25.283,25.42,25.137,25.473,24.987,25.473z"/>
		<path fill="#E4450F" d="M24.987,18.266c0.161,0,0.325,0.063,0.45,0.187c0.246,0.247,0.246,0.651,0,0.898l-2.548,2.547l2.573,2.519
			c0.234,0.267,0.205,0.668-0.057,0.901c-0.123,0.102-0.27,0.154-0.419,0.154c-0.177,0-0.352-0.074-0.48-0.217l-2.967-2.968
			c-0.221-0.252-0.208-0.63,0.029-0.866l2.967-2.969C24.663,18.33,24.824,18.266,24.987,18.266 M24.987,17.842
			c-0.282,0-0.55,0.111-0.75,0.311l-2.967,2.968c-0.394,0.392-0.415,1.027-0.05,1.446l0.01,0.013l0.01,0.008l2.959,2.958
			c0.201,0.224,0.488,0.351,0.787,0.351c0.257,0,0.503-0.093,0.696-0.262c0.215-0.188,0.341-0.447,0.36-0.725
			c0.019-0.285-0.074-0.558-0.259-0.771l-0.01-0.013l-0.014-0.013l-2.269-2.219l2.242-2.245c0.201-0.2,0.311-0.466,0.311-0.747
			c0-0.284-0.109-0.55-0.311-0.75C25.535,17.953,25.27,17.842,24.987,17.842L24.987,17.842z"/>
	</g>
	<g>
		<path fill="#E96922" d="M24.351,32.892c-2.132,0-3.796-0.628-4.945-1.863c-1.804-1.934-1.633-4.64-1.625-4.753
			c0.026-0.352,0.337-0.616,0.681-0.59c0.35,0.025,0.613,0.329,0.588,0.679c-0.002,0.033-0.13,2.288,1.293,3.808
			c0.897,0.96,2.248,1.447,4.008,1.447c0.199-0.002,4.875-0.089,4.875-5.299c0-0.351,0.286-0.636,0.637-0.636
			c0.35,0,0.635,0.285,0.635,0.636C30.497,32.815,24.412,32.892,24.351,32.892z"/>
		<path fill="#E4450F" d="M24.351,33.102c-2.192,0-3.909-0.647-5.102-1.927c-1.868-2.008-1.688-4.798-1.678-4.915
			c0.033-0.462,0.44-0.829,0.907-0.786c0.463,0.034,0.814,0.44,0.784,0.906c-0.001,0.02-0.118,2.203,1.236,3.646
			c0.857,0.916,2.153,1.383,3.853,1.383c0.188-0.003,4.663-0.089,4.663-5.089c0-0.467,0.38-0.848,0.849-0.848
			c0.465,0,0.848,0.381,0.848,0.848C30.71,33.024,24.414,33.102,24.351,33.102z M18.442,25.897c-0.247,0-0.433,0.176-0.449,0.393
			c-0.008,0.109-0.177,2.723,1.568,4.596c1.107,1.188,2.718,1.793,4.79,1.793c0.061,0,5.933-0.103,5.933-6.358
			c0-0.233-0.189-0.424-0.422-0.424c-0.234,0-0.424,0.19-0.424,0.424c0,5.417-4.876,5.51-5.087,5.512
			c-1.821,0-3.222-0.512-4.162-1.517c-1.479-1.578-1.355-3.868-1.351-3.964c0.017-0.235-0.159-0.438-0.391-0.454
			C18.444,25.897,18.444,25.897,18.442,25.897z"/>
	</g>
	<rect x="21.172" y="21.657" fill="#E4450F" width="0.423" height="0.424"/>
</g>
</svg>
