<?xml version="1.0" encoding="utf-8"?>
<!-- Generator: Adobe Illustrator 15.0.0, SVG Export Plug-In . SVG Version: 6.00 Build 0)  -->
<!DOCTYPE svg PUBLIC "-//W3C//DTD SVG 1.1//EN" "http://www.w3.org/Graphics/SVG/1.1/DTD/svg11.dtd">
<svg version="1.1" id="Layer_1" xmlns="http://www.w3.org/2000/svg" xmlns:xlink="http://www.w3.org/1999/xlink" x="0px" y="0px"
	 width="48px" height="48px" viewBox="0 0 48 48" enable-background="new 0 0 48 48" xml:space="preserve">
<rect x="-1" y="-2" fill="#EA4C89" width="50" height="51"/>
<path fill-rule="evenodd" clip-rule="evenodd" fill="#FFFFFF" d="M38.606,19.94c-0.189-0.924-0.473-1.834-0.839-2.704
	c-0.361-0.854-0.808-1.676-1.327-2.444c-0.513-0.761-1.104-1.477-1.755-2.127c-0.651-0.652-1.367-1.243-2.129-1.756
	c-0.769-0.521-1.592-0.966-2.443-1.328c-0.869-0.366-1.779-0.649-2.703-0.838c-0.948-0.194-1.923-0.293-2.896-0.293
	c-0.975,0-1.95,0.099-2.898,0.293c-0.925,0.188-1.833,0.472-2.704,0.838c-0.852,0.362-1.675,0.807-2.443,1.328
	c-0.761,0.513-1.477,1.104-2.129,1.756c-0.65,0.65-1.24,1.366-1.754,2.127c-0.521,0.769-0.967,1.591-1.327,2.444
	c-0.367,0.87-0.649,1.78-0.839,2.704c-0.194,0.947-0.292,1.922-0.292,2.896s0.098,1.951,0.292,2.898
	c0.189,0.924,0.472,1.834,0.839,2.703c0.36,0.852,0.807,1.676,1.327,2.445c0.514,0.76,1.104,1.475,1.754,2.127
	c0.652,0.65,1.368,1.24,2.129,1.754c0.769,0.52,1.592,0.967,2.443,1.328c0.871,0.367,1.779,0.648,2.704,0.838
	c0.948,0.195,1.924,0.293,2.898,0.293c0.974,0,1.948-0.098,2.896-0.293c0.924-0.189,1.834-0.471,2.703-0.838
	c0.852-0.361,1.675-0.809,2.443-1.328c0.762-0.514,1.478-1.104,2.129-1.754c0.65-0.652,1.242-1.367,1.755-2.127
	c0.52-0.77,0.966-1.594,1.327-2.445c0.366-0.869,0.649-1.779,0.839-2.703c0.193-0.947,0.293-1.923,0.293-2.898
	S38.8,20.887,38.606,19.94z M36.795,22.713c-0.179-0.039-4.336-0.932-8.558-0.402c-0.087-0.209-0.174-0.422-0.266-0.633
	c-0.256-0.602-0.53-1.197-0.815-1.783c4.852-1.98,6.821-4.829,6.845-4.863C35.725,17.125,36.768,19.799,36.795,22.713z
	 M32.627,13.616c-0.029,0.048-1.78,2.711-6.418,4.449c-2.099-3.859-4.406-6.924-4.592-7.167c0.929-0.226,1.897-0.347,2.896-0.347
	C27.624,10.551,30.463,11.71,32.627,13.616z M21.57,10.908c-0.001,0.001-0.002,0.002-0.002,0.002s-0.015,0.004-0.038,0.007
	C21.544,10.915,21.558,10.912,21.57,10.908z M19.271,11.725c0.162,0.22,2.435,3.3,4.562,7.079
	c-5.899,1.568-11.02,1.508-11.343,1.502C13.288,16.499,15.844,13.344,19.271,11.725z M12.228,22.836c0-0.131,0.006-0.26,0.01-0.389
	c0.217,0.006,6.287,0.143,12.612-1.75c0.353,0.689,0.689,1.389,0.997,2.088c-0.162,0.045-0.323,0.094-0.484,0.146
	c-6.63,2.142-9.991,8.109-9.991,8.109s0.002,0.004,0.003,0.006C13.419,28.869,12.228,25.992,12.228,22.836z M24.514,35.123
	c-2.975,0-5.701-1.057-7.827-2.816c0.162,0.131,0.275,0.215,0.275,0.215s2.354-5.135,9.643-7.674c0.025-0.012,0.053-0.02,0.08-0.027
	c1.729,4.492,2.442,8.254,2.625,9.33C27.836,34.775,26.214,35.123,24.514,35.123z M31.378,33.027
	c-0.125-0.744-0.78-4.348-2.392-8.777c3.967-0.634,7.403,0.453,7.657,0.537C36.097,28.211,34.137,31.164,31.378,33.027z"/>
</svg>
