<?xml version="1.0" encoding="utf-8"?>
<!-- Generator: Adobe Illustrator 15.0.0, SVG Export Plug-In . SVG Version: 6.00 Build 0)  -->
<!DOCTYPE svg PUBLIC "-//W3C//DTD SVG 1.1//EN" "http://www.w3.org/Graphics/SVG/1.1/DTD/svg11.dtd">
<svg version="1.1" id="Layer_1" xmlns="http://www.w3.org/2000/svg" xmlns:xlink="http://www.w3.org/1999/xlink" x="0px" y="0px"
	 width="48px" height="48px" viewBox="0 0 48 48" enable-background="new 0 0 48 48" xml:space="preserve">
<rect x="-2" y="-2" fill-rule="evenodd" clip-rule="evenodd" fill="#EC1C24" width="52" height="52"/>
<path fill-rule="evenodd" clip-rule="evenodd" fill="#FFFFFF" d="M20.708,17.966h4.279v7.367c0,0,6.313,1.901,7.165-3.972
	c0.134-6.519-7.505-6.485-7.505-6.485s-4.788-0.307-7.164,3.531c-1.799,3.057,0.509,5.807,0.509,5.807l-3.089,2.749
	c0,0-4.652-5.738-0.102-11.951c5.907-6.689,15.907-2.669,15.907-2.669s7.725,3.145,5.076,11.497
	c-3.667,7.606-10.765,4.786-10.765,4.786v3.806c0,0-0.271,2.104-2.783,3.021c-2.513,0.917-4.821-0.813-4.821-0.813V30.8
	c1.146,1.172,2.685,1.84,3.292,0.137V17.966L20.708,17.966z"/>
</svg>
