<?xml version="1.0" encoding="utf-8"?>
<!-- Generator: Adobe Illustrator 15.0.0, SVG Export Plug-In . SVG Version: 6.00 Build 0)  -->
<!DOCTYPE svg PUBLIC "-//W3C//DTD SVG 1.1//EN" "http://www.w3.org/Graphics/SVG/1.1/DTD/svg11.dtd">
<svg version="1.1" id="Layer_1" xmlns="http://www.w3.org/2000/svg" xmlns:xlink="http://www.w3.org/1999/xlink" x="0px" y="0px"
	 width="48px" height="48px" viewBox="0 0 48 48" enable-background="new 0 0 48 48" xml:space="preserve">
<rect fill="#DF8434" width="48" height="48"/>
<g>
	<path fill="#FFFFFF" d="M21.125,12.875v8h4.418c1.064,0,1.777-0.22,2.135-0.564c0.477-0.452,0.743-1.436,0.799-2.436h0.648v7
		h-0.648c-0.129-1-0.258-1.572-0.386-1.847c-0.165-0.344-0.437-0.638-0.813-0.835c-0.376-0.197-0.955-0.318-1.734-0.318h-4.418
		v6.666c0,0.887,0.194,1.424,0.268,1.616c0.073,0.19,0.281,0.39,0.465,0.502c0.184,0.114,0.61,0.216,1.125,0.216h3.166
		c1.056,0,1.822-0.125,2.301-0.281c0.477-0.157,0.936-0.482,1.377-0.945c0.568-0.61,1.15-1.773,1.748-2.773h0.551l-1.611,5H16.125
		v-1h0.661c0.44,0,0.857,0.113,1.253-0.111c0.293-0.156,0.657-0.279,0.764-0.595c0.104-0.315,0.322-0.847,0.322-1.818V15.355
		c0-1.269-0.284-1.822-0.522-2.117c-0.33-0.395-1.046-0.363-1.816-0.363h-0.661v-1h14.389l0.207,4h-0.537
		c-0.193-1-0.406-1.584-0.641-1.979c-0.233-0.393-0.58-0.643-1.039-0.85c-0.367-0.146-1.015-0.172-1.941-0.172H21.125z"/>
</g>
</svg>
