<?xml version="1.0" encoding="utf-8"?>
<!-- Generator: Adobe Illustrator 15.0.0, SVG Export Plug-In . SVG Version: 6.00 Build 0)  -->
<!DOCTYPE svg PUBLIC "-//W3C//DTD SVG 1.1//EN" "http://www.w3.org/Graphics/SVG/1.1/DTD/svg11.dtd">
<svg version="1.1" id="Layer_1" xmlns="http://www.w3.org/2000/svg" xmlns:xlink="http://www.w3.org/1999/xlink" x="0px" y="0px"
	 width="48px" height="48px" viewBox="0 0 48 48" enable-background="new 0 0 48 48" xml:space="preserve">
<rect x="-0.671" y="0.387" fill="#DB5800" width="48" height="48"/>
<g>
	<path fill="#FFFFFF" d="M19.776,13.734v9.469h5.229c1.26,0,2.104-0.262,2.527-0.668c0.563-0.535,0.878-1.699,0.945-2.883h0.768
		v8.285h-0.768c-0.152-1.184-0.306-1.861-0.458-2.187c-0.194-0.407-0.516-0.755-0.962-0.988c-0.443-0.232-1.13-0.376-2.053-0.376
		h-5.228v7.89c0,1.05,0.229,1.686,0.317,1.913c0.086,0.226,0.333,0.461,0.55,0.594c0.218,0.136,0.722,0.256,1.332,0.256h3.748
		c1.249,0,2.157-0.148,2.724-0.333c0.564-0.185,1.107-0.571,1.63-1.119c0.673-0.721,1.361-2.098,2.068-3.281h0.652l-1.907,5.918
		H13.858V35.04h0.783c0.521,0,1.014,0.134,1.483-0.131c0.347-0.185,0.777-0.33,0.904-0.705c0.123-0.372,0.381-1.002,0.381-2.152
		V16.669c0-1.502-0.336-2.156-0.618-2.506c-0.391-0.467-1.238-0.429-2.149-0.429H13.86v-1.184h17.032l0.245,4.734h-0.636
		c-0.229-1.184-0.48-1.875-0.761-2.343c-0.274-0.465-0.687-0.761-1.229-1.006c-0.433-0.174-1.2-0.203-2.296-0.203L19.776,13.734
		L19.776,13.734z"/>
</g>
</svg>
