<?xml version="1.0" encoding="utf-8"?>
<!-- Generator: Adobe Illustrator 15.0.0, SVG Export Plug-In . SVG Version: 6.00 Build 0)  -->
<!DOCTYPE svg PUBLIC "-//W3C//DTD SVG 1.1//EN" "http://www.w3.org/Graphics/SVG/1.1/DTD/svg11.dtd">
<svg version="1.1" id="Layer_1" xmlns="http://www.w3.org/2000/svg" xmlns:xlink="http://www.w3.org/1999/xlink" x="0px" y="0px"
	 width="48px" height="48px" viewBox="0 0 48 48" enable-background="new 0 0 48 48" xml:space="preserve">
<rect x="-1.518" y="-3.352" fill="#FB4F08" width="52" height="52"/>
<path fill="#FFFFFF" d="M9.442,29.106c0.07,0,0.128-0.055,0.138-0.133l0.373-2.926l-0.373-2.992
	c-0.012-0.078-0.068-0.133-0.138-0.133c-0.07,0-0.129,0.057-0.138,0.133c0,0.002-0.328,2.992-0.328,2.992l0.328,2.926
	C9.313,29.05,9.372,29.106,9.442,29.106z M8.344,27.865c0,0,0,0,0,0.003l0,0V27.865z M8.211,27.996c0.067,0,0.123-0.055,0.133-0.128
	l0.288-1.82l-0.288-1.85c-0.009-0.077-0.065-0.132-0.133-0.132c-0.069,0-0.124,0.057-0.134,0.132l-0.243,1.85l0.244,1.817
	C8.087,27.942,8.142,27.996,8.211,27.996z M10.917,22.5c-0.01-0.096-0.081-0.164-0.167-0.164c-0.088,0-0.158,0.068-0.167,0.164
	c0,0.002-0.311,3.55-0.311,3.55l0.311,3.418c0.01,0.094,0.08,0.162,0.167,0.162c0.086,0,0.156-0.068,0.167-0.162l0.354-3.418
	L10.917,22.5z M12.07,29.767c0.101,0,0.186-0.081,0.195-0.19l0,0l0.333-3.526l-0.333-3.646c-0.009-0.111-0.092-0.194-0.195-0.194
	c-0.103,0-0.187,0.083-0.195,0.194l-0.294,3.646l0.294,3.526C11.883,29.686,11.967,29.767,12.07,29.767z M13.398,29.825
	c0.119,0,0.215-0.096,0.223-0.221l0,0l0.315-3.555l-0.315-3.385c-0.008-0.124-0.104-0.22-0.223-0.22
	c-0.121,0-0.217,0.096-0.224,0.223l-0.276,3.382l0.276,3.555C13.182,29.729,13.279,29.825,13.398,29.825z M15.286,26.052
	l-0.295-5.503c-0.007-0.142-0.118-0.249-0.252-0.249c-0.134,0-0.245,0.108-0.252,0.249l-0.259,5.503l0.259,3.555
	c0.008,0.14,0.119,0.25,0.252,0.25c0.133,0,0.245-0.111,0.252-0.252v0.002L15.286,26.052z M16.091,29.86
	c0.149,0,0.272-0.12,0.28-0.276v0.002l0.275-3.536l-0.276-6.759c-0.007-0.155-0.131-0.276-0.28-0.276
	c-0.151,0-0.275,0.12-0.281,0.276l-0.244,6.761l0.244,3.532C15.816,29.74,15.939,29.86,16.091,29.86z M17.451,18.421
	c-0.168,0-0.303,0.135-0.31,0.308l-0.227,7.323l0.227,3.499c0.005,0.168,0.142,0.304,0.31,0.304c0.166,0,0.302-0.136,0.309-0.306
	v0.002l0.257-3.499l-0.257-7.323C17.753,18.556,17.619,18.421,17.451,18.421z M18.824,29.86c0.184,0,0.332-0.148,0.338-0.335v0.003
	l0.237-3.477l-0.237-7.57c-0.006-0.188-0.154-0.334-0.338-0.334c-0.183,0-0.332,0.147-0.337,0.334l-0.208,7.57l0.209,3.477
	C18.492,29.713,18.641,29.86,18.824,29.86z M20.207,29.858c0.2,0,0.36-0.16,0.366-0.363v0.002l0.217-3.447l-0.217-7.376
	c-0.005-0.203-0.166-0.364-0.366-0.364s-0.36,0.16-0.366,0.364l-0.193,7.378l0.193,3.443C19.846,29.698,20.006,29.858,20.207,29.858
	z M22.192,26.054l-0.197-7.112c-0.004-0.218-0.178-0.39-0.394-0.39c-0.217,0-0.39,0.172-0.395,0.393l-0.176,7.109l0.176,3.42
	c0.005,0.219,0.178,0.391,0.395,0.391c0.216,0,0.389-0.172,0.394-0.393v0.002L22.192,26.054z M23.006,29.871
	c0.229,0,0.418-0.189,0.422-0.42v0.002l0.178-3.401l-0.178-8.457c-0.004-0.232-0.194-0.421-0.422-0.421
	c-0.23,0-0.419,0.189-0.422,0.421l-0.16,8.455c0,0.007,0.16,3.403,0.16,3.403C22.587,29.682,22.776,29.871,23.006,29.871z
	 M24.404,16.38c-0.245,0-0.447,0.201-0.452,0.449l-0.185,9.225l0.185,3.35c0.004,0.245,0.206,0.446,0.452,0.446
	c0.245,0,0.446-0.2,0.45-0.448v0.004l0.201-3.352l-0.201-9.225C24.851,16.581,24.648,16.38,24.404,16.38z M25.684,29.873
	c0.01,0.002,11.279,0.006,11.352,0.006c2.263,0,4.096-1.832,4.096-4.096s-1.833-4.095-4.096-4.095c-0.561,0-1.097,0.112-1.583,0.316
	c-0.326-3.69-3.421-6.586-7.196-6.586c-0.925,0-1.824,0.185-2.62,0.49c-0.31,0.12-0.391,0.243-0.395,0.481v12.998
	C25.245,29.641,25.438,29.848,25.684,29.873z"/>
</svg>
