<?xml version="1.0" encoding="utf-8"?>
<!-- Generator: Adobe Illustrator 15.0.0, SVG Export Plug-In . SVG Version: 6.00 Build 0)  -->
<!DOCTYPE svg PUBLIC "-//W3C//DTD SVG 1.1//EN" "http://www.w3.org/Graphics/SVG/1.1/DTD/svg11.dtd">
<svg version="1.1" id="Layer_1" xmlns="http://www.w3.org/2000/svg" xmlns:xlink="http://www.w3.org/1999/xlink" x="0px" y="0px"
	 width="48px" height="48px" viewBox="0 0 48 48" enable-background="new 0 0 48 48" xml:space="preserve">
<rect x="-2" y="-3" fill="#FB4F08" width="52" height="52"/>
<path fill="#FFFFFF" d="M9.828,27.855c0.066,0,0.12-0.051,0.13-0.125l0.35-2.75l-0.35-2.811c-0.011-0.074-0.064-0.125-0.13-0.125
	s-0.121,0.053-0.13,0.125c0,0.002-0.308,2.811-0.308,2.811l0.308,2.75C9.707,27.803,9.762,27.855,9.828,27.855z M8.796,26.689
	c0,0,0,0,0,0.002l0,0V26.689z M8.671,26.812c0.063,0,0.115-0.051,0.125-0.121l0.271-1.711l-0.271-1.738
	c-0.009-0.072-0.061-0.123-0.125-0.123c-0.065,0-0.117,0.053-0.126,0.123L8.317,24.98l0.229,1.709
	C8.554,26.762,8.606,26.812,8.671,26.812z M11.215,21.646c-0.01-0.09-0.076-0.154-0.157-0.154c-0.083,0-0.148,0.064-0.157,0.154
	c0,0.002-0.292,3.336-0.292,3.336l0.292,3.213c0.009,0.088,0.075,0.152,0.157,0.152c0.081,0,0.147-0.064,0.157-0.152l0.332-3.213
	L11.215,21.646z M12.298,28.477c0.095,0,0.174-0.076,0.183-0.18l0,0l0.313-3.315l-0.313-3.426c-0.009-0.104-0.087-0.182-0.183-0.182
	c-0.097,0-0.176,0.078-0.184,0.182l-0.276,3.426l0.276,3.315C12.122,28.4,12.201,28.477,12.298,28.477z M13.547,28.531
	c0.111,0,0.202-0.09,0.209-0.207l0,0l0.296-3.342l-0.296-3.18c-0.008-0.117-0.098-0.207-0.209-0.207
	c-0.114,0-0.204,0.09-0.211,0.209l-0.26,3.178l0.26,3.342C13.343,28.441,13.434,28.531,13.547,28.531z M15.321,24.984l-0.277-5.172
	c-0.007-0.133-0.111-0.234-0.237-0.234c-0.126,0-0.23,0.102-0.237,0.234l-0.244,5.172l0.244,3.342
	c0.007,0.131,0.111,0.234,0.237,0.234c0.125,0,0.23-0.104,0.237-0.236v0.002L15.321,24.984z M16.077,28.564
	c0.141,0,0.256-0.113,0.264-0.26v0.002l0.258-3.323L16.34,18.63c-0.007-0.146-0.123-0.26-0.264-0.26
	c-0.142,0-0.258,0.113-0.264,0.26l-0.229,6.354l0.229,3.321C15.819,28.451,15.935,28.564,16.077,28.564z M17.356,17.812
	c-0.158,0-0.285,0.127-0.291,0.289l-0.213,6.883l0.213,3.29c0.005,0.158,0.133,0.285,0.291,0.285c0.156,0,0.284-0.127,0.29-0.287
	v0.002l0.241-3.29l-0.241-6.883C17.64,17.939,17.513,17.812,17.356,17.812z M18.646,28.564c0.173,0,0.312-0.139,0.318-0.314l0,0.002
	l0.222-3.268l-0.222-7.115c-0.006-0.176-0.145-0.314-0.318-0.314c-0.172,0-0.312,0.139-0.317,0.314l-0.196,7.115l0.197,3.268
	C18.334,28.426,18.474,28.564,18.646,28.564z M19.946,28.562c0.188,0,0.338-0.15,0.344-0.342v0.002l0.204-3.239L20.29,18.05
	c-0.005-0.191-0.156-0.342-0.344-0.342c-0.188,0-0.339,0.15-0.344,0.342l-0.181,6.934l0.181,3.237
	C19.607,28.412,19.758,28.562,19.946,28.562z M21.812,24.986l-0.185-6.684c-0.004-0.205-0.167-0.367-0.37-0.367
	c-0.204,0-0.367,0.162-0.371,0.369l-0.166,6.682l0.166,3.215c0.004,0.205,0.167,0.367,0.371,0.367c0.203,0,0.366-0.162,0.37-0.369
	v0.002L21.812,24.986z M22.577,28.574c0.215,0,0.393-0.178,0.397-0.395v0.002l0.167-3.196l-0.167-7.949
	c-0.004-0.219-0.182-0.396-0.397-0.396c-0.216,0-0.394,0.178-0.397,0.396l-0.15,7.947c0,0.006,0.15,3.198,0.15,3.198
	C22.183,28.396,22.361,28.574,22.577,28.574z M23.891,15.894c-0.23,0-0.42,0.189-0.424,0.422l-0.174,8.67l0.174,3.149
	c0.004,0.23,0.193,0.42,0.424,0.42s0.42-0.189,0.424-0.422v0.004l0.189-3.151l-0.189-8.67
	C24.311,16.083,24.121,15.894,23.891,15.894z M25.094,28.576c0.01,0.002,10.602,0.006,10.67,0.006c2.126,0,3.85-1.723,3.85-3.85
	c0-2.127-1.724-3.848-3.85-3.848c-0.527,0-1.031,0.105-1.488,0.297c-0.307-3.469-3.216-6.191-6.764-6.191
	c-0.869,0-1.715,0.174-2.463,0.461c-0.291,0.113-0.368,0.229-0.371,0.453v12.217C24.681,28.357,24.863,28.553,25.094,28.576z"/>
</svg>
