<?xml version="1.0" encoding="utf-8"?>
<!-- Generator: Adobe Illustrator 15.0.0, SVG Export Plug-In . SVG Version: 6.00 Build 0)  -->
<!DOCTYPE svg PUBLIC "-//W3C//DTD SVG 1.1//EN" "http://www.w3.org/Graphics/SVG/1.1/DTD/svg11.dtd">
<svg version="1.1" id="Layer_1" xmlns="http://www.w3.org/2000/svg" xmlns:xlink="http://www.w3.org/1999/xlink" x="0px" y="0px"
	 width="48px" height="48px" viewBox="0 0 48 48" enable-background="new 0 0 48 48" xml:space="preserve">
<rect x="-0.617" y="-0.566" fill="#1C0B10" width="48.478" height="48.478"/>
<g>
	<g>
		<path fill="#FFFFFF" d="M28.756,7.691c-5.791,0-10.539,4.564-10.83,10.286c-5.722,0.291-10.286,5.037-10.286,10.829
			c0,5.979,4.864,10.846,10.845,10.846l16.712,0.003l0.052-0.003c2.4,0,4.354-1.95,4.354-4.353V18.535
			C39.604,12.557,34.736,7.691,28.756,7.691 M21.22,20.855c-0.231-0.732-0.351-1.508-0.351-2.32c0.009-4.357,3.532-7.879,7.887-7.89
			c4.354,0.011,7.881,3.535,7.887,7.89v16.764c-0.002,0.77-0.623,1.394-1.394,1.394H18.485c-4.357-0.007-7.877-3.527-7.887-7.887
			c0.01-4.354,3.53-7.875,7.887-7.884c0.811,0,1.588,0.119,2.32,0.345l0.599,0.186L21.22,20.855z"/>
	</g>
	<rect x="24.39" y="15.296" fill="#EB6824" width="4.801" height="20.174"/>
	<path fill="#9EB02A" d="M18.225,25.525v9.94c0.104,0.004,0.212,0.004,0.317,0.004h4.489v-9.944H18.225"/>
	<path fill="#E72828" d="M12.061,29.801h-0.11c0.024,0.261,0.047,0.421,0.11,0.685c0,0,0.007,0.008,0.007,0.012
		c0.619,2.328,2.464,4.157,4.8,4.764v-5.46H12.061"/>
	<path fill="#1AA3E2" d="M30.546,35.479h3.821c0.549,0,0.986-0.438,0.986-0.983V22.971h-4.808V35.479"/>
</g>
</svg>
