<?xml version="1.0" encoding="utf-8"?>
<!-- Generator: Adobe Illustrator 15.0.0, SVG Export Plug-In . SVG Version: 6.00 Build 0)  -->
<!DOCTYPE svg PUBLIC "-//W3C//DTD SVG 1.1//EN" "http://www.w3.org/Graphics/SVG/1.1/DTD/svg11.dtd">
<svg version="1.1" id="Layer_1" xmlns="http://www.w3.org/2000/svg" xmlns:xlink="http://www.w3.org/1999/xlink" x="0px" y="0px"
	 width="48px" height="48px" viewBox="0 0 48 48" enable-background="new 0 0 48 48" xml:space="preserve">
<rect x="-0.796" fill="#E8E8E8" width="48.478" height="48.479"/>
<path id="Instapaper" fill="#282828" d="M29.805,36.41c-1.75-0.126-2.884-0.389-3.4-0.788c-0.519-0.397-0.776-1.433-0.776-3.099
	V13.278c0-1.592,0.259-2.616,0.776-3.074c0.518-0.457,1.65-0.729,3.4-0.813V8.588H17.082v0.803c1.75,0.085,2.883,0.356,3.401,0.813
	c0.519,0.458,0.776,1.482,0.776,3.074v19.246c0,1.666-0.258,2.699-0.776,3.099c-0.519,0.399-1.651,0.662-3.401,0.788v0.803h12.723
	V36.41z"/>
</svg>
