<?xml version="1.0" encoding="utf-8"?>
<!-- Generator: Adobe Illustrator 15.0.0, SVG Export Plug-In . SVG Version: 6.00 Build 0)  -->
<!DOCTYPE svg PUBLIC "-//W3C//DTD SVG 1.1//EN" "http://www.w3.org/Graphics/SVG/1.1/DTD/svg11.dtd">
<svg version="1.1" id="Layer_1" xmlns="http://www.w3.org/2000/svg" xmlns:xlink="http://www.w3.org/1999/xlink" x="0px" y="0px"
	 width="48px" height="48px" viewBox="0 0 48 48" enable-background="new 0 0 48 48" xml:space="preserve">
<rect x="-0.703" y="-2.392" width="50.146" height="51.103"/>
<path fill="#D9D9D9" d="M24.37,23.159"/>
<g>
	<g>
		<path fill="#FFFFFF" d="M14.621,20.634v0.773h0.047c1.39-0.838,2.823-0.903,3.682-0.903c2.314,0,3.101,0.661,3.401,0.903
			c0.532-0.309,1.689-0.903,3.656-0.903c3.936,0,3.936,1.553,3.936,2.181v3.658h-3.171v-3.259c0-0.675,0-1.424-1.69-1.424
			c-0.832,0-1.689,0.254-1.989,0.628c-0.278,0.318-0.395,0.605-0.395,1.311v2.743h-3.171v-3.129c0-0.97,0.022-1.554-1.643-1.554
			c-0.834,0-1.689,0.221-2.015,0.551c-0.254,0.253-0.417,0.518-0.417,1.356v2.774h-3.17v-5.708L14.621,20.634L14.621,20.634z"/>
		<path fill="#FFFFFF" d="M36.988,21.897h-2.301v2.288c0,0.809,0,1.072,0.94,1.072c0.446,0,0.843-0.052,1.263-0.132l0.098-0.013
			l0.297,1.163c-1.112,0.205-2.325,0.229-2.67,0.229c-1.038,0-2.377-0.154-2.87-0.58c-0.421-0.351-0.472-0.689-0.472-1.555v-2.473
			h-1.559v-1.192h1.559v-1.128l3.414-0.887v2.014h2.301V21.897z"/>
		<path fill="#FFFFFF" d="M10.132,29.569c-1.262-1.9-2.098-4.161-2.098-6.438c0-2.687,1.057-4.875,2.124-6.413h1.274
			c-0.945,2.097-1.589,3.876-1.589,6.468c0,2.972,1.054,5.262,1.534,6.299c0.014,0.016,0.041,0.07,0.041,0.084H10.132L10.132,29.569
			z"/>
		<path fill="#FFFFFF" d="M38.609,16.748c1.261,1.904,2.097,4.167,2.097,6.439c0,2.685-1.056,4.876-2.124,6.413h-1.273
			c0.944-2.1,1.59-3.881,1.59-6.468c0-2.974-1.055-5.261-1.535-6.303c-0.014-0.014-0.04-0.068-0.04-0.082H38.609z"/>
	</g>
</g>
</svg>
