<?xml version="1.0" encoding="utf-8"?>
<!-- Generator: Adobe Illustrator 15.0.0, SVG Export Plug-In . SVG Version: 6.00 Build 0)  -->
<!DOCTYPE svg PUBLIC "-//W3C//DTD SVG 1.1//EN" "http://www.w3.org/Graphics/SVG/1.1/DTD/svg11.dtd">
<svg version="1.1" id="Layer_1" xmlns="http://www.w3.org/2000/svg" xmlns:xlink="http://www.w3.org/1999/xlink" x="0px" y="0px"
	 width="48px" height="48px" viewBox="0 0 48 48" enable-background="new 0 0 48 48" xml:space="preserve">
<rect x="-0.703" y="-2.059" width="50.146" height="51.103"/>
<path fill="#D9D9D9" d="M24.37,23.493"/>
<g>
	<g>
		<path fill="#FFFFFF" d="M14.621,18.967v0.773h0.047c1.39-0.837,2.823-0.903,3.682-0.903c2.314,0,3.101,0.661,3.401,0.903
			c0.532-0.308,1.689-0.903,3.656-0.903c3.936,0,3.936,1.553,3.936,2.181v3.658h-3.171v-3.259c0-0.675,0-1.424-1.69-1.424
			c-0.832,0-1.689,0.254-1.989,0.628c-0.278,0.319-0.395,0.606-0.395,1.311v2.743h-3.171v-3.129c0-0.97,0.022-1.554-1.643-1.554
			c-0.834,0-1.689,0.221-2.015,0.551c-0.254,0.253-0.417,0.518-0.417,1.357v2.774h-3.17v-5.708H14.621z"/>
		<path fill="#FFFFFF" d="M36.989,20.231h-2.301v2.288c0,0.808,0,1.072,0.94,1.072c0.446,0,0.842-0.052,1.262-0.132l0.099-0.012
			l0.296,1.162c-1.112,0.206-2.325,0.229-2.67,0.229c-1.038,0-2.376-0.154-2.87-0.58c-0.421-0.351-0.471-0.689-0.471-1.555v-2.472
			h-1.559v-1.193h1.559V17.91l3.414-0.886v2.013h2.301V20.231z"/>
		<path fill="#FFFFFF" d="M10.132,27.903c-1.262-1.901-2.098-4.162-2.098-6.438c0-2.686,1.057-4.875,2.124-6.413h1.274
			c-0.945,2.097-1.589,3.876-1.589,6.468c0,2.971,1.054,5.261,1.534,6.299c0.014,0.015,0.041,0.07,0.041,0.083H10.132z"/>
		<path fill="#FFFFFF" d="M38.61,15.081c1.26,1.905,2.096,4.167,2.096,6.44c0,2.684-1.055,4.875-2.124,6.412h-1.274
			c0.945-2.099,1.59-3.88,1.59-6.467c0-2.974-1.054-5.261-1.535-6.303c-0.014-0.013-0.04-0.068-0.04-0.082H38.61z"/>
	</g>
</g>
</svg>
