<?xml version="1.0" encoding="utf-8"?>
<!-- Generator: Adobe Illustrator 15.0.0, SVG Export Plug-In . SVG Version: 6.00 Build 0)  -->
<!DOCTYPE svg PUBLIC "-//W3C//DTD SVG 1.1//EN" "http://www.w3.org/Graphics/SVG/1.1/DTD/svg11.dtd">
<svg version="1.1" id="Layer_1" xmlns="http://www.w3.org/2000/svg" xmlns:xlink="http://www.w3.org/1999/xlink" x="0px" y="0px"
	 width="48px" height="48px" viewBox="0 0 48 48" enable-background="new 0 0 48 48" xml:space="preserve">
<rect x="-2" y="-3" fill="#FB6E08" width="52" height="52"/>
<path fill="#FFFFFF" d="M6,23.674c4.172,0,8.727,2.026,11.87,5.187c3.148,3.161,4.978,6.925,4.978,12.14h6.855
	C29.703,27.44,19.56,16.818,6,16.818V23.674z M6,11.522c15.646,0,28.958,12.789,28.958,29.478h6.854
	C41.812,21.182,24.775,4.667,6,4.667V11.522z M15.684,35.642c0,2.624-2.126,4.75-4.749,4.75c-2.622,0-4.747-2.126-4.747-4.75
	c0-2.62,2.125-4.746,4.747-4.746C13.558,30.896,15.684,33.021,15.684,35.642z"/>
</svg>
