<?xml version="1.0" encoding="utf-8"?>
<!-- Generator: Adobe Illustrator 15.0.0, SVG Export Plug-In . SVG Version: 6.00 Build 0)  -->
<!DOCTYPE svg PUBLIC "-//W3C//DTD SVG 1.1//EN" "http://www.w3.org/Graphics/SVG/1.1/DTD/svg11.dtd">
<svg version="1.1" id="Layer_1" xmlns="http://www.w3.org/2000/svg" xmlns:xlink="http://www.w3.org/1999/xlink" x="0px" y="0px"
	 width="48px" height="48px" viewBox="0 0 48 48" enable-background="new 0 0 48 48" xml:space="preserve">
<rect x="61" y="-6" fill="#F2F2F2" width="52" height="52"/>
<g>
	<g>
		<defs>
			<rect id="SVGID_1_" width="48" height="48"/>
		</defs>
		<clipPath id="SVGID_2_">
			<use xlink:href="#SVGID_1_"  overflow="visible"/>
		</clipPath>
		<rect x="-2" y="-1" clip-path="url(#SVGID_2_)" fill="#42342B" width="52" height="17"/>
	</g>
	<g>
		<defs>
			<rect id="SVGID_3_" width="48" height="48"/>
		</defs>
		<clipPath id="SVGID_4_">
			<use xlink:href="#SVGID_3_"  overflow="visible"/>
		</clipPath>
		<rect x="-3" y="18" clip-path="url(#SVGID_4_)" fill="#FCF2C8" width="53" height="35"/>
	</g>
	<g>
		<defs>
			<rect id="SVGID_5_" width="48" height="48"/>
		</defs>
		<clipPath id="SVGID_6_">
			<use xlink:href="#SVGID_5_"  overflow="visible"/>
		</clipPath>
		<path clip-path="url(#SVGID_6_)" fill="#1A1615" d="M45,3.308C45,2.585,44.415,2,43.693,2h-7.387C35.585,2,35,2.585,35,3.308
			v7.385C35,11.415,35.585,12,36.307,12h7.387C44.415,12,45,11.415,45,10.692V3.308z"/>
	</g>
	<g>
		<defs>
			<rect id="SVGID_7_" width="48" height="48"/>
		</defs>
		<clipPath id="SVGID_8_">
			<use xlink:href="#SVGID_7_"  overflow="visible"/>
		</clipPath>
		<g clip-path="url(#SVGID_8_)">
			<rect x="5" fill="#F92B42" width="2" height="16"/>
			<rect x="7" fill="#FDBE01" width="2" height="16"/>
			<rect x="9" fill="#5CB972" width="2" height="16"/>
			<rect x="11" fill="#1C71F0" width="2" height="16"/>
		</g>
	</g>
	<g>
		<defs>
			<rect id="SVGID_9_" width="48" height="48"/>
		</defs>
		<clipPath id="SVGID_10_">
			<use xlink:href="#SVGID_9_"  overflow="visible"/>
		</clipPath>
		<rect x="-2" y="16" clip-path="url(#SVGID_10_)" fill="#30231A" width="51" height="1"/>
	</g>
	<g>
		<defs>
			<rect id="SVGID_11_" width="48" height="48"/>
		</defs>
		<clipPath id="SVGID_12_">
			<use xlink:href="#SVGID_11_"  overflow="visible"/>
		</clipPath>
		<rect x="-3" y="17" clip-path="url(#SVGID_12_)" fill="#FFF4C7" width="59" height="1"/>
	</g>
	<g>
		<defs>
			<rect id="SVGID_13_" width="48" height="48"/>
		</defs>
		<clipPath id="SVGID_14_">
			<use xlink:href="#SVGID_13_"  overflow="visible"/>
		</clipPath>
		<g clip-path="url(#SVGID_14_)">
			<path fill="#55433F" d="M14,15.5c0,1.381-0.933,2.5-2.083,2.5H6.083C4.933,18,4,16.881,4,15.5l0,0C4,14.119,4.933,13,6.083,13
				h5.833C13.067,13,14,14.119,14,15.5L14,15.5z"/>
			
				<linearGradient id="SVGID_15_" gradientUnits="userSpaceOnUse" x1="291" y1="-336" x2="291" y2="-341" gradientTransform="matrix(1 0 0 -1 -282 -323)">
				<stop  offset="0.5" style="stop-color:#FFFFFF;stop-opacity:0.4"/>
				<stop  offset="0.5" style="stop-color:#FFFFFF;stop-opacity:0"/>
			</linearGradient>
			<path fill="url(#SVGID_15_)" d="M14,15.5c0,1.381-0.933,2.5-2.083,2.5H6.083C4.933,18,4,16.881,4,15.5l0,0
				C4,14.119,4.933,13,6.083,13h5.833C13.067,13,14,14.119,14,15.5L14,15.5z"/>
		</g>
	</g>
	<g>
		<defs>
			<rect id="SVGID_16_" width="48" height="48"/>
		</defs>
		<clipPath id="SVGID_17_">
			<use xlink:href="#SVGID_16_"  overflow="visible"/>
		</clipPath>
		<g clip-path="url(#SVGID_17_)">
			<path fill="#F6EDF2" stroke="#BCBCBC" stroke-width="0.75" stroke-miterlimit="10" d="M24.568,39.648
				c-6.926,0-12.562-5.638-12.562-12.562c0-6.927,5.635-12.562,12.562-12.562c6.927,0,12.562,5.636,12.562,12.562
				C37.132,34.012,31.495,39.648,24.568,39.648z"/>
			<circle fill="#21201C" stroke="#F6EDF2" stroke-miterlimit="10" cx="24.496" cy="25.967" r="12.305"/>
		</g>
	</g>
	<g>
		<defs>
			<rect id="SVGID_18_" width="48" height="48"/>
		</defs>
		<clipPath id="SVGID_19_">
			<use xlink:href="#SVGID_18_"  overflow="visible"/>
		</clipPath>
		<circle clip-path="url(#SVGID_19_)" cx="40.275" cy="7.063" r="3.121"/>
	</g>
	<g>
		<defs>
			<rect id="SVGID_20_" width="48" height="48"/>
		</defs>
		<clipPath id="SVGID_21_">
			<use xlink:href="#SVGID_20_"  overflow="visible"/>
		</clipPath>
		<rect clip-path="url(#SVGID_21_)" fill="none" width="48" height="48"/>
	</g>
</g>
</svg>
