<?xml version="1.0" encoding="utf-8"?>
<!-- Generator: Adobe Illustrator 15.0.0, SVG Export Plug-In . SVG Version: 6.00 Build 0)  -->
<!DOCTYPE svg PUBLIC "-//W3C//DTD SVG 1.1//EN" "http://www.w3.org/Graphics/SVG/1.1/DTD/svg11.dtd">
<svg version="1.1" id="Layer_1" xmlns="http://www.w3.org/2000/svg" xmlns:xlink="http://www.w3.org/1999/xlink" x="0px" y="0px"
	 width="48px" height="48px" viewBox="0 0 48 48" enable-background="new 0 0 48 48" xml:space="preserve">
<rect x="-2" y="-2" fill="#4C5E51" width="52" height="52"/>
<g>
	<defs>
		<rect id="SVGID_1_" width="48" height="48"/>
	</defs>
	<clipPath id="SVGID_2_">
		<use xlink:href="#SVGID_1_"  overflow="visible"/>
	</clipPath>
	<g clip-path="url(#SVGID_2_)">
		<path fill="#C8DA2F" d="M18.855,16.489c13.03-3.746,23.912,3.912,23.912,3.912l-8.97,2.422l-2.583-4.8
			c-2.431-0.445-5.199-0.587-8.144-0.091l6.106,12.408l26.384-7.599c0,0-9.569-15.027-38.108-10.172
			c-0.168,0.029-0.316,0.071-0.481,0.098l-2.771-5.627L5.989,7.972l3.35,6.847C-7.98,21.97-0.306,38.833-0.306,38.833l26.422-7.605
			L18.855,16.489z M6.843,30.1c0,0-2.547-5.622,4.862-10.439l3.94,8.065L6.843,30.1z"/>
	</g>
</g>
</svg>
