<?xml version="1.0" encoding="utf-8"?>
<!-- Generator: Adobe Illustrator 15.0.0, SVG Export Plug-In . SVG Version: 6.00 Build 0)  -->
<!DOCTYPE svg PUBLIC "-//W3C//DTD SVG 1.1//EN" "http://www.w3.org/Graphics/SVG/1.1/DTD/svg11.dtd">
<svg version="1.1" id="Layer_1" xmlns="http://www.w3.org/2000/svg" xmlns:xlink="http://www.w3.org/1999/xlink" x="0px" y="0px"
	 width="48px" height="48px" viewBox="0 0 48 48" enable-background="new 0 0 48 48" xml:space="preserve">
<rect fill="#008CCA" width="48" height="48"/>
<g>
	<path fill="#FFFFFF" d="M30.581,14.33c-1.493-0.931-2.905-1.296-4.314-2.228c-0.873-0.592-2.086-2.002-3.102-3.214
		c-0.196,1.945-0.789,2.736-1.465,3.3c-1.437,1.127-2.34,1.464-3.582,2.142c-1.043,0.537-6.71,3.918-6.71,11.194
		c0,7.274,6.12,12.631,12.913,12.631c6.796,0,12.689-4.935,12.689-12.406C37.011,18.276,31.483,14.894,30.581,14.33z"/>
	<path fill="#008CCA" d="M28.291,31.836c0.45,0,0.933,0.028,1.27,0.256c0.337,0.225,0.536,0.731,0.646,1.012
		c0.113,0.283,0,0.451-0.224,0.565c-0.196,0.112-0.227,0.056-0.423-0.31c-0.197-0.366-0.366-0.734-1.353-0.734
		s-1.299,0.34-1.776,0.734c-0.479,0.394-0.649,0.535-0.819,0.31c-0.169-0.225-0.112-0.451,0.197-0.732
		c0.31-0.283,0.819-0.734,1.299-0.932S27.839,31.836,28.291,31.836L28.291,31.836z"/>
	<path fill="#008CCA" d="M23.563,34.858c0.562,0.451,1.409,0.816,3.212,0.816c1.806,0,3.074-0.505,3.638-0.93
		c0.254-0.197,0.367-0.028,0.396,0.085c0.027,0.113,0.083,0.282-0.113,0.479c-0.143,0.141-1.438,1.043-2.962,1.186
		c-1.522,0.139-3.581,0.225-4.82-0.904c-0.196-0.197-0.143-0.479,0-0.59c0.141-0.114,0.254-0.199,0.424-0.199
		C23.507,34.802,23.478,34.802,23.563,34.858L23.563,34.858z"/>
	<path fill="#008CCA" d="M16.813,29.056c0.029-2.2,2.086-4.257,4.681-4.285c3.298-0.029,5.582,3.268,7.245,3.243
		c1.409-0.027,4.117-2.793,5.443-2.793c1.409,0,1.803,1.465,1.803,2.342c0,0.873-0.28,2.452-0.959,3.438
		c-0.674,0.987-1.098,1.354-1.89,1.297c-1.016-0.086-3.045-3.242-4.341-3.3c-1.634-0.056-5.188,3.413-7.979,3.413
		c-1.692,0-2.199-0.253-2.762-0.621C17.209,31.199,16.786,30.297,16.813,29.056L16.813,29.056z"/>
	<path fill="none" d="M33.932,17.738c0.562,1.722,0.026,3.271-0.34,4.228c-0.366,0.959-2.256,5.133-12.462,9.7
		c-1.89,0.849-2.283,1.215-4.428,1.242c-1.803,0.028-2.732-0.592-3.325-1.129l-0.28,0.011c2.282,3.879,6.594,6.361,11.22,6.361
		c6.794,0,12.688-4.934,12.688-12.406c0-4.103-1.668-6.974-3.319-8.82C33.741,17.138,33.822,17.405,33.932,17.738z"/>
</g>
</svg>
