<?xml version="1.0" encoding="utf-8"?>
<!-- Generator: Adobe Illustrator 15.0.0, SVG Export Plug-In . SVG Version: 6.00 Build 0)  -->
<!DOCTYPE svg PUBLIC "-//W3C//DTD SVG 1.1//EN" "http://www.w3.org/Graphics/SVG/1.1/DTD/svg11.dtd">
<svg version="1.1" id="Layer_1" xmlns="http://www.w3.org/2000/svg" xmlns:xlink="http://www.w3.org/1999/xlink" x="0px" y="0px"
	 width="48px" height="48px" viewBox="0 0 48 48" enable-background="new 0 0 48 48" xml:space="preserve">
<rect fill="#F48B00" width="48" height="48"/>
<g>
	<path fill="#FFFFFF" d="M36.436,20.351c-1.527-5.29-6.402-9.16-12.186-9.16c-5.782,0-10.658,3.87-12.186,9.16
		c-0.323,1.12-0.5,2.301-0.5,3.524c0,0.785,0.075,1.554,0.213,2.3C12.859,32.083,18.03,36.56,24.25,36.56
		c6.221,0,11.391-4.477,12.475-10.385c0.137-0.746,0.211-1.515,0.211-2.3C36.936,22.651,36.758,21.471,36.436,20.351z
		 M32.172,26.586c-1.021-0.431-1.873-1.307-2.508-2.193c-0.729-1.019-1.475-2.02-2.291-2.969c-0.768-0.892-1.584-1.746-2.471-2.518
		c-0.885-0.771-1.848-1.504-2.908-2.014c-0.711-0.343-1.443-0.601-2.201-0.818c-0.086-0.024-0.317-0.129-0.386-0.023
		c-0.042,0.065-0.01,0.188-0.001,0.26c0.019,0.157,0.037,0.314,0.057,0.471c0.227,1.881,0.312,3.866-0.271,5.692
		c-0.313,0.984-0.885,1.884-1.646,2.581c-0.632,0.577-1.533,1.162-2.429,1.12c-0.165-0.007-0.331-0.035-0.495-0.09
		c-0.959-0.323-1.015-1.358-1.02-2.21c-0.008-0.915,0.104-1.829,0.33-2.716c0.068-0.273,0.154-0.541,0.245-0.809
		c1.048-3.038,3.472-5.512,6.517-6.59c1.141-0.404,2.348-0.608,3.557-0.608c3.561,0,6.947,1.831,8.904,4.804
		c0.49,0.746,0.883,1.553,1.172,2.395h-0.004c0.092,0.268,0.178,0.535,0.248,0.809c0.225,0.887,0.336,1.801,0.33,2.716
		C34.887,25.598,34.334,27.498,32.172,26.586"/>
	<g>
		<g>
			<path fill="#FFFFFF" d="M24.25,10.406c-7.438,0-13.469,6.03-13.469,13.469s6.03,13.469,13.469,13.469s13.469-6.03,13.469-13.469
				S31.688,10.406,24.25,10.406z M24.25,35.656c-6.507,0-11.781-5.274-11.781-11.781s5.274-11.781,11.781-11.781
				s11.781,5.274,11.781,11.781S30.757,35.656,24.25,35.656z"/>
		</g>
	</g>
</g>
</svg>
