<?xml version="1.0" encoding="utf-8"?>
<!-- Generator: Adobe Illustrator 15.0.0, SVG Export Plug-In . SVG Version: 6.00 Build 0)  -->
<!DOCTYPE svg PUBLIC "-//W3C//DTD SVG 1.1//EN" "http://www.w3.org/Graphics/SVG/1.1/DTD/svg11.dtd">
<svg version="1.1" id="Layer_1" xmlns="http://www.w3.org/2000/svg" xmlns:xlink="http://www.w3.org/1999/xlink" x="0px" y="0px"
	 width="48px" height="48px" viewBox="0 0 48 48" enable-background="new 0 0 48 48" xml:space="preserve">
<rect x="-2" y="-2" fill="#F57D00" width="51" height="51"/>
<path fill-rule="evenodd" clip-rule="evenodd" fill="#FFFFFF" d="M38.361,20.905l-0.242-0.502l-0.406-0.318
	c-0.531-0.416-3.217,0.027-3.941-0.631c-0.514-0.471-0.592-1.322-0.748-2.471c-0.287-2.235-0.471-2.35-0.818-3.104
	c-1.266-2.687-4.697-4.706-7.055-4.986h-6.388c-5.023,0-9.131,4.115-9.131,9.139v10.661c0,5.014,4.107,9.121,9.131,9.121h10.493
	c5.023,0,9.105-4.107,9.135-9.121l0.055-7.386L38.361,20.905z M18.88,16.362h5.063c0.966,0,1.75,0.783,1.75,1.742
	c0,0.953-0.784,1.748-1.75,1.748H18.88c-0.967,0-1.75-0.795-1.75-1.748C17.13,17.146,17.913,16.362,18.88,16.362z M29.168,30.299
	H18.88c-0.967,0-1.75-0.795-1.75-1.74c0-0.959,0.783-1.738,1.75-1.738h10.288c0.961,0,1.74,0.779,1.74,1.738
	C30.908,29.504,30.129,30.299,29.168,30.299z"/>
</svg>
