<?xml version="1.0" encoding="utf-8"?>
<!-- Generator: Adobe Illustrator 15.0.0, SVG Export Plug-In . SVG Version: 6.00 Build 0)  -->
<!DOCTYPE svg PUBLIC "-//W3C//DTD SVG 1.1//EN" "http://www.w3.org/Graphics/SVG/1.1/DTD/svg11.dtd">
<svg version="1.1" id="Layer_1" xmlns="http://www.w3.org/2000/svg" xmlns:xlink="http://www.w3.org/1999/xlink" x="0px" y="0px"
	 width="48px" height="48px" viewBox="0 0 48 48" enable-background="new 0 0 48 48" xml:space="preserve">
<rect x="-0.758" y="-1.25" fill="#E9711B" width="50.145" height="49.728"/>
<path fill="#FFFFFF" d="M11.265,34.417l4.433-21.067c0.434-2.044,1.694-2.988,3.62-2.988h14.042c1.612,0,2.479,0.628,2.479,1.729
	c0,0.63-0.355,2.044-0.987,2.675c-0.43,0.471-0.942,0.63-2.239,0.63H21.088l-1.354,6.207h8.614c1.495,0,2.281,0.628,2.281,1.611
	c0,0.591-0.273,1.889-0.864,2.516c-0.396,0.393-0.905,0.632-2.086,0.632H18.71l-1.389,6.719h11.486c1.614,0,2.438,0.63,2.438,1.691
	c0,0.669-0.313,2.045-0.942,2.715c-0.434,0.434-0.983,0.628-2.243,0.628H14.174C11.777,38.115,10.715,36.894,11.265,34.417z"/>
</svg>
