<?xml version="1.0" encoding="utf-8"?>
<!-- Generator: Adobe Illustrator 15.0.0, SVG Export Plug-In . SVG Version: 6.00 Build 0)  -->
<!DOCTYPE svg PUBLIC "-//W3C//DTD SVG 1.1//EN" "http://www.w3.org/Graphics/SVG/1.1/DTD/svg11.dtd">
<svg version="1.1" id="Layer_1" xmlns="http://www.w3.org/2000/svg" xmlns:xlink="http://www.w3.org/1999/xlink" x="0px" y="0px"
	 width="48px" height="48px" viewBox="0 0 48 48" enable-background="new 0 0 48 48" xml:space="preserve">
<rect fill="#161616" width="48" height="48"/>
<path fill="#FFFFFF" d="M24.241,8.863c-8.495,0-15.381,6.886-15.381,15.38c0,8.496,6.886,15.38,15.381,15.38
	c8.494,0,15.38-6.885,15.38-15.38C39.621,15.75,32.735,8.863,24.241,8.863 M24.241,37.099c-7.089,0-12.855-5.766-12.855-12.855
	c0-7.087,5.767-12.854,12.855-12.854c7.088,0,12.854,5.767,12.854,12.854C37.095,31.333,31.329,37.099,24.241,37.099"/>
<path fill="#FFFFFF" d="M33.766,21.239c-0.001-0.012-0.009-0.023-0.011-0.036c-0.005-0.023-0.011-0.046-0.018-0.068
	c-0.003-0.014-0.009-0.027-0.014-0.04c-0.007-0.02-0.014-0.04-0.021-0.06c-0.006-0.014-0.013-0.027-0.019-0.04
	c-0.009-0.019-0.018-0.037-0.028-0.055c-0.008-0.012-0.016-0.026-0.023-0.038c-0.011-0.018-0.022-0.034-0.034-0.05
	c-0.009-0.012-0.019-0.024-0.028-0.036c-0.014-0.015-0.027-0.03-0.04-0.044c-0.011-0.011-0.022-0.022-0.033-0.032
	c-0.016-0.014-0.031-0.026-0.047-0.039c-0.011-0.009-0.023-0.019-0.036-0.028c-0.005-0.003-0.01-0.007-0.014-0.009l-8.692-5.796
	c-0.274-0.183-0.633-0.183-0.907,0l-8.692,5.796c-0.005,0.002-0.009,0.006-0.014,0.009c-0.012,0.009-0.025,0.019-0.037,0.028
	c-0.017,0.012-0.032,0.025-0.047,0.039c-0.011,0.01-0.022,0.021-0.032,0.032c-0.015,0.014-0.028,0.029-0.041,0.044
	c-0.01,0.012-0.019,0.024-0.028,0.036c-0.012,0.016-0.023,0.032-0.035,0.05c-0.008,0.012-0.016,0.025-0.023,0.038
	c-0.01,0.018-0.019,0.036-0.028,0.055c-0.006,0.012-0.012,0.026-0.018,0.04c-0.008,0.02-0.015,0.04-0.021,0.06
	c-0.004,0.013-0.009,0.026-0.014,0.04c-0.005,0.022-0.009,0.045-0.013,0.068c-0.002,0.013-0.028,0.024-0.03,0.036
	c-0.004,0.036-0.03,0.071-0.03,0.106v5.796c0,0.036,0.026,0.071,0.03,0.106c0.002,0.011,0.017,0.023,0.019,0.035
	c0.004,0.023,0.014,0.047,0.02,0.067c0.003,0.015,0.011,0.027,0.016,0.04c0.006,0.021,0.015,0.041,0.023,0.061
	c0.005,0.015,0.011,0.026,0.018,0.039c0.009,0.019,0.019,0.038,0.028,0.055c0.008,0.013,0.016,0.025,0.024,0.037
	c0.011,0.017,0.023,0.034,0.035,0.051c0.009,0.013,0.019,0.022,0.028,0.035c0.012,0.015,0.026,0.029,0.041,0.044
	c0.01,0.011,0.021,0.021,0.032,0.031c0.015,0.015,0.03,0.027,0.047,0.04c0.012,0.008,0.024,0.019,0.037,0.027
	c0.004,0.004,0.008,0.008,0.014,0.01l8.692,5.795c0.138,0.092,0.295,0.138,0.454,0.138c0.158,0,0.315-0.046,0.453-0.138l8.692-5.795
	c0.004-0.002,0.009-0.006,0.014-0.01c0.013-0.009,0.025-0.02,0.036-0.027c0.016-0.013,0.031-0.025,0.047-0.04
	c0.011-0.011,0.022-0.021,0.033-0.031c0.013-0.015,0.026-0.029,0.04-0.044c0.01-0.013,0.02-0.022,0.028-0.035
	c0.012-0.017,0.023-0.034,0.034-0.051c0.008-0.012,0.016-0.024,0.023-0.037c0.011-0.017,0.019-0.036,0.028-0.055
	c0.006-0.013,0.013-0.024,0.018-0.039c0.009-0.02,0.015-0.04,0.021-0.061c0.005-0.013,0.01-0.025,0.013-0.04
	c0.007-0.021,0.011-0.044,0.015-0.067c0.002-0.012,0.016-0.024,0.017-0.035c0.006-0.035,0.019-0.07,0.019-0.106v-5.796
	C33.784,21.31,33.771,21.274,33.766,21.239 M25.182,17.078l6.348,4.269l-2.832,1.914l-3.516-2.37V17.078z M23.568,17.078v3.812
	l-3.609,2.37l-2.827-1.914L23.568,17.078z M16.311,22.875l2.044,1.368l-2.044,1.367V22.875z M23.568,31.409l-6.47-4.27l2.895-1.913
	l3.576,2.37V31.409z M24.254,26.177l-2.891-1.934l2.891-1.934l2.89,1.934L24.254,26.177z M25.182,31.409v-3.812l3.487-2.37
	l2.888,1.913L25.182,31.409z M32.171,25.61l-2.045-1.367l2.045-1.368V25.61z"/>
</svg>
