<?xml version="1.0" encoding="utf-8"?>
<!-- Generator: Adobe Illustrator 15.0.0, SVG Export Plug-In . SVG Version: 6.00 Build 0)  -->
<!DOCTYPE svg PUBLIC "-//W3C//DTD SVG 1.1//EN" "http://www.w3.org/Graphics/SVG/1.1/DTD/svg11.dtd">
<svg version="1.1" id="Layer_1" xmlns="http://www.w3.org/2000/svg" xmlns:xlink="http://www.w3.org/1999/xlink" x="0px" y="0px"
	 width="48px" height="48px" viewBox="0 0 48 48" enable-background="new 0 0 48 48" xml:space="preserve">
<rect x="-2.145" y="-1.728" fill="#DB3207" width="50.145" height="49.728"/>
<g>
	<g>
		<path fill="#FFFFFF" d="M38.562,13.568L24.77,5.601c-0.365-0.208-0.961-0.208-1.323,0L9.649,13.568
			c-0.364,0.208-0.663,0.726-0.663,1.146v15.93c0,0.419,0.299,0.938,0.663,1.146l3.118,1.8v-5.128v-7.226v-4.34
			c0-0.419,0.295-0.935,0.663-1.146l10.018-5.783c0.362-0.208,0.958-0.208,1.323,0l10.013,5.783
			c0.368,0.211,0.664,0.728,0.664,1.146v11.566c0,0.419-0.296,0.936-0.664,1.146L24.77,35.391c-0.365,0.209-0.961,0.209-1.323,0
			l-6.266-3.617v4.365l6.266,3.616c0.362,0.209,0.958,0.209,1.323,0l13.793-7.965c0.367-0.209,0.664-0.728,0.664-1.146v-15.93
			C39.227,14.294,38.93,13.776,38.562,13.568z"/>
	</g>
	<path fill="#FFFFFF" d="M24.106,30.395c-0.312,0-0.613-0.076-0.847-0.212l-5.23-3.018c-0.483-0.277-0.848-0.91-0.848-1.468v-6.04
		c0-0.567,0.357-1.186,0.85-1.469l5.229-3.019c0.234-0.137,0.536-0.211,0.847-0.211s0.613,0.075,0.849,0.211l5.229,3.02
		c0.491,0.282,0.848,0.899,0.848,1.468v6.04c0,0.558-0.363,1.19-0.848,1.468l-5.229,3.018C24.72,30.319,24.418,30.395,24.106,30.395
		L24.106,30.395z"/>
</g>
</svg>
