<?xml version="1.0" encoding="utf-8"?>
<!-- Generator: Adobe Illustrator 15.0.0, SVG Export Plug-In . SVG Version: 6.00 Build 0)  -->
<!DOCTYPE svg PUBLIC "-//W3C//DTD SVG 1.1//EN" "http://www.w3.org/Graphics/SVG/1.1/DTD/svg11.dtd">
<svg version="1.1" id="Layer_1" xmlns="http://www.w3.org/2000/svg" xmlns:xlink="http://www.w3.org/1999/xlink" x="0px" y="0px"
	 width="48px" height="48px" viewBox="0 0 48 48" enable-background="new 0 0 48 48" xml:space="preserve">
<rect x="-2" y="-2" fill="#007FB1" width="52" height="52"/>
<g>
	<path fill="#FFFFFF" d="M16.623,13.886c0,1.784-1.338,3.195-3.456,3.195c-2.08,0-3.379-1.411-3.379-3.195
		c0-1.82,1.337-3.157,3.417-3.157C15.285,10.729,16.586,12.065,16.623,13.886z M9.861,37.216V18.938h6.687v18.277H9.861z"/>
	<path fill="#FFFFFF" d="M19.223,25.142c0-2.413-0.074-4.531-0.149-6.203h5.758l0.297,2.34h0.148
		c0.67-0.966,2.416-2.748,5.463-2.748c4.271,0,6.574,2.897,6.574,7.912v10.773h-6.688V27.26c0-2.118-0.742-3.344-2.34-3.344
		c-1.301,0-1.895,0.892-2.191,1.598c-0.148,0.334-0.186,0.854-0.186,1.338v10.364h-6.688V25.142z"/>
</g>
</svg>
