<?xml version="1.0" encoding="utf-8"?>
<!-- Generator: Adobe Illustrator 15.0.0, SVG Export Plug-In . SVG Version: 6.00 Build 0)  -->
<!DOCTYPE svg PUBLIC "-//W3C//DTD SVG 1.1//EN" "http://www.w3.org/Graphics/SVG/1.1/DTD/svg11.dtd">
<svg version="1.1" id="Layer_1" xmlns="http://www.w3.org/2000/svg" xmlns:xlink="http://www.w3.org/1999/xlink" x="0px" y="0px"
	 width="48px" height="48px" viewBox="0 0 48 48" enable-background="new 0 0 48 48" xml:space="preserve">
<rect x="-1" y="-2" fill="#39A9E0" width="50" height="51"/>
<path fill="#FFFFFF" d="M39.071,14.582c-1.12,0.497-2.325,0.833-3.59,0.983c1.29-0.772,2.282-1.997,2.748-3.457
	c-1.208,0.716-2.544,1.237-3.968,1.517c-1.141-1.215-2.765-1.974-4.562-1.974c-3.451,0-6.249,2.799-6.249,6.25
	c0,0.489,0.055,0.966,0.161,1.423c-5.194-0.26-9.799-2.747-12.882-6.529c-0.537,0.923-0.846,1.997-0.846,3.142
	c0,2.17,1.104,4.081,2.78,5.203c-1.024-0.034-1.988-0.314-2.831-0.783c0,0.027,0,0.053,0,0.08c0,3.026,2.154,5.552,5.014,6.128
	c-0.524,0.143-1.077,0.217-1.647,0.217c-0.402,0-0.794-0.037-1.176-0.111c0.796,2.482,3.104,4.289,5.838,4.34
	c-2.139,1.678-4.833,2.676-7.762,2.676c-0.504,0-1.001-0.029-1.49-0.088c2.766,1.775,6.051,2.809,9.58,2.809
	c11.496,0,17.781-9.521,17.781-17.781c0-0.27-0.006-0.54-0.018-0.809C37.174,16.937,38.234,15.835,39.071,14.582z"/>
</svg>
