<?xml version="1.0" encoding="utf-8"?>
<!-- Generator: Adobe Illustrator 15.0.0, SVG Export Plug-In . SVG Version: 6.00 Build 0)  -->
<!DOCTYPE svg PUBLIC "-//W3C//DTD SVG 1.1//EN" "http://www.w3.org/Graphics/SVG/1.1/DTD/svg11.dtd">
<svg version="1.1" id="Layer_1" xmlns="http://www.w3.org/2000/svg" xmlns:xlink="http://www.w3.org/1999/xlink" x="0px" y="0px"
	 width="48px" height="48px" viewBox="0 0 48 48" enable-background="new 0 0 48 48" xml:space="preserve">
<g>
	<rect fill="#EFEFEF" width="48" height="48"/>
</g>
<g>
	<path fill="#CCCCCC" d="M11.955,25.976V12.853c0-2.174,0.554-2.856,2.544-2.856h19.827c1.886,0,2.551,0.811,2.551,2.856v12.713
		l1.532-1.058V11.449c0-1.717-1.29-3.104-2.879-3.104H13.127c-1.589,0-2.879,1.388-2.879,3.104v13.459L11.955,25.976"/>
	<path fill="#008ED3" d="M24.742,28.391c0-1.115,0.514-1.861,2.108-1.782c2.303,0.073,6.827,0.595,11.928-3.048
		c0.955-0.665,1.58,0.241,0.995,1.107c-1.139,1.396-3.306,3.129-6.626,4.493c3.521,11.968-8.575,13.869-8.39,7.732
		C24.758,37.068,24.742,28.391,24.742,28.391"/>
	<path fill="#F6921E" d="M23.899,28.391c0-1.115-0.514-1.861-2.109-1.782c-2.303,0.073-6.826,0.595-11.928-3.048
		c-0.955-0.665-1.58,0.241-0.995,1.107c1.139,1.396,3.305,3.129,6.625,4.493c-3.513,11.968,8.575,13.869,8.39,7.732
		C23.883,37.068,23.899,28.391,23.899,28.391"/>
	<path fill="#F6921E" d="M23.906,21.54c0,1.989-1.723,3.601-3.849,3.601s-3.851-1.612-3.851-3.601c0-1.99,1.725-3.602,3.851-3.602
		S23.906,19.549,23.906,21.54"/>
	<path fill="#008ED3" d="M25.167,21.54c0,1.989,1.724,3.601,3.851,3.601c2.124,0,3.85-1.612,3.85-3.601
		c0-1.99-1.726-3.602-3.85-3.602C26.891,17.938,25.167,19.549,25.167,21.54"/>
	<path fill="#F6921E" d="M29.65,27.548c-1.668,2.294-3.657,1.869-5.992-0.297c-2.422-2.263-0.811,3.369,0.177,3.595
		c1.451,0.336,2.029,0.656,3.994,0.207c1.853-0.433,2.759-1.749,3.145-2.688C31.616,26.803,30.509,26.36,29.65,27.548"/>
</g>
</svg>
