<?xml version="1.0" encoding="utf-8"?>
<!-- Generator: Adobe Illustrator 15.0.0, SVG Export Plug-In . SVG Version: 6.00 Build 0)  -->
<!DOCTYPE svg PUBLIC "-//W3C//DTD SVG 1.1//EN" "http://www.w3.org/Graphics/SVG/1.1/DTD/svg11.dtd">
<svg version="1.1" id="Layer_1" xmlns="http://www.w3.org/2000/svg" xmlns:xlink="http://www.w3.org/1999/xlink" x="0px" y="0px"
	 width="48px" height="48px" viewBox="0 0 48 48" enable-background="new 0 0 48 48" xml:space="preserve">
<rect fill="#EEEEEC" width="48" height="48"/>
<path id="Pandora" fill="#3C6599" d="M33.521,7.774c-1.864-1.61-4.462-2.416-7.745-2.416H12.834v1.057
	c4.117,0,4.656,0.705,4.656,5.836v16.352c0,5.133-0.54,5.886-4.656,5.886v1.058h13.235v-1.058c-4.118,0-4.657-0.753-4.657-5.886
	v-6.289h4.363c3.283,0,5.881-0.804,7.745-2.366c1.863-1.61,2.794-3.623,2.794-6.088C36.314,11.396,35.384,9.384,33.521,7.774z
	 M25.727,20.503h-4.314V7.221h4.314c4.068,0,6.225,2.766,6.225,6.64C31.951,17.735,29.795,20.503,25.727,20.503z"/>
<g>
	<path fill-rule="evenodd" clip-rule="evenodd" fill="#3C6599" d="M8.815,41.357v-0.437h0.507c0.916,0,1.423-0.479,1.423-1.094
		c0-0.631-0.507-1.103-1.423-1.103H7.481v0.179c0.596,0,0.703,0.143,0.703,1.031v1.423c0,0.889-0.107,1.04-0.703,1.04v0.178h2.036
		v-0.178C8.921,42.397,8.815,42.246,8.815,41.357z M10.051,39.827c0,0.419-0.231,0.766-0.729,0.766H8.815v-1.547h0.507
		C9.82,39.046,10.051,39.4,10.051,39.827z"/>
	<path fill-rule="evenodd" clip-rule="evenodd" fill="#3C6599" d="M13.753,40.975h-1.174l0.587-1.36L13.753,40.975z M12.436,41.304
		h1.459l0.178,0.409c0.223,0.524,0.16,0.676-0.48,0.676v0.187h1.992v-0.187c-0.472,0-0.578-0.106-0.871-0.773l-1.308-3.041h-0.125
		l-1.307,3.041c-0.292,0.667-0.373,0.773-0.916,0.773v0.187h1.681v-0.187c-0.703,0-0.703-0.151-0.48-0.676L12.436,41.304z"/>
	<path fill-rule="evenodd" clip-rule="evenodd" fill="#3C6599" d="M16.891,39.935v1.423c0,0.889-0.107,1.04-0.703,1.04v0.178h1.735
		v-0.178c-0.596,0-0.703-0.151-0.703-1.04v-1.743l2.587,3.103h0.17v-2.782c0-0.889,0.106-1.031,0.702-1.031v-0.179h-1.734v0.179
		c0.596,0,0.703,0.143,0.703,1.031v1.601l-2.365-2.811h-1.095v0.179C16.784,38.903,16.891,39.046,16.891,39.935z"/>
	<path fill-rule="evenodd" clip-rule="evenodd" fill="#3C6599" d="M21.491,42.575h1.885c1.512,0,2.17-0.872,2.17-1.93
		c0-1.049-0.658-1.921-2.17-1.921h-1.885v0.179c0.596,0,0.703,0.143,0.703,1.031v1.423c0,0.889-0.107,1.04-0.703,1.04V42.575z
		 M24.808,40.646c0,0.712-0.231,1.601-1.405,1.601h-0.071c-0.444,0-0.507-0.098-0.507-0.676v-2.524c0.151,0,0.525,0,0.578,0
		C24.576,39.046,24.808,39.944,24.808,40.646z"/>
	<path fill-rule="evenodd" clip-rule="evenodd" fill="#3C6599" d="M30.091,40.646c0,0.773-0.391,1.733-1.44,1.733
		c-1.049,0-1.44-0.96-1.44-1.733c0-0.765,0.392-1.733,1.44-1.733C29.7,38.912,30.091,39.881,30.091,40.646z M30.82,40.646
		c0-1.129-0.979-2.071-2.17-2.071s-2.17,0.942-2.17,2.071c0,1.147,0.979,2.081,2.17,2.081S30.82,41.793,30.82,40.646z"/>
	<path fill-rule="evenodd" clip-rule="evenodd" fill="#3C6599" d="M33.83,40.904c0.666-0.09,1.075-0.534,1.075-1.077
		c0-0.631-0.507-1.103-1.423-1.103h-1.84v0.179c0.596,0,0.701,0.143,0.701,1.031v1.423c0,0.889-0.105,1.04-0.701,1.04v0.178h2.036
		v-0.178c-0.597,0-0.703-0.151-0.703-1.04v-0.437h0.249l1.209,1.654h1.14v-0.178c-0.428-0.062-0.837-0.409-1.191-0.827L33.83,40.904
		z M34.212,39.827c0,0.419-0.23,0.766-0.729,0.766h-0.507v-1.547h0.507C33.981,39.046,34.212,39.4,34.212,39.827z"/>
	<path fill-rule="evenodd" clip-rule="evenodd" fill="#3C6599" d="M38.702,40.975h-1.175l0.587-1.36L38.702,40.975z M37.386,41.304
		h1.458l0.178,0.409c0.223,0.524,0.16,0.676-0.48,0.676v0.187h1.992v-0.187c-0.472,0-0.578-0.106-0.872-0.773l-1.307-3.041h-0.125
		l-1.307,3.041c-0.294,0.667-0.373,0.773-0.916,0.773v0.187h1.682v-0.187c-0.703,0-0.703-0.151-0.481-0.676L37.386,41.304z"/>
	<g>
		<path fill="#3C6599" d="M40.533,39.04c0,0.263-0.212,0.475-0.474,0.475c-0.263,0-0.476-0.212-0.476-0.475s0.213-0.476,0.476-0.476
			C40.321,38.564,40.533,38.777,40.533,39.04z M40.221,39.332l-0.188-0.251h-0.047v0.067c0,0.135,0.019,0.157,0.107,0.157v0.026
			h-0.303v-0.026c0.089,0,0.107-0.022,0.107-0.157v-0.217c0-0.134-0.019-0.157-0.107-0.157v-0.026h0.291
			c0.125,0,0.203,0.071,0.203,0.167c0,0.083-0.062,0.15-0.163,0.164l0.085,0.099c0.054,0.065,0.128,0.128,0.187,0.128
			c0.058-0.074,0.093-0.165,0.093-0.266c0-0.236-0.192-0.428-0.427-0.428c-0.237,0-0.429,0.191-0.429,0.428
			c0,0.234,0.191,0.428,0.429,0.428c0.12,0,0.233-0.053,0.312-0.136H40.221z M40.075,38.798h-0.089v0.234h0.089
			c0.077,0,0.112-0.054,0.112-0.117C40.188,38.851,40.152,38.798,40.075,38.798z"/>
	</g>
</g>
</svg>
