<?xml version="1.0" encoding="utf-8"?>
<!-- Generator: Adobe Illustrator 15.0.0, SVG Export Plug-In . SVG Version: 6.00 Build 0)  -->
<!DOCTYPE svg PUBLIC "-//W3C//DTD SVG 1.1//EN" "http://www.w3.org/Graphics/SVG/1.1/DTD/svg11.dtd">
<svg version="1.1" id="Layer_1" xmlns="http://www.w3.org/2000/svg" xmlns:xlink="http://www.w3.org/1999/xlink" x="0px" y="0px"
	 width="48px" height="48px" viewBox="0 0 48 48" enable-background="new 0 0 48 48" xml:space="preserve">
<rect x="-2" y="-2" fill-rule="evenodd" clip-rule="evenodd" fill="#F5F5F5" width="52" height="52"/>
<rect x="61" y="-6" fill="#F2F2F2" width="52" height="52"/>
<g>
	<g>
		<path fill-rule="evenodd" clip-rule="evenodd" fill="#F5B812" d="M34.49,30.365c-0.135,0-0.272,0.031-0.4,0.092
			c-0.146,0.058-0.294,0.125-0.432,0.184l-0.205,0.086l-0.268,0.105v0.004c-2.896,1.174-5.937,1.861-8.752,1.922
			c-0.103,0.004-0.206,0.004-0.309,0.004c-4.425,0.002-8.036-2.051-11.681-4.073c-0.128-0.067-0.256-0.103-0.384-0.103
			c-0.165,0-0.332,0.062-0.454,0.177c-0.123,0.114-0.195,0.282-0.194,0.452c0,0.221,0.119,0.424,0.284,0.555
			c3.419,2.969,7.168,5.729,12.208,5.73c0.099,0,0.198-0.002,0.3-0.004c3.205-0.072,6.834-1.156,9.646-2.924l0.017-0.012
			c0.369-0.219,0.737-0.47,1.085-0.748c0.217-0.16,0.365-0.41,0.363-0.671C35.307,30.679,34.914,30.365,34.49,30.365z"/>
		<path fill-rule="evenodd" clip-rule="evenodd" fill="#F5B812" d="M38.395,28.727L38.395,28.727
			c-0.011-0.283-0.071-0.497-0.188-0.676l-0.013-0.016l-0.014-0.018c-0.119-0.131-0.233-0.18-0.358-0.234
			c-0.368-0.143-0.906-0.218-1.554-0.22c-0.465,0-0.979,0.044-1.494,0.156l-0.001-0.034l-0.52,0.174l-0.009,0.004l-0.293,0.096
			v0.013c-0.344,0.142-0.657,0.32-0.948,0.53c-0.18,0.136-0.33,0.314-0.34,0.589c-0.004,0.149,0.072,0.321,0.199,0.423
			c0.125,0.102,0.271,0.135,0.398,0.135c0.031,0,0.06,0,0.085-0.005l0.025-0.002l0.02-0.003c0.254-0.055,0.624-0.09,1.056-0.151
			c0.371-0.04,0.766-0.071,1.106-0.071c0.242-0.001,0.459,0.016,0.607,0.049c0.074,0.015,0.13,0.034,0.162,0.05
			c0.01,0.005,0.018,0.009,0.021,0.012c0.007,0.021,0.017,0.073,0.016,0.149c0.003,0.285-0.119,0.814-0.284,1.332
			c-0.162,0.518-0.359,1.035-0.49,1.381c-0.031,0.08-0.051,0.166-0.051,0.262c-0.002,0.139,0.054,0.306,0.174,0.418
			c0.117,0.111,0.269,0.154,0.396,0.154h0.006c0.191-0.002,0.354-0.077,0.493-0.187c1.317-1.185,1.775-3.075,1.794-4.14
			L38.395,28.727z"/>
	</g>
	<path fill-rule="evenodd" clip-rule="evenodd" fill="#231F20" d="M26.35,16.03c-0.775,0.058-1.668,0.117-2.562,0.235
		c-1.37,0.181-2.739,0.417-3.87,0.954c-2.203,0.893-3.692,2.798-3.692,5.597c0,3.515,2.263,5.301,5.122,5.301
		c0.952,0,1.728-0.121,2.44-0.298c1.132-0.358,2.084-1.013,3.217-2.205c0.654,0.894,0.834,1.312,1.964,2.265
		c0.298,0.117,0.596,0.117,0.833-0.06c0.716-0.597,1.967-1.669,2.621-2.263c0.299-0.238,0.239-0.597,0.06-0.892
		c-0.654-0.835-1.311-1.55-1.311-3.159v-5.359c0-2.263,0.18-4.348-1.488-5.894c-1.369-1.25-3.513-1.727-5.181-1.727h-0.715
		c-3.036,0.176-6.252,1.487-6.967,5.24c-0.119,0.477,0.239,0.654,0.477,0.713l3.334,0.417c0.358-0.059,0.537-0.358,0.596-0.653
		c0.297-1.311,1.37-1.966,2.56-2.086h0.24c0.715,0,1.488,0.299,1.904,0.895c0.477,0.714,0.418,1.667,0.418,2.501V16.03z
		 M25.695,23.115c-0.418,0.832-1.133,1.368-1.908,1.55c-0.119,0-0.296,0.059-0.477,0.059c-1.309,0-2.083-1.014-2.083-2.502
		c0-1.906,1.131-2.799,2.56-3.216c0.775-0.178,1.667-0.239,2.562-0.239v0.716C26.35,20.852,26.408,21.923,25.695,23.115z"/>
</g>
</svg>
