<?xml version="1.0" encoding="utf-8"?>
<!-- Generator: Adobe Illustrator 15.0.0, SVG Export Plug-In . SVG Version: 6.00 Build 0)  -->
<!DOCTYPE svg PUBLIC "-//W3C//DTD SVG 1.1//EN" "http://www.w3.org/Graphics/SVG/1.1/DTD/svg11.dtd">
<svg version="1.1" id="Layer_1" xmlns="http://www.w3.org/2000/svg" xmlns:xlink="http://www.w3.org/1999/xlink" x="0px" y="0px"
	 width="48px" height="48px" viewBox="0 0 48 48" enable-background="new 0 0 48 48" xml:space="preserve">
<rect x="-1.548" y="-2.994" fill="#F5F5F5" width="52" height="52"/>
<g>
	<g>
		<path fill="#F5B812" d="M34.038,33.359c-0.135,0-0.272,0.031-0.4,0.092c-0.146,0.059-0.294,0.125-0.432,0.184l-0.205,0.086
			l-0.268,0.105v0.004c-2.896,1.174-5.938,1.861-8.752,1.922c-0.104,0.004-0.206,0.004-0.31,0.004
			c-4.425,0.002-8.036-2.051-11.681-4.072c-0.128-0.067-0.256-0.104-0.384-0.104c-0.165,0-0.332,0.062-0.454,0.178
			c-0.123,0.113-0.195,0.281-0.194,0.451c0,0.221,0.119,0.424,0.284,0.555c3.419,2.97,7.168,5.729,12.208,5.73
			c0.099,0,0.198-0.002,0.3-0.004c3.205-0.072,6.834-1.156,9.646-2.924l0.017-0.012c0.368-0.22,0.737-0.471,1.085-0.748
			c0.217-0.16,0.365-0.41,0.363-0.672C34.854,33.674,34.462,33.359,34.038,33.359z"/>
		<path fill="#F5B812" d="M37.942,31.721L37.942,31.721c-0.011-0.283-0.07-0.496-0.188-0.676l-0.014-0.016l-0.014-0.018
			c-0.119-0.132-0.232-0.181-0.357-0.234c-0.368-0.143-0.906-0.219-1.555-0.221c-0.465,0-0.979,0.045-1.494,0.156V30.68
			l-0.521,0.174l-0.009,0.004l-0.293,0.096v0.014c-0.344,0.142-0.657,0.319-0.948,0.529c-0.18,0.137-0.33,0.314-0.34,0.589
			c-0.004,0.149,0.071,0.321,0.198,0.423c0.125,0.103,0.271,0.135,0.398,0.135c0.031,0,0.061,0,0.086-0.004l0.024-0.002l0.021-0.004
			c0.254-0.055,0.623-0.09,1.055-0.15c0.371-0.04,0.767-0.071,1.106-0.071c0.242-0.001,0.46,0.017,0.607,0.049
			c0.073,0.015,0.13,0.034,0.161,0.05c0.011,0.006,0.019,0.01,0.021,0.012c0.008,0.021,0.018,0.074,0.016,0.149
			c0.004,0.285-0.119,0.814-0.283,1.332c-0.162,0.519-0.359,1.035-0.49,1.382c-0.031,0.08-0.051,0.166-0.051,0.262
			c-0.002,0.139,0.054,0.306,0.174,0.418c0.117,0.111,0.27,0.154,0.396,0.154h0.006c0.19-0.002,0.354-0.078,0.492-0.188
			c1.317-1.186,1.775-3.075,1.795-4.141L37.942,31.721z"/>
	</g>
	<path fill="#231F20" d="M25.897,19.023c-0.774,0.058-1.668,0.117-2.562,0.235c-1.37,0.181-2.739,0.417-3.87,0.954
		c-2.203,0.893-3.691,2.798-3.691,5.597c0,3.516,2.263,5.302,5.122,5.302c0.951,0,1.728-0.121,2.439-0.299
		c1.132-0.357,2.084-1.012,3.217-2.204c0.654,0.894,0.834,1.312,1.964,2.265c0.299,0.117,0.596,0.117,0.833-0.061
		c0.716-0.596,1.968-1.668,2.621-2.262c0.3-0.238,0.239-0.598,0.06-0.893c-0.653-0.835-1.311-1.551-1.311-3.16V19.14
		c0-2.263,0.18-4.348-1.488-5.894c-1.369-1.25-3.513-1.727-5.181-1.727h-0.715c-3.036,0.176-6.252,1.487-6.967,5.24
		c-0.119,0.477,0.239,0.654,0.477,0.713l3.334,0.417c0.358-0.059,0.537-0.358,0.597-0.653c0.297-1.311,1.37-1.966,2.56-2.086h0.24
		c0.715,0,1.487,0.299,1.903,0.895c0.478,0.714,0.418,1.667,0.418,2.501V19.023L25.897,19.023z M25.243,26.109
		c-0.418,0.831-1.133,1.367-1.908,1.55c-0.119,0-0.296,0.06-0.477,0.06c-1.31,0-2.083-1.015-2.083-2.503
		c0-1.906,1.131-2.799,2.56-3.216c0.775-0.178,1.667-0.239,2.562-0.239v0.716C25.897,23.846,25.956,24.916,25.243,26.109z"/>
</g>
</svg>
