<?xml version="1.0" encoding="utf-8"?>
<!-- Generator: Adobe Illustrator 15.0.0, SVG Export Plug-In . SVG Version: 6.00 Build 0)  -->
<!DOCTYPE svg PUBLIC "-//W3C//DTD SVG 1.1//EN" "http://www.w3.org/Graphics/SVG/1.1/DTD/svg11.dtd">
<svg version="1.1" id="Layer_1" xmlns="http://www.w3.org/2000/svg" xmlns:xlink="http://www.w3.org/1999/xlink" x="0px" y="0px"
	 width="48px" height="48px" viewBox="0 0 48 48" enable-background="new 0 0 48 48" xml:space="preserve">
<rect x="-2" y="-2" fill="#14589E" width="51" height="51"/>
<g>
	<path fill="#FFFFFF" d="M11.457,13.031v4.617H6.214V28.22h8.65V13.031H11.457z M11.457,25.378H9.68v-4.804h1.777V25.378z"/>
	<path fill="#FFFFFF" d="M21.966,17.691v10.569h5.246v1.652h-5.306v2.968h7.206h1.505V17.691H21.966z M27.212,25.338h-1.778v-4.806
		h1.778V25.338z"/>
	<path fill="#FFFFFF" d="M32.415,17.691v10.569h5.242v1.652h-5.304v2.968h7.208h1.504V17.691H32.415z M37.657,25.338h-1.773v-4.806
		h1.773V25.338z"/>
	<rect x="16.62" y="17.629" fill="#FFFFFF" width="3.529" height="10.632"/>
	<rect x="16.62" y="13.219" fill="#FFFFFF" width="3.529" height="2.884"/>
</g>
</svg>
