<?xml version="1.0" encoding="utf-8"?>
<!-- Generator: Adobe Illustrator 15.0.0, SVG Export Plug-In . SVG Version: 6.00 Build 0)  -->
<!DOCTYPE svg PUBLIC "-//W3C//DTD SVG 1.1//EN" "http://www.w3.org/Graphics/SVG/1.1/DTD/svg11.dtd">
<svg version="1.1" id="Layer_1" xmlns="http://www.w3.org/2000/svg" xmlns:xlink="http://www.w3.org/1999/xlink" x="0px" y="0px"
	 width="48px" height="48px" viewBox="0 0 48 48" enable-background="new 0 0 48 48" xml:space="preserve">
<rect x="-0.183" y="-0.618" width="48.478" height="48.478"/>
<g>
	<path fill="#FFFFFF" d="M5.099,30.141V16.746h6.821v2.324H7.582v3.269h4.335v2.315H7.582v5.486H5.099z"/>
	<path fill="#FFFFFF" d="M23.899,20.095v10.046H21.69v-1.246c-0.453,0.495-0.961,0.881-1.524,1.158
		c-0.562,0.276-1.221,0.415-1.975,0.415c-0.901,0-1.714-0.217-2.439-0.649c-0.724-0.433-1.315-1.062-1.771-1.887
		c-0.457-0.824-0.685-1.764-0.685-2.818c0-1.019,0.222-1.94,0.667-2.766c0.445-0.824,1.06-1.462,1.847-1.913
		c0.787-0.45,1.606-0.676,2.461-0.676c0.583,0,1.101,0.092,1.555,0.274c0.453,0.183,0.84,0.401,1.162,0.658
		c0.321,0.256,0.543,0.481,0.667,0.676h0.035v-1.272H23.899z M21.62,25.096c0-0.937-0.281-1.693-0.844-2.271
		s-1.265-0.866-2.107-0.866c-0.542,0-1.041,0.137-1.498,0.411c-0.457,0.273-0.816,0.668-1.078,1.184S15.7,24.606,15.7,25.166
		c0,0.878,0.29,1.613,0.87,2.205c0.581,0.592,1.286,0.888,2.116,0.888c0.878,0,1.586-0.307,2.125-0.919S21.62,25.979,21.62,25.096z"
		/>
	<path fill="#FFFFFF" d="M25.604,30.141V16.746h2.403v4.259c0.878-0.831,1.927-1.246,3.146-1.246c0.884,0,1.717,0.229,2.501,0.685
		c0.783,0.457,1.401,1.112,1.855,1.966c0.453,0.854,0.68,1.738,0.68,2.651c0,0.871-0.21,1.754-0.632,2.646
		c-0.421,0.892-1.013,1.575-1.775,2.05c-0.763,0.474-1.64,0.711-2.629,0.711c-0.719,0-1.336-0.122-1.851-0.367
		c-0.516-0.244-1.012-0.634-1.489-1.17v1.21H25.604z M27.866,24.98c0,1.031,0.306,1.835,0.915,2.412
		c0.609,0.578,1.315,0.866,2.116,0.866c0.812,0,1.497-0.292,2.054-0.875s0.835-1.343,0.835-2.279c0-0.925-0.284-1.681-0.853-2.267
		s-1.265-0.879-2.089-0.879c-0.536,0-1.04,0.139-1.512,0.415c-0.471,0.277-0.833,0.655-1.086,1.136
		C27.993,23.99,27.866,24.48,27.866,24.98z"/>
	<path fill="#FFFFFF" d="M43.014,27.527c0-0.667-0.54-1.207-1.207-1.207c-0.528,0-0.977,0.341-1.14,0.813
		c-0.164-0.47-0.611-0.808-1.138-0.808c-0.666,0-1.206,0.54-1.206,1.206c0,0.305,0.113,0.581,0.299,0.793l-0.004,0.003l2.021,2.169
		l1.994-2.093C42.867,28.185,43.014,27.873,43.014,27.527z"/>
</g>
</svg>
