<?xml version="1.0" encoding="utf-8"?>
<!-- Generator: Adobe Illustrator 15.0.0, SVG Export Plug-In . SVG Version: 6.00 Build 0)  -->
<!DOCTYPE svg PUBLIC "-//W3C//DTD SVG 1.1//EN" "http://www.w3.org/Graphics/SVG/1.1/DTD/svg11.dtd">
<svg version="1.1" id="Layer_1" xmlns="http://www.w3.org/2000/svg" xmlns:xlink="http://www.w3.org/1999/xlink" x="0px" y="0px"
	 width="48px" height="48px" viewBox="0 0 48 48" enable-background="new 0 0 48 48" xml:space="preserve">
<rect fill="#FF4F12" width="48" height="48"/>
<g>
	<polygon fill="#FFFFFF" points="15.929,10.384 17.286,10.384 17.286,11.869 18.769,11.869 18.769,7.433 17.286,7.433 17.286,8.898 
		15.929,8.898 15.929,7.433 14.446,7.433 14.446,11.869 15.929,11.869 	"/>
	<polygon fill="#FFFFFF" points="20.719,11.869 22.201,11.869 22.201,8.905 23.507,8.905 23.507,7.433 19.413,7.433 19.413,8.905 
		20.719,8.905 	"/>
	<polygon fill="#FFFFFF" points="25.607,9.671 26.628,11.248 26.652,11.248 27.674,9.671 27.674,11.869 29.15,11.869 29.15,7.433 
		27.604,7.433 26.652,8.994 25.702,7.433 24.157,7.433 24.157,11.869 25.607,11.869 	"/>
	<polygon fill="#FFFFFF" points="33.458,10.403 31.372,10.403 31.372,7.433 29.889,7.433 29.889,11.869 33.458,11.869 	"/>
	<path fill="#FFFFFF" d="M12.309,13.816l2.121,23.79l9.521,2.643l9.529-2.641l2.123-23.792H12.309z M31.003,21.596h-7.046h-4.119
		l0.266,2.987h3.854h6.78l-0.801,8.961l-5.98,1.656l-0.005,0.002l-5.978-1.658l-0.417-4.687h2.929l0.217,2.432l3.25,0.878
		l0.004-0.001l0,0l3.252-0.879l0.34-3.784h-3.592l0,0h-6.521L16.65,18.68h7.308h7.308L31.003,21.596z"/>
</g>
</svg>
