<?xml version="1.0" encoding="utf-8"?>
<!-- Generator: Adobe Illustrator 15.0.0, SVG Export Plug-In . SVG Version: 6.00 Build 0)  -->
<!DOCTYPE svg PUBLIC "-//W3C//DTD SVG 1.1//EN" "http://www.w3.org/Graphics/SVG/1.1/DTD/svg11.dtd">
<svg version="1.1" id="Layer_1" xmlns="http://www.w3.org/2000/svg" xmlns:xlink="http://www.w3.org/1999/xlink" x="0px" y="0px"
	 width="48px" height="48px" viewBox="0 0 48 48" enable-background="new 0 0 48 48" xml:space="preserve">
<rect x="-1.341" y="-1" fill="#303030" width="50.146" height="51.104"/>
<g>
	<path fill="#D9D9D9" d="M23.845,31.842c-7.121,0-12.913-5.793-12.913-12.914c0-7.12,5.792-12.912,12.913-12.912
		c7.12,0,12.911,5.792,12.911,12.912C36.756,26.049,30.965,31.842,23.845,31.842z M23.845,9.823c-5.021,0-9.106,4.084-9.106,9.105
		c0,5.021,4.084,9.105,9.106,9.105c5.02,0,9.104-4.084,9.104-9.105C32.949,13.908,28.865,9.823,23.845,9.823z"/>
	<polyline fill="#D9D9D9" points="23.665,41.088 37.188,35.713 35.682,31.482 23.735,36.266 12.162,31.291 10.276,35.521 
		23.609,41.088 	"/>
</g>
<path fill="#D9D9D9" d="M23.732,24.553"/>
</svg>
