<?xml version="1.0" encoding="utf-8"?>
<!-- Generator: Adobe Illustrator 15.0.0, SVG Export Plug-In . SVG Version: 6.00 Build 0)  -->
<!DOCTYPE svg PUBLIC "-//W3C//DTD SVG 1.1//EN" "http://www.w3.org/Graphics/SVG/1.1/DTD/svg11.dtd">
<svg version="1.1" id="Layer_1" xmlns="http://www.w3.org/2000/svg" xmlns:xlink="http://www.w3.org/1999/xlink" x="0px" y="0px"
	 width="48px" height="48px" viewBox="0 0 48 48" enable-background="new 0 0 48 48" xml:space="preserve">
<rect fill="#7AC143" width="48" height="48"/>
<path fill="#4F4F4F" d="M13.075,14.149c0,0,0,0,0.001,0h3.002c0.172,0,0.311-0.14,0.311-0.311c0-0.001-0.037-2.574-0.037-3.29V10.54
	c0-0.588,0.123-1.1,0.338-1.529l0.102-0.193c-0.011,0.002-0.022,0.007-0.034,0.019l-5.833,5.784
	c-0.012,0.009-0.019,0.022-0.022,0.034c0.121-0.059,0.286-0.141,0.309-0.151C11.721,14.274,12.337,14.149,13.075,14.149z
	 M36.435,13.519c-0.238-1.277-0.998-1.906-1.684-2.153c-0.741-0.268-2.241-0.544-4.128-0.767c-1.518-0.179-3.302-0.165-4.378-0.132
	c-0.13-0.885-0.751-1.694-1.445-1.975c-1.852-0.745-4.714-0.565-5.448-0.359c-0.584,0.164-1.23,0.498-1.589,1.013
	c-0.241,0.344-0.397,0.785-0.398,1.401c0,0.349,0.01,1.17,0.019,1.899c0.009,0.732,0.019,1.387,0.019,1.391
	c0,0.652-0.529,1.182-1.184,1.183h-3.002c-0.641,0-1.13,0.108-1.504,0.278c-0.374,0.17-0.639,0.399-0.84,0.67
	c-0.401,0.539-0.471,1.203-0.469,1.881c0,0,0.006,0.553,0.139,1.625c0.111,0.83,1.011,6.626,1.866,8.389
	c0.331,0.687,0.552,0.972,1.203,1.273c1.45,0.621,4.764,1.312,6.316,1.51c1.55,0.198,2.523,0.615,3.103-0.6
	c0.002-0.003,0.117-0.303,0.273-0.742c0.503-1.525,0.574-2.878,0.574-3.858c0-0.099,0.146-0.104,0.146,0
	c0,0.692-0.133,3.139,1.717,3.796c0.729,0.259,2.242,0.488,3.78,0.669c1.391,0.16,2.399,0.707,2.399,4.274
	c0,2.171-0.456,2.469-2.84,2.469c-1.932,0-2.668,0.05-2.668-1.485c0-1.24,1.228-1.11,2.137-1.11c0.406,0,0.111-0.302,0.111-1.067
	c0-0.761,0.477-1.201,0.026-1.212c-3.146-0.087-4.996-0.004-4.996,3.928c0,3.57,1.367,4.233,5.83,4.233
	c3.499,0,4.733-0.114,6.177-4.598c0.287-0.886,0.978-3.586,1.396-8.12C37.355,24.356,36.842,15.703,36.435,13.519z M30.335,23.084
	c-0.432-0.016-0.848,0.012-1.235,0.075c0.107-0.881,0.473-1.962,1.761-1.918c1.427,0.049,1.627,1.397,1.632,2.311
	C31.891,23.283,31.146,23.112,30.335,23.084z"/>
</svg>
