<?xml version="1.0" encoding="utf-8"?>
<!-- Generator: Adobe Illustrator 15.0.0, SVG Export Plug-In . SVG Version: 6.00 Build 0)  -->
<!DOCTYPE svg PUBLIC "-//W3C//DTD SVG 1.1//EN" "http://www.w3.org/Graphics/SVG/1.1/DTD/svg11.dtd">
<svg version="1.1" id="Layer_1" xmlns="http://www.w3.org/2000/svg" xmlns:xlink="http://www.w3.org/1999/xlink" x="0px" y="0px"
	 width="48px" height="48px" viewBox="0 0 48 48" enable-background="new 0 0 48 48" xml:space="preserve">
<rect fill="#1960AC" width="48" height="48"/>
<g>
	<path fill-rule="evenodd" clip-rule="evenodd" fill="#45BEDF" d="M36.996,32.188c1.039-3.475-0.565-7.026-3.583-7.932
		c-3.018-0.903-6.306,1.18-7.344,4.655c-1.038,3.477,0.567,7.027,3.585,7.934C32.672,37.749,35.96,35.663,36.996,32.188z"/>
	<path fill-rule="evenodd" clip-rule="evenodd" fill="#AFE1F4" d="M37.953,32.492c1-3.345-0.544-6.761-3.447-7.632
		c-2.903-0.87-6.067,1.136-7.065,4.478c-0.999,3.346,0.546,6.762,3.449,7.633C33.793,37.843,36.956,35.835,37.953,32.492z"/>
	<path id="Squidoo_2_" fill-rule="evenodd" clip-rule="evenodd" fill="#EF9218" d="M29.875,38.179
		c-3.006-0.337-5.225-2.864-5.757-5.767c-0.335-1.822,0.048-3.156-1.153-3.605c-2.096-0.786-4.836,0.613-7.482,0.289
		c-2.428-0.3-4.239-2.138-4.317-5.192c-0.072-2.803,1.977-6.639-0.864-7.93c1.208,0.253,2.206,0.518,2.735,1.585
		c1.132,2.282-0.654,6.699,1.295,7.931c0.959,0.605,2.694,0.297,3.884,0.145c1.361-0.176,2.309-0.604,3.598-0.578
		c-0.749-1.021-1.917-1.262-2.733-1.874c-0.98-0.733-2.375-2.053-3.022-3.316c-1.135-2.21-0.938-6.194-2.591-7.643
		c-1.255-1.1-3.345-1.125-5.468-0.721c1.472-1.242,5.216-1.453,6.62-0.433c1.885,1.372,1.479,5.212,3.166,7.209
		c0.761,0.901,1.89,1.249,2.734,1.586c0.963,0.385,2.005,0.757,3.453,0.866c1.097-4.768-2.598-5.419-4.891-7.499
		c-1.713-1.552-2.853-3.38-2.591-7.209c0.365,1.999,0.751,3.637,2.159,4.758c0.947,0.754,2.269,0.994,3.31,1.586
		c2.507,1.428,4.789,3.743,5.468,7.209c0.545-0.308,0.926-1.045,1.44-1.73c0.496-0.663,1.127-1.235,1.151-2.163
		c0.032-1.33-0.907-2.381-1.729-3.029c-2.001-1.579-5.686-1.178-4.893-5.479c0.357,1.071,0.436,2.265,1.296,2.884
		c1.229,0.885,3.172,0.884,4.604,1.73c1.262,0.743,3.176,2.406,3.165,4.614c-0.008,2.494-2.495,3.483-1.438,6.345
		c2.481,0.677,3.729,0.736,5.037,1.875C41.182,29.076,37.428,39.029,29.875,38.179z M36.775,32.225
		c0.98-3.283-0.535-6.639-3.387-7.494c-2.852-0.854-5.959,1.115-6.938,4.398c-0.981,3.284,0.536,6.64,3.388,7.496
		C32.689,37.48,35.795,35.51,36.775,32.225z"/>
	
		<ellipse transform="matrix(0.9579 0.2871 -0.2871 0.9579 10.3127 -8.388)" fill-rule="evenodd" clip-rule="evenodd" fill="#0B1725" cx="33.758" cy="30.971" rx="2.299" ry="2.648"/>
	
		<ellipse transform="matrix(0.958 0.2867 -0.2867 0.958 9.608 -8.2019)" fill-rule="evenodd" clip-rule="evenodd" fill="#FCFEFF" cx="32.813" cy="28.71" rx="1.071" ry="1.234"/>
</g>
</svg>
