<?xml version="1.0" encoding="utf-8"?>
<!-- Generator: Adobe Illustrator 15.0.0, SVG Export Plug-In . SVG Version: 6.00 Build 0)  -->
<!DOCTYPE svg PUBLIC "-//W3C//DTD SVG 1.1//EN" "http://www.w3.org/Graphics/SVG/1.1/DTD/svg11.dtd">
<svg version="1.1" id="Layer_1" xmlns="http://www.w3.org/2000/svg" xmlns:xlink="http://www.w3.org/1999/xlink" x="0px" y="0px"
	 width="48px" height="48px" viewBox="0 0 48 48" enable-background="new 0 0 48 48" xml:space="preserve">
<rect y="-0.458" fill="#303030" width="49.167" height="49.167"/>
<g>
	<g>
		<defs>
			<circle id="SVGID_1_" cx="24.375" cy="23.292" r="17.75"/>
		</defs>
		<clipPath id="SVGID_2_">
			<use xlink:href="#SVGID_1_"  overflow="visible"/>
		</clipPath>
		<g clip-path="url(#SVGID_2_)">
			<g>
				<path fill="#FFFFFF" d="M23.957,5.923c-9.989,0-18.086,8.098-18.086,18.086c0,8.043,5.252,14.851,12.51,17.201
					c0.429-0.312,1.012-0.685,1.012-1.368c0-0.939-0.021-3.35-0.021-3.35s-0.736,0.13-1.785,0.13c-2.643,0-3.478-1.689-3.877-2.634
					c-0.519-1.23-1.19-1.809-1.904-2.271c-0.438-0.284-0.539-0.617-0.034-0.711c2.341-0.44,2.94,2.653,4.503,3.146
					c1.117,0.352,2.549,0.198,3.264-0.261c0.093-0.947,0.775-1.763,1.343-2.193c-3.975-0.382-6.332-1.766-7.555-3.983l-0.131-0.247
					c-0.114-0.229-0.215-0.463-0.306-0.706l-0.093-0.251c-0.382-1.126-0.553-2.416-0.553-3.86c0-2.56,0.797-3.523,1.868-4.888
					c-0.819-2.917,0.296-4.911,0.296-4.911s1.721-0.357,4.975,1.972c1.761-0.755,6.463-0.817,8.685-0.166
					c1.364-0.903,3.864-2.185,4.872-1.826c0.272,0.438,0.859,1.719,0.355,4.531c0.342,0.616,2.117,1.933,2.125,5.648
					c-0.027,1.37-0.173,2.524-0.437,3.505l-0.071,0.255c-0.075,0.245-0.157,0.478-0.249,0.706l-0.109,0.247
					c-1.179,2.592-3.599,3.557-7.506,3.962c1.265,0.794,1.629,1.797,1.629,4.504c0,2.709-0.036,3.071-0.027,3.693
					c0.001,0.064,0.007,0.124,0.02,0.183c0.095,0.499,0.538,0.856,0.909,1.132c7.235-2.365,12.464-9.161,12.464-17.188
					C42.042,14.021,33.946,5.923,23.957,5.923z"/>
			</g>
		</g>
	</g>
	<g>
		<defs>
			<circle id="SVGID_3_" cx="24.375" cy="23.292" r="17.75"/>
		</defs>
		<clipPath id="SVGID_4_">
			<use xlink:href="#SVGID_3_"  overflow="visible"/>
		</clipPath>
		<g clip-path="url(#SVGID_4_)">
			<ellipse fill="#FFFFFF" cx="12.54" cy="31.324" rx="0.282" ry="0.19"/>
			<ellipse fill="#FFFFFF" cx="13.42" cy="31.805" rx="0.282" ry="0.189"/>
			<ellipse fill="#FFFFFF" cx="13.958" cy="32.444" rx="0.283" ry="0.189"/>
			<ellipse fill="#FFFFFF" cx="14.432" cy="33.169" rx="0.282" ry="0.189"/>
			<ellipse fill="#FFFFFF" cx="14.97" cy="33.85" rx="0.284" ry="0.189"/>
			<ellipse fill="#FFFFFF" cx="15.698" cy="34.431" rx="0.284" ry="0.19"/>
			<ellipse fill="#FFFFFF" cx="16.715" cy="34.809" rx="0.283" ry="0.188"/>
			<ellipse fill="#FFFFFF" cx="17.737" cy="34.809" rx="0.282" ry="0.188"/>
			<ellipse fill="#FFFFFF" cx="18.761" cy="34.647" rx="0.283" ry="0.191"/>
		</g>
	</g>
</g>
</svg>
