<?xml version="1.0" encoding="utf-8"?>
<!-- Generator: Adobe Illustrator 15.0.0, SVG Export Plug-In . SVG Version: 6.00 Build 0)  -->
<!DOCTYPE svg PUBLIC "-//W3C//DTD SVG 1.1//EN" "http://www.w3.org/Graphics/SVG/1.1/DTD/svg11.dtd">
<svg version="1.1" id="Layer_1" xmlns="http://www.w3.org/2000/svg" xmlns:xlink="http://www.w3.org/1999/xlink" x="0px" y="0px"
	 width="48px" height="48px" viewBox="0 0 48 48" enable-background="new 0 0 48 48" xml:space="preserve">
<rect x="-2.1" y="-1.605" fill="#015294" width="52.001" height="51"/>
<g>
	<polygon fill="#FFFFFF" points="18.155,4.506 7.241,32.944 10.688,34.667 21.891,33.806 17.581,43.284 26.054,43.284 
		28.785,34.667 35.678,33.806 36.54,34.667 39.125,26.05 40.849,15.709 33.093,7.953 25.338,4.506 	"/>
	<g>
		<defs>
			<rect id="SVGID_1_" x="4.799" y="3.645" width="38.204" height="40.501"/>
		</defs>
		<clipPath id="SVGID_2_">
			<use xlink:href="#SVGID_1_"  overflow="visible"/>
		</clipPath>
		<g clip-path="url(#SVGID_2_)">
			<path fill="#015294" d="M24.414,1.995c0.666-0.004,1.328-0.154,1.988-0.014c2.924,0.259,5.806,1.062,8.405,2.431
				c3.363,1.723,6.258,4.342,8.356,7.481c2.144,3.193,3.41,6.953,3.696,10.784c-0.047,1.014-0.076,2.035,0.022,3.047
				c-0.21,2.912-0.939,5.803-2.238,8.424c-1.484,3.049-3.677,5.746-6.351,7.83c-3.331,2.611-7.418,4.244-11.636,4.633
				c-0.642,0.047-1.283,0.162-1.929,0.115c-0.428-0.029-0.866,0.107-1.277-0.066c1.574-4.432,3.148-8.863,4.737-13.289
				c1.729-0.031,3.46,0.01,5.188-0.021c1.104-0.037,2.195-0.709,2.557-1.781c1.464-4.119,2.963-8.224,4.377-12.359
				c0.233-0.625,0.363-1.321,0.178-1.975c-0.25-0.828-1.009-1.415-1.823-1.634c-0.707-0.22-1.455-0.139-2.183-0.152
				c-2.219-0.006-4.439,0.012-6.658-0.01c-0.034,0.074-0.108,0.22-0.144,0.293c-3.594,10.092-7.181,20.19-10.788,30.28
				c-3.706-0.961-7.159-2.887-9.913-5.549c-3.316-3.174-5.619-7.395-6.472-11.904C2.242,27.2,2.145,25.821,2.07,24.447
				c0.061-2.865,0.53-5.743,1.609-8.406C6.312,9.312,12.402,4.012,19.481,2.498c-3.623,10.049-7.164,20.129-10.786,30.179
				c0.23,0.072,0.473,0.045,0.711,0.047c1.32-0.008,2.642,0.004,3.963-0.002c0.18-0.002,0.16-0.252,0.235-0.367
				c1.593-4.492,3.202-8.979,4.799-13.469c0.096-0.278,0.185-0.559,0.312-0.824c0.828,0.015,1.655-0.003,2.483,0.009
				c-1.735,4.867-3.457,9.743-5.218,14.601c0.184,0.074,0.385,0.049,0.577,0.055c1.387-0.014,2.773,0.008,4.16-0.012
				c1.567-4.422,3.154-8.837,4.725-13.256c0.336-0.905,0.365-1.974-0.169-2.808c-0.466-0.738-1.352-1.09-2.195-1.125
				c-1.153-0.035-2.31,0.002-3.466-0.018C21.202,10.999,22.838,6.508,24.414,1.995z"/>
			<path fill="#015294" d="M33.614,18.119c0.14-0.156,0.384-0.061,0.568-0.088c0.642,0.012,1.281-0.005,1.924,0.009
				c-1.494,4.262-3.058,8.498-4.525,12.77c-0.829,0.059-1.666,0.023-2.498,0.018C30.598,26.593,32.101,22.354,33.614,18.119z"/>
		</g>
	</g>
</g>
</svg>
