<?xml version="1.0" encoding="utf-8"?>
<!-- Generator: Adobe Illustrator 15.0.0, SVG Export Plug-In . SVG Version: 6.00 Build 0)  -->
<!DOCTYPE svg PUBLIC "-//W3C//DTD SVG 1.1//EN" "http://www.w3.org/Graphics/SVG/1.1/DTD/svg11.dtd">
<svg version="1.1" id="Layer_1" xmlns="http://www.w3.org/2000/svg" xmlns:xlink="http://www.w3.org/1999/xlink" x="0px" y="0px"
	 width="48px" height="48px" viewBox="0 0 48 48" enable-background="new 0 0 48 48" xml:space="preserve">
<rect x="-2" y="-1" fill="#015294" width="52" height="51"/>
<polygon fill="#FFFFFF" points="17.667,0 5,34 9,36 22,35 17,48 26.833,48 30,36 38,35 39,36 42,26 44,14 35,5 26,-2 "/>
<g>
	<path fill="#015294" d="M24.929-1.915c0.772-0.004,1.541-0.179,2.308-0.016c3.393,0.301,6.736,1.233,9.754,2.821
		c3.904,2,7.262,5.039,9.697,8.682c2.486,3.705,3.957,8.068,4.289,12.514c-0.055,1.177-0.089,2.361,0.025,3.535
		c-0.243,3.38-1.09,6.732-2.598,9.775c-1.721,3.538-4.268,6.668-7.369,9.086c-3.865,3.031-8.607,4.927-13.502,5.376
		c-0.745,0.053-1.489,0.19-2.238,0.134c-0.497-0.033-1.006,0.125-1.482-0.078c1.827-5.141,3.653-10.283,5.497-15.42
		c2.007-0.037,4.015,0.014,6.021-0.023c1.281-0.045,2.547-0.824,2.967-2.068c1.697-4.778,3.438-9.543,5.08-14.341
		c0.271-0.725,0.42-1.533,0.205-2.292c-0.291-0.961-1.17-1.642-2.116-1.896c-0.821-0.255-1.688-0.162-2.532-0.177
		c-2.576-0.007-5.152,0.014-7.727-0.012c-0.041,0.086-0.125,0.256-0.167,0.341c-4.17,11.713-8.333,23.43-12.52,35.138
		c-4.301-1.116-8.308-3.351-11.503-6.439c-3.849-3.683-6.521-8.58-7.51-13.815c-0.309-1.572-0.422-3.174-0.508-4.77
		c0.07-3.324,0.615-6.663,1.867-9.754C3.922,6.576,10.989,0.427,19.205-1.331C15,10.331,10.891,22.028,6.688,33.691
		c0.268,0.082,0.549,0.051,0.825,0.053c1.532-0.008,3.065,0.004,4.599-0.002c0.209-0.002,0.187-0.293,0.273-0.426
		c1.848-5.214,3.716-10.42,5.568-15.63c0.111-0.323,0.215-0.649,0.363-0.956c0.96,0.016,1.92-0.004,2.881,0.01
		c-2.014,5.648-4.011,11.305-6.055,16.941c0.214,0.086,0.447,0.06,0.67,0.064c1.609-0.016,3.219,0.01,4.828-0.012
		c1.818-5.133,3.66-10.255,5.482-15.385c0.39-1.049,0.424-2.29-0.195-3.257c-0.541-0.856-1.568-1.266-2.548-1.306
		c-1.339-0.04-2.681,0.003-4.022-0.021C21.201,8.535,23.1,3.323,24.929-1.915z"/>
	<path fill="#015294" d="M35.605,16.797c0.16-0.181,0.445-0.071,0.658-0.103c0.744,0.014,1.488-0.006,2.232,0.011
		c-1.732,4.945-3.547,9.862-5.25,14.818c-0.964,0.068-1.935,0.026-2.899,0.021C32.105,26.631,33.848,21.711,35.605,16.797z"/>
</g>
</svg>
