<?xml version="1.0" encoding="utf-8"?>
<!-- Generator: Adobe Illustrator 15.0.0, SVG Export Plug-In . SVG Version: 6.00 Build 0)  -->
<!DOCTYPE svg PUBLIC "-//W3C//DTD SVG 1.1//EN" "http://www.w3.org/Graphics/SVG/1.1/DTD/svg11.dtd">
<svg version="1.1" id="Layer_1" xmlns="http://www.w3.org/2000/svg" xmlns:xlink="http://www.w3.org/1999/xlink" x="0px" y="0px"
	 width="48px" height="48px" viewBox="0 0 48 48" enable-background="new 0 0 48 48" xml:space="preserve">
<rect x="-0.478" y="-0.372" fill="#707070" width="48.478" height="48.478"/>
<g>
	<g>
		<path fill="#FFFFFF" d="M18.446,10.405c3.973,0,7.371,2.591,9.962,9.617c3.456-8.811,2.42-9.617,4.492-9.617h2.477
			c0.69,0,1.324,0.115,1.324,0.806c0,0.461-2.648,9.099-5.297,14.914c-0.231,0.461-0.462,0.923-0.462,1.44
			c0,0.519,1.612,5.527,4.031,5.527c1.842,0,0.691-1.67,2.994-1.67h1.44c0.69,0,1.324,0.116,1.324,1.036
			c0,2.131-1.9,5.759-5.759,5.759c-2.821,0-5.241-1.841-7.025-5.93h-0.057c-2.477,3.569-5.645,5.93-9.445,5.93
			c-4.031,0-10.135-2.936-10.135-13.993C8.312,15.185,12.918,10.405,18.446,10.405z M15.049,31.942
			c0.921,0.749,2.073,1.15,3.283,1.15c3.8,0,6.335-4.779,7.486-6.968c-1.497-5.009-2.994-10.595-7.429-10.595
			c-1.382,0-3.685,0.575-4.836,3.225c-0.749,1.727-0.922,3.685-0.922,5.585C12.63,27.048,12.976,30.271,15.049,31.942z"/>
	</g>
	<g>
		<path fill="#FFFFFF" d="M18.446,9.995c3.973,0,7.371,2.591,9.962,9.616c3.456-8.811,2.42-9.616,4.492-9.616h2.477
			c0.69,0,1.324,0.115,1.324,0.806c0,0.461-2.648,9.099-5.297,14.914c-0.231,0.461-0.462,0.923-0.462,1.44
			c0,0.519,1.612,5.528,4.031,5.528c1.842,0,0.691-1.671,2.994-1.671h1.44c0.69,0,1.324,0.116,1.324,1.036
			c0,2.131-1.9,5.759-5.759,5.759c-2.821,0-5.241-1.843-7.025-5.931h-0.057c-2.477,3.57-5.645,5.931-9.445,5.931
			c-4.031,0-10.135-2.936-10.135-13.993C8.312,14.775,12.918,9.995,18.446,9.995z M15.049,31.532
			c0.921,0.747,2.073,1.151,3.283,1.151c3.8,0,6.335-4.78,7.486-6.969c-1.497-5.009-2.994-10.595-7.429-10.595
			c-1.382,0-3.685,0.575-4.836,3.225c-0.749,1.727-0.922,3.685-0.922,5.585C12.63,26.638,12.976,29.86,15.049,31.532z"/>
	</g>
	<g>
		<path fill="#FFFFFF" d="M30.942,27.565c0,0.519,1.604,5.264,4.022,5.193c1.947-0.058,0.713-1.63,3.017-1.63h1.438
			c0.692,0,1.175,0.113,1.175,1.128c0,0-0.103-0.895-1.129-0.917c-0.439-0.01-0.87-0.02-1.498-0.025
			c-1.784-0.015-1.442,1.695-2.946,1.695c-0.801,0-1.625-0.538-2.446-1.533C31.362,30.004,30.942,27.565,30.942,27.565z"/>
	</g>
	<g>
		<path fill="#FFFFFF" d="M31.41,11.154c0.347-0.909,0.648-1.062,1.539-1.062h2.412c0.672,0,1.288,0.112,1.288,0.785
			c0,0-0.536-0.602-1.29-0.602c-1.017,0-2.385,0.023-2.885,0.111C31.585,10.542,31.41,11.154,31.41,11.154z"/>
	</g>
	<g>
		<path fill="#FFFFFF" d="M11.618,13.574c1.869-2.417,4.031-3.397,6.907-3.397c1.915,0,3.797,0.491,5.358,2.212
			c0,0-3.485-2.536-7.295-1.653C12.71,11.633,11.618,13.574,11.618,13.574z"/>
	</g>
	<g>
		<path fill="#FFFFFF" d="M25.867,25.953c-0.202,0.46-3.247,7.058-7.091,7.148c-1.619,0.037-2.681,0-4.241-1.723
			c0,0,2.716,2.47,5.928,0.957C23.222,31.037,25.867,25.953,25.867,25.953z"/>
	</g>
</g>
</svg>
