<?xml version="1.0" encoding="utf-8"?>
<!-- Generator: Adobe Illustrator 15.0.0, SVG Export Plug-In . SVG Version: 6.00 Build 0)  -->
<!DOCTYPE svg PUBLIC "-//W3C//DTD SVG 1.1//EN" "http://www.w3.org/Graphics/SVG/1.1/DTD/svg11.dtd">
<svg version="1.1" id="Layer_1" xmlns="http://www.w3.org/2000/svg" xmlns:xlink="http://www.w3.org/1999/xlink" x="0px" y="0px"
	 width="48px" height="48px" viewBox="0 0 48 48" enable-background="new 0 0 48 48" xml:space="preserve">
<rect x="-0.478" y="-0.372" fill="#3BB001" width="48.478" height="48.478"/>
<g>
	<g>
		<path fill="#FFFFFF" d="M39.945,0H15.786c-4.327,3.445-7.061,8.312-7.061,13.741c0,5.006,2.308,9.539,6.055,12.92l-1.146,11.45
			l10.615-6.366c2.133,0.572,4.402,0.893,6.764,0.893c6.823,0,12.899-2.619,16.986-6.711V8.059C48,3.615,44.388,0,39.945,0z
			 M31.014,24.717c-7.79,0-14.372-5.023-14.372-10.976c0-5.948,6.582-10.977,14.372-10.977s14.371,5.028,14.371,10.977
			C45.385,19.694,38.804,24.717,31.014,24.717z"/>
	</g>
</g>
</svg>
