<?xml version="1.0" encoding="utf-8"?>
<!-- Generator: Adobe Illustrator 15.0.0, SVG Export Plug-In . SVG Version: 6.00 Build 0)  -->
<!DOCTYPE svg PUBLIC "-//W3C//DTD SVG 1.1//EN" "http://www.w3.org/Graphics/SVG/1.1/DTD/svg11.dtd">
<svg version="1.1" id="Layer_1" xmlns="http://www.w3.org/2000/svg" xmlns:xlink="http://www.w3.org/1999/xlink" x="0px" y="0px"
	 width="48px" height="48px" viewBox="0 0 48 48" enable-background="new 0 0 48 48" xml:space="preserve">
<rect x="-0.703" y="-2.059" width="50.146" height="51.103"/>
<path fill="#D9D9D9" d="M24.37,23.493"/>
<path id="Steam_2_" fill-rule="evenodd" clip-rule="evenodd" fill="#FFFFFF" d="M41.121,18.148c0,1.873-1.655,3.393-3.697,3.393
	c-2.043,0-3.696-1.52-3.696-3.393c0-1.874,1.653-3.392,3.696-3.392C39.466,14.756,41.121,16.275,41.121,18.148z M39.632,23.88
	l-4.477,3.513c0.048,0.281,0.081,0.566,0.081,0.857c0,2.992-2.643,5.416-5.901,5.416c-2.811,0-5.158-1.803-5.753-4.219
	l-11.064-3.445c-0.875,0.609-1.961,0.976-3.144,0.976c-2.877,0-5.208-2.14-5.208-4.779c0-2.639,2.332-4.778,5.208-4.778
	c2.472,0,4.538,1.582,5.071,3.702l10.688,3.328c1.04-0.969,2.478-1.575,4.068-1.608l1.601-4.465
	c-0.004-0.089-0.015-0.176-0.015-0.266c0-3.375,2.982-6.111,6.66-6.111c3.68,0,6.661,2.736,6.661,6.111
	C44.109,20.784,42.236,23.05,39.632,23.88z M12.648,20.562c-0.622-1.027-1.816-1.724-3.188-1.724c-2.015,0-3.647,1.498-3.647,3.346
	c0,1.847,1.632,3.345,3.647,3.345c0.371,0,0.73-0.052,1.069-0.147l-1.733-0.539c-1.396-0.686-1.922-2.281-1.174-3.562
	c0.748-1.28,2.486-1.762,3.881-1.077L12.648,20.562z M32.255,18.125c0,2.621,2.315,4.746,5.172,4.746
	c2.857,0,5.175-2.125,5.175-4.746c0-2.623-2.317-4.748-5.175-4.748C34.57,13.377,32.255,15.502,32.255,18.125z M32.355,28.715
	c0-1.996-1.762-3.613-3.938-3.613c-0.305,0-0.6,0.035-0.885,0.095l2.201,0.685c1.395,0.688,1.919,2.281,1.171,3.562
	c-0.747,1.281-2.484,1.764-3.88,1.076l-2.371-0.738c0.495,1.475,1.992,2.549,3.764,2.549C30.594,32.33,32.355,30.711,32.355,28.715z
	"/>
</svg>
