<?xml version="1.0" encoding="utf-8"?>
<!-- Generator: Adobe Illustrator 15.0.0, SVG Export Plug-In . SVG Version: 6.00 Build 0)  -->
<!DOCTYPE svg PUBLIC "-//W3C//DTD SVG 1.1//EN" "http://www.w3.org/Graphics/SVG/1.1/DTD/svg11.dtd">
<svg version="1.1" id="Layer_1" xmlns="http://www.w3.org/2000/svg" xmlns:xlink="http://www.w3.org/1999/xlink" x="0px" y="0px"
	 width="48px" height="48px" viewBox="0 0 48 48" enable-background="new 0 0 48 48" xml:space="preserve">
<rect x="-0.864" y="-3.041" fill="#F2F2F2" width="50" height="51"/>
<g>
	<path fill="#0064D4" d="M22.38,23.458c0,3.815-3.094,6.909-6.908,6.909c-3.815,0-6.908-3.094-6.908-6.909
		c0-3.812,3.093-6.907,6.908-6.907C19.285,16.551,22.38,19.645,22.38,23.458z"/>
	<path fill="#FF0080" d="M39.707,23.458c0,3.815-3.092,6.909-6.905,6.909c-3.815,0-6.908-3.094-6.908-6.909
		c0-3.812,3.093-6.907,6.908-6.907C36.615,16.551,39.707,19.645,39.707,23.458z"/>
</g>
</svg>
