<?xml version="1.0" encoding="utf-8"?>
<!-- Generator: Adobe Illustrator 15.0.0, SVG Export Plug-In . SVG Version: 6.00 Build 0)  -->
<!DOCTYPE svg PUBLIC "-//W3C//DTD SVG 1.1//EN" "http://www.w3.org/Graphics/SVG/1.1/DTD/svg11.dtd">
<svg version="1.1" id="Layer_1" xmlns="http://www.w3.org/2000/svg" xmlns:xlink="http://www.w3.org/1999/xlink" x="0px" y="0px"
	 width="48px" height="48px" viewBox="0 0 48 48" enable-background="new 0 0 48 48" xml:space="preserve">
<rect x="-1" y="-3" fill="#EDEDED" width="50" height="51"/>
<g>
	<path fill="#0064D4" d="M22.515,22.417c0,3.815-3.093,6.909-6.908,6.909c-3.815,0-6.908-3.094-6.908-6.909
		c0-3.812,3.093-6.907,6.908-6.907C19.421,15.51,22.515,18.604,22.515,22.417z"/>
	<path fill="#FF0080" d="M39.843,22.417c0,3.815-3.092,6.909-6.906,6.909c-3.815,0-6.907-3.094-6.907-6.909
		c0-3.812,3.092-6.907,6.907-6.907C36.751,15.51,39.843,18.604,39.843,22.417z"/>
</g>
</svg>
