<?xml version="1.0" encoding="utf-8"?>
<!-- Generator: Adobe Illustrator 15.0.0, SVG Export Plug-In . SVG Version: 6.00 Build 0)  -->
<!DOCTYPE svg PUBLIC "-//W3C//DTD SVG 1.1//EN" "http://www.w3.org/Graphics/SVG/1.1/DTD/svg11.dtd">
<svg version="1.1" id="Layer_1" xmlns="http://www.w3.org/2000/svg" xmlns:xlink="http://www.w3.org/1999/xlink" x="0px" y="0px"
	 width="48px" height="48px" viewBox="0 0 48 48" enable-background="new 0 0 48 48" xml:space="preserve">
<rect fill="#333333" width="48" height="48"/>
<path id="Zerply_1_" fill="#B0CF8C" d="M14.486,32.697c0.291,0,0.581,0,0.872,0c2.167,0,4.013,0.06,6.015,1.089
	c1.538,0.791,2.808,2.057,4.307,2.938c1.42,0.834,3.041,1.711,4.703,1.907c3.348,0.396,4.693-3.651,4.137-6.276
	c-1.492,1.201-3.571,1.172-5.479,0.648c-1.794-0.6-4.649-2.458-4.649-2.458v0.001c-1.28-0.801-2.784-1.462-4.294-1.395
	c0-0.682,0.02-0.707,0.434-1.188c0.57-0.661,1.141-1.321,1.711-1.981c1.794-2.083,3.589-4.163,5.383-6.242
	c1.527-1.77,3.055-3.54,4.581-5.311c0.146-0.169,0.687-0.604,0.712-0.838c0.094-0.804,0.186-1.607,0.279-2.411
	c0.064-0.558-0.514-0.424-0.514-0.424l-0.002-0.003c-2.477,0.504-5.021,0.767-7.545,0.651c-1.405-0.064-2.883-0.198-4.201-0.723
	c-0.047-0.019-0.327-0.162-0.589-0.305c-0.38-0.197-0.635-0.07-0.769,0.044c-0.106,0.133-0.219,0.261-0.32,0.397
	c-0.663,0.906-1.28,1.971-1.393,3.107c-0.025,0.254-0.057,0.789,0.083,1.111h-0.001c0,0,0.015,0.039,0.057,0.102
	c0.008,0.01,0.013,0.021,0.021,0.029c0.316,0.437,1.771,1.75,7.452,0.611c-3.697,4.364-7.394,8.728-11.09,13.092
	c-0.001,0-0.001,0-0.001,0.002c-0.206,0.242-0.239,0.64-0.239,0.64c0,0.774,0,1.548,0,2.322c0,0.028-0.002,0.199-0.004,0.382
	C14.213,32.605,14.386,32.684,14.486,32.697z"/>
</svg>
