<?xml version="1.0" encoding="utf-8"?>
<!-- Generator: Adobe Illustrator 15.0.0, SVG Export Plug-In . SVG Version: 6.00 Build 0)  -->
<!DOCTYPE svg PUBLIC "-//W3C//DTD SVG 1.1//EN" "http://www.w3.org/Graphics/SVG/1.1/DTD/svg11.dtd">
<svg version="1.1" id="Layer_1" xmlns="http://www.w3.org/2000/svg" xmlns:xlink="http://www.w3.org/1999/xlink" x="0px" y="0px"
	 width="48px" height="48px" viewBox="0 0 48 48" enable-background="new 0 0 48 48" xml:space="preserve">
<rect fill="#EFEFEF" width="48" height="48"/>
<g>
	<g>
		<g>
			<path fill="#7AC143" d="M15.506,24.576l-0.518-0.518c-1.605-1.604-2.102-3.898-1.494-5.933c-1.605-0.363-2.804-1.798-2.804-3.514
				c0-1.987,1.612-3.601,3.601-3.601c1.789,0.001,3.274,1.308,3.553,3.019c1.943-0.456,4.069,0.074,5.583,1.588l0.208,0.207
				l-2.658,2.656l-0.206-0.207c-0.862-0.861-2.26-0.861-3.123,0.001c-0.865,0.865-0.864,2.268-0.005,3.127l0.521,0.519l2.657,2.655
				l2.811,2.809l-2.655,2.658l-2.813-2.811L15.506,24.576"/>
			<path fill="#FBB040" d="M18.479,21.606l2.814-2.811l2.657-2.655l0.518-0.518c1.601-1.599,3.88-2.102,5.906-1.507
				c0.242-1.753,1.747-3.104,3.566-3.104c1.989,0,3.602,1.612,3.602,3.601c0,1.829-1.362,3.339-3.127,3.57
				c0.58,2.019,0.074,4.282-1.515,5.872l-0.206,0.208l-2.655-2.658l0.204-0.206c0.863-0.862,0.863-2.261,0.001-3.123
				c-0.859-0.858-2.254-0.86-3.119,0.005l-0.52,0.519l-2.657,2.655l-2.812,2.809L18.479,21.606"/>
		</g>
	</g>
	<g>
		<g>
			<g>
				<path fill="#EF4135" d="M30.445,35.013c-2.044,0.629-4.36,0.134-5.979-1.482l-0.202-0.203l2.654-2.658l0.205,0.204
					c0.862,0.862,2.261,0.862,3.123,0.001c0.859-0.86,0.861-2.254-0.005-3.12l-0.52-0.521l-2.655-2.657l-2.806-2.809l2.657-2.654
					l2.804,2.806l2.655,2.657l0.521,0.522c1.527,1.527,2.056,3.676,1.58,5.632c1.75,0.245,3.095,1.748,3.095,3.565
					c0,1.989-1.613,3.6-3.601,3.6C32.23,37.896,30.777,36.659,30.445,35.013"/>
				<path fill="#5091CD" d="M29.408,27.548l-2.804,2.807l-2.655,2.658l-0.521,0.521c-1.534,1.534-3.696,2.056-5.66,1.568
					c-0.367,1.601-1.799,2.792-3.511,2.793c-1.989,0-3.602-1.611-3.601-3.6c0-1.703,1.182-3.131,2.77-3.505
					c-0.502-1.973,0.019-4.153,1.562-5.696l0.204-0.203l2.657,2.654l-0.205,0.205c-0.861,0.862-0.861,2.259,0.001,3.123
					c0.865,0.865,2.267,0.863,3.126,0.003l0.521-0.521l2.655-2.656l2.806-2.809L29.408,27.548"/>
			</g>
		</g>
	</g>
</g>
</svg>
