<?xml version="1.0" encoding="utf-8"?>
<!-- Generator: Adobe Illustrator 15.0.0, SVG Export Plug-In . SVG Version: 6.00 Build 0)  -->
<!DOCTYPE svg PUBLIC "-//W3C//DTD SVG 1.1//EN" "http://www.w3.org/Graphics/SVG/1.1/DTD/svg11.dtd">
<svg version="1.1" id="Layer_1" xmlns="http://www.w3.org/2000/svg" xmlns:xlink="http://www.w3.org/1999/xlink" x="0px" y="0px"
	 width="48px" height="48px" viewBox="0 0 48 48" enable-background="new 0 0 48 48" xml:space="preserve">
<rect x="-2" y="-2" fill="#BC091E" width="52" height="52"/>
<path fill="#FFFFFF" d="M24.987,7.641c-8.492,0-12.773,6.088-12.773,11.165c0,3.074,1.163,5.809,3.66,6.829
	c0.409,0.168,0.775,0.006,0.895-0.445c0.082-0.315,0.278-1.106,0.365-1.436c0.119-0.449,0.073-0.605-0.257-0.996
	c-0.72-0.848-1.181-1.949-1.181-3.506c0-4.516,3.38-8.56,8.8-8.56c4.8,0,7.438,2.932,7.438,6.849c0,5.152-2.281,9.504-5.667,9.504
	c-1.87,0-3.269-1.547-2.821-3.444c0.538-2.264,1.578-4.707,1.578-6.342c0-1.463-0.785-2.684-2.41-2.684
	c-1.911,0-3.447,1.978-3.447,4.627c0,1.686,0.57,2.828,0.57,2.828s-1.956,8.288-2.299,9.741c-0.683,2.891-0.103,6.432-0.054,6.791
	c0.029,0.211,0.302,0.262,0.425,0.102c0.176-0.229,2.453-3.041,3.227-5.848c0.22-0.797,1.258-4.914,1.258-4.914
	c0.621,1.186,2.436,2.229,4.365,2.229c5.746,0,9.645-5.239,9.645-12.25C36.303,12.579,31.812,7.641,24.987,7.641z"/>
</svg>
