<?xml version="1.0" encoding="utf-8"?>
<!-- Generator: Adobe Illustrator 15.0.0, SVG Export Plug-In . SVG Version: 6.00 Build 0)  -->
<!DOCTYPE svg PUBLIC "-//W3C//DTD SVG 1.1//EN" "http://www.w3.org/Graphics/SVG/1.1/DTD/svg11.dtd">
<svg version="1.1" id="Layer_1" xmlns="http://www.w3.org/2000/svg" xmlns:xlink="http://www.w3.org/1999/xlink" x="0px" y="0px"
	 width="48px" height="48px" viewBox="0 0 48 48" enable-background="new 0 0 48 48" xml:space="preserve">
<rect fill="#E5E5E5" width="48" height="48"/>
<g>
	<path id="path3898" fill="#303030" d="M21.111,17.262c0,0-0.443-0.986-0.594-1.312c-1.005-2.182-0.984-2.298-2.002-2.444
		c-0.284-0.042-0.432-0.082-0.432-0.237v-0.689l0.086-0.067c1.837-0.002,5.926-0.002,5.926-0.002l0.155,0.057v0.688
		c0,0.157-0.103,0.239-0.312,0.239l-0.427,0.067c-1.086,0.091-0.909,0.578-0.188,2.149l6.849,15.331l0.235,0.068l6.078-15.785
		c0.211-0.636,0.18-1.088-0.091-1.355c-0.274-0.257-0.465-0.41-1.171-0.442l-0.571-0.032c-0.069,0-0.136-0.028-0.198-0.08
		c-0.064-0.048-0.096-0.113-0.096-0.19v-0.658l0.085-0.067c1.714,0,6.871,0,6.871,0l0.069,0.067v0.658
		c0,0.178-0.094,0.269-0.276,0.269c-0.901,0.042-1.566,0.257-1.998,0.637c-0.436,0.385-0.772,0.914-1.015,1.602
		c0,0-5.591,14.002-7.504,18.655c-0.731,1.527-1.452,1.387-2.085-0.042c-1.339-3.015-5.105-12.159-5.105-12.159L21.111,17.262
		L21.111,17.262z"/>
	<path id="path3900" fill="#303030" d="M32.083,12.502c0,0-3.863-0.012-5.583,0l-0.086,0.068v0.654c0,0.08,0.031,0.143,0.093,0.192
		c0.065,0.052,0.13,0.078,0.201,0.078l0.276,0.033c0.703,0.033,1.026,0.234,1.122,0.359c0.168,0.226,0.251,0.468-0.155,1.438
		l-7.214,15.742l-0.19-0.054c0,0-5.166-11.92-6.661-15.908c-0.156-0.411-0.226-0.719-0.226-0.907c0-0.405,0.334-0.625,1.002-0.655
		l0.778-0.036c0.207,0,0.311-0.086,0.311-0.267v-0.654l-0.069-0.068c0,0-6.188-0.008-7.466,0l-0.069,0.068v0.689
		c0,0.123,0.143,0.2,0.43,0.232c0.787,0.047,1.304,0.184,1.552,0.413c0.246,0.23,0.509,0.814,0.855,1.724
		c1.879,4.936,5.87,13.745,7.813,18.762c0.559,1.369,1.264,1.583,2.116-0.042c1.479-3.002,5.488-12.167,5.488-12.167l3.159-6.463
		c0.367-0.681,0.722-1.291,0.902-1.575c0.33-0.518,0.514-0.615,1.413-0.661c0.184,0,0.276-0.09,0.276-0.271v-0.653L32.083,12.502
		L32.083,12.502z"/>
</g>
</svg>
