<?xml version="1.0" encoding="utf-8"?>
<!-- Generator: Adobe Illustrator 15.0.0, SVG Export Plug-In . SVG Version: 6.00 Build 0)  -->
<!DOCTYPE svg PUBLIC "-//W3C//DTD SVG 1.1//EN" "http://www.w3.org/Graphics/SVG/1.1/DTD/svg11.dtd">
<svg version="1.1" id="Layer_1" xmlns="http://www.w3.org/2000/svg" xmlns:xlink="http://www.w3.org/1999/xlink" x="0px" y="0px"
	 width="48px" height="48px" viewBox="0 0 48 48" enable-background="new 0 0 48 48" xml:space="preserve">
<rect x="-2" y="-3" fill="#731A8B" width="50" height="51"/>
<g>
	<path fill="#FFFFFF" d="M32.533,17.66c0.168-0.033,0.417-0.088,0.699-0.148h2.185l0.341-0.502c0.006-0.004,0.02-0.006,0.026-0.006
		l0.845-1.22c-0.012,0-0.031-0.003-0.041-0.003l0.088-0.132H24.84l0.455,1.863h3.23l-5.436,4.906
		c-1.11-1.533-3.71-4.725-5.523-7.367h4.069v-1.417l0.046-0.312c-0.012-0.002-0.035-0.006-0.046-0.006v-0.128H8.139v1.863h4.002
		c1.553,1.215,7.495,8.633,7.742,9.374c0.099,0.693,0.189,4.783-0.102,5.092c-0.584,0.617-3.248,0.453-3.891,0.5l-0.222,1.266
		c1.174,0.035,4.993-0.094,6.181-0.094c2.339,0,6.438-0.012,7.016,0.033l0.071-1.33c-0.591-0.1-3.817-0.012-4.263-0.113
		c-0.1-0.643-0.207-4.949-0.109-5.395C25.012,23.099,31.791,17.861,32.533,17.66z"/>
	<path fill="#FFFFFF" d="M34.498,27.839l1.813,0.143l2.112-8.159c-0.353-0.012-3.559-0.314-3.975-0.396L34.498,27.839z"/>
	<polygon fill="#FFFFFF" points="34.186,29.146 34.195,31.138 35.113,31.218 36.104,31.292 36.396,29.341 35.35,29.29 	"/>
</g>
</svg>
