<?xml version="1.0" encoding="utf-8"?>
<!-- Generator: Adobe Illustrator 15.0.0, SVG Export Plug-In . SVG Version: 6.00 Build 0)  -->
<!DOCTYPE svg PUBLIC "-//W3C//DTD SVG 1.1//EN" "http://www.w3.org/Graphics/SVG/1.1/DTD/svg11.dtd">
<svg version="1.1" id="Layer_1" xmlns="http://www.w3.org/2000/svg" xmlns:xlink="http://www.w3.org/1999/xlink" x="0px" y="0px"
	 width="48px" height="48px" viewBox="0 0 48 48" enable-background="new 0 0 48 48" xml:space="preserve">
<rect x="-0.685" y="-2.23" fill="#E5D74B" width="50.146" height="51.102"/>
<path fill="#D9D9D9" d="M24.389,23.321"/>
<path fill="#272423" d="M11.068,28.878H7.855V15.764h3.213V28.878z M22.984,28.878h-2.743v-7.361l-1.327,7.361H16.93l-1.361-7.361
	v7.361h-2.895V15.765h4.135l1.076,6.187l0.744-6.187h4.355V28.878z M24.681,28.878V15.764h3.596c2.141,0,2.66,0.212,3.271,0.636
	c0.612,0.424,0.917,1.074,0.917,1.952v7.937c0,0.817-0.285,1.453-0.857,1.907c-0.571,0.455-1.259,0.682-3.313,0.682H24.681z
	 M29.017,26.126v-7.689c0-0.639-0.693-0.58-1.242-0.58v8.808C28.323,26.664,29.017,26.747,29.017,26.126z M36.576,28.194
	c-0.225-0.098-0.427,0.684-0.427,0.684h-2.653V15.764h3.286v3.002c0.331-0.372,1.255-0.951,2.151-0.91
	c0.896,0.042,2.067,0.704,1.984,1.803v7.627c0,0.536-0.235,0.959-0.706,1.271c-0.377,0.164-0.699,0.216-1.485,0.216
	S36.801,28.292,36.576,28.194z M37.687,26.612l0.001-6.605c0-0.323-0.149-0.485-0.447-0.485c-0.305,0-0.458,0.155-0.458,0.467
	l-0.002,6.624c0,0.322,0.152,0.548,0.457,0.548C37.536,27.16,37.687,26.935,37.687,26.612z"/>
</svg>
