<?xml version="1.0" encoding="utf-8"?>
<!-- Generator: Adobe Illustrator 15.0.0, SVG Export Plug-In . SVG Version: 6.00 Build 0)  -->
<!DOCTYPE svg PUBLIC "-//W3C//DTD SVG 1.1//EN" "http://www.w3.org/Graphics/SVG/1.1/DTD/svg11.dtd">
<svg version="1.1" id="Layer_1" xmlns="http://www.w3.org/2000/svg" xmlns:xlink="http://www.w3.org/1999/xlink" x="0px" y="0px"
	 width="48px" height="48px" viewBox="0 0 48 48" enable-background="new 0 0 48 48" xml:space="preserve">
<rect fill="#F5F5F5" width="48" height="48"/>
<g>
	<polygon fill="#808080" points="29.648,22.811 29.648,33.192 15.807,33.192 15.807,22.811 13.5,22.811 13.5,35.499 31.955,35.499 
		31.955,22.811 	"/>
	<g>
		<g>
			<g>
				
					<rect x="29.023" y="11.454" transform="matrix(0.4226 0.9063 -0.9063 0.4226 30.8482 -23.206)" fill="#F26E21" width="9.227" height="2.307"/>
			</g>
		</g>
		<g>
			<g>
				
					<rect x="25.269" y="13.908" transform="matrix(0.6156 0.788 -0.788 0.6156 23.3546 -17.7598)" fill="#F4831F" width="9.229" height="2.307"/>
			</g>
		</g>
		<g>
			<g>
				
					<rect x="22.163" y="17.142" transform="matrix(0.7771 0.6293 -0.6293 0.7771 17.4824 -12.7741)" fill="#E28B26" width="9.228" height="2.307"/>
			</g>
		</g>
		<g>
			<g>
				
					<rect x="19.865" y="20.992" transform="matrix(0.8988 0.4383 -0.4383 0.8988 12.182 -8.4879)" fill="#C49851" width="9.227" height="2.308"/>
			</g>
		</g>
		<g>
			<g>
				
					<rect x="18.491" y="25.263" transform="matrix(0.9744 0.225 -0.225 0.9744 6.5359 -4.5212)" fill="#A98B70" width="9.228" height="2.306"/>
			</g>
		</g>
		<g>
			<rect x="18.114" y="29.731" fill="#808080" width="9.228" height="2.308"/>
		</g>
	</g>
</g>
</svg>
