<?xml version="1.0" encoding="utf-8"?>
<!-- Generator: Adobe Illustrator 15.0.0, SVG Export Plug-In . SVG Version: 6.00 Build 0)  -->
<!DOCTYPE svg PUBLIC "-//W3C//DTD SVG 1.1//EN" "http://www.w3.org/Graphics/SVG/1.1/DTD/svg11.dtd">
<svg version="1.1" id="Layer_1" xmlns="http://www.w3.org/2000/svg" xmlns:xlink="http://www.w3.org/1999/xlink" x="0px" y="0px"
	 width="48px" height="48px" viewBox="0 0 48 48" enable-background="new 0 0 48 48" xml:space="preserve">
<rect fill="#E8E8E8" width="48" height="48"/>
<g>
	<rect y="44" fill="#83ECB8" width="12" height="4"/>
	<rect x="12" y="44" fill="#50BBB6" width="12" height="4"/>
	<rect x="24" y="44" fill="#ED4255" width="12" height="4"/>
	<rect x="36" y="44" fill="#FBB64A" width="12" height="4"/>
</g>
<g>
	<path fill="#ED4255" d="M41.006,9.655C41.006,8.08,39.643,7,38.025,7H10.929C9.312,7,8,7.884,8,9.458v11.404
		c0,0.249,0.043,0.391,0.104,0.391l-0.073-0.061c0.473,8.788,7.564,15.118,16.356,15.118c8.728,0,16.351-6.212,16.557-15.045
		l0.012,0.086"/>
	<path fill="#FFFFFF" d="M24.625,28.577c-0.562,0-1.125-0.216-1.554-0.644l-7.837-7.837c-0.859-0.857-0.859-2.249,0-3.106
		c0.858-0.858,2.249-0.858,3.107,0l6.284,6.284l6.686-6.685c0.857-0.859,2.248-0.859,3.105,0c0.859,0.857,0.859,2.248,0,3.106
		l-8.238,8.239C25.748,28.361,25.188,28.577,24.625,28.577z"/>
</g>
</svg>
