<?xml version="1.0" encoding="utf-8"?>
<!-- Generator: Adobe Illustrator 15.0.0, SVG Export Plug-In . SVG Version: 6.00 Build 0)  -->
<!DOCTYPE svg PUBLIC "-//W3C//DTD SVG 1.1//EN" "http://www.w3.org/Graphics/SVG/1.1/DTD/svg11.dtd">
<svg version="1.1" id="Layer_1" xmlns="http://www.w3.org/2000/svg" xmlns:xlink="http://www.w3.org/1999/xlink" x="0px" y="0px"
	 width="48px" height="48px" viewBox="0 0 48 48" enable-background="new 0 0 48 48" xml:space="preserve">
<rect x="-0.927" y="-2.287" fill="#384043" width="50.146" height="51.104"/>
<path fill="#82B767" d="M38.911,13.967c-0.278-0.199-2.743-1.944-3.652-1.944c-1.415,0-2.2,0.575-2.369,0.715
	c-1.118,0.496-1.836,1.454-1.834,1.454c-1.831,2.005-2.652,4.005-2.441,5.944c0.236,2.179,1.739,3.685,2.373,4.231
	c0.015,0.012,0.104,0.057,0.121,0.065c0.062,0.032,0.123,0.069,0.182,0.109c0.537,0.363,0.858,0.969,0.858,1.618
	c0,1.079-0.876,1.955-1.955,1.955c-1.077,0-1.953-0.876-1.953-1.955c0-0.101,0.011-0.199,0.025-0.296
	c0.006-0.043,0-0.086-0.017-0.126c-0.537-1.331-1.072-1.978-1.638-1.978c-0.007,0-0.056,0.002-0.063,0.003
	c-1.39,0.13-2.269,4.31-2.461,5.324c-0.021,0.014-0.039,0.032-0.055,0.052c-0.056,0.073-0.064,0.171-0.024,0.254
	c0.137,0.283,0.207,0.585,0.207,0.896c0,1.137-0.925,2.062-2.062,2.062s-2.062-0.925-2.062-2.062c0-0.556,0.219-1.077,0.616-1.469
	c0.016-0.016,0.029-0.032,0.041-0.052c0.877-1.525,2.403-4.478,2.556-5.869c0.007-0.064-0.002-0.127-0.043-0.178
	s-0.089-0.081-0.154-0.088c-0.042-0.079-0.113-0.211-0.325-0.318c-0.073-0.037-0.159-0.035-0.23,0.005
	c-0.028,0.016-0.048,0.024-0.068,0.027c-0.047,0.007-0.091,0.027-0.126,0.059c-1.017,0.903-3.144,2.722-3.561,3.078
	c-0.035,0.03-0.062,0.07-0.075,0.116c-0.234,0.786-0.973,1.336-1.795,1.336c-1.033,0-1.873-0.841-1.873-1.873
	c0-0.905,0.646-1.68,1.535-1.842c0.021-0.003,0.041-0.01,0.061-0.02c0.829-0.391,3.667-1.783,5.396-3.264
	c0.054-0.046,0.085-0.113,0.085-0.184c0.001-0.07-0.029-0.138-0.082-0.185c-0.047-0.041-0.065-0.096-0.072-0.135
	c-0.021-0.116-0.122-0.201-0.24-0.201c-0.042,0-0.078-0.006-0.107-0.019c-0.077-0.033-0.172-0.016-0.241,0.034L18.32,19.87
	c-0.057,0.011-0.107,0.042-0.144,0.089c-0.323,0.414-0.808,0.652-1.33,0.652c-0.93,0-1.687-0.756-1.687-1.686
	c0-0.93,0.757-1.687,1.687-1.687c0.278,0,0.555,0.069,0.798,0.201c0.033,0.018,0.07,0.027,0.108,0.029l3.085,0.099
	c0.085,0,2.128-0.055,5.242-4.845c0.093-0.219,0.219-0.453,0.385-0.715c0.082-0.129,0.163-0.261,0.243-0.393
	c0.163-0.27,0.332-0.548,0.536-0.822c0.124-0.225,0.251-0.455,0.376-0.691c0.222-0.399,0.915-1.746,0.527-2.32
	c-0.454-0.673-3.04-1.823-3.31-1.94c-0.422-0.243-0.963-0.242-1.382,0.001L9.402,13.955c-0.426,0.247-0.69,0.706-0.69,1.196v16.227
	c0,0.492,0.265,0.951,0.692,1.198l14.053,8.113c0.207,0.118,0.445,0.181,0.689,0.181s0.482-0.062,0.689-0.181l14.055-8.113
	c0.426-0.246,0.69-0.705,0.69-1.198V15.152C39.581,14.66,39.316,14.201,38.911,13.967z"/>
</svg>
