<?xml version="1.0" encoding="utf-8"?>
<!-- Generator: Adobe Illustrator 15.0.0, SVG Export Plug-In . SVG Version: 6.00 Build 0)  -->
<!DOCTYPE svg PUBLIC "-//W3C//DTD SVG 1.1//EN" "http://www.w3.org/Graphics/SVG/1.1/DTD/svg11.dtd">
<svg version="1.1" id="Layer_1" xmlns="http://www.w3.org/2000/svg" xmlns:xlink="http://www.w3.org/1999/xlink" x="0px" y="0px"
	 width="48px" height="48px" viewBox="0 0 48 48" enable-background="new 0 0 48 48" xml:space="preserve">
<rect x="-2" y="-2" fill="#CD332D" width="51" height="51"/>
<g>
	<path fill="#FFFFFF" d="M33.389,22.49H14.021c-3.079,0-5.574,2.498-5.574,5.577v4.48c0,3.076,2.495,5.574,5.574,5.574h19.368
		c3.078,0,5.574-2.498,5.574-5.574v-4.48C38.963,24.988,36.467,22.49,33.389,22.49z M18.089,25.98h-1.8v8.943h-1.738V25.98H12.75
		v-1.524h5.339V25.98z M23.178,34.924h-1.545v-0.846c-0.286,0.312-0.582,0.551-0.892,0.715c-0.308,0.166-0.604,0.246-0.896,0.246
		c-0.357,0-0.624-0.115-0.807-0.346c-0.179-0.23-0.271-0.574-0.271-1.035v-6.457h1.543v5.924c0,0.184,0.033,0.316,0.096,0.396
		c0.066,0.086,0.172,0.123,0.317,0.123c0.112,0,0.257-0.055,0.431-0.16c0.174-0.111,0.333-0.248,0.479-0.416v-5.867h1.545V34.924z
		 M28.777,33.33c0,0.545-0.119,0.967-0.363,1.258c-0.24,0.293-0.592,0.438-1.049,0.438c-0.303,0-0.572-0.057-0.809-0.17
		c-0.234-0.111-0.457-0.285-0.658-0.523v0.592h-1.562V24.457h1.562v3.372c0.209-0.234,0.43-0.414,0.66-0.535
		c0.236-0.125,0.473-0.184,0.715-0.184c0.488,0,0.859,0.162,1.117,0.49c0.258,0.33,0.387,0.811,0.387,1.445V33.33z M34.131,31.248
		h-2.953v1.455c0,0.406,0.049,0.688,0.15,0.848c0.104,0.158,0.279,0.234,0.525,0.234c0.256,0,0.434-0.068,0.535-0.199
		c0.102-0.135,0.154-0.426,0.154-0.883v-0.35h1.588v0.395c0,0.793-0.191,1.389-0.582,1.791c-0.385,0.398-0.963,0.598-1.732,0.598
		c-0.691,0-1.238-0.213-1.633-0.639c-0.396-0.42-0.598-1.006-0.598-1.75v-3.469c0-0.668,0.221-1.217,0.656-1.641
		c0.438-0.418,0.998-0.629,1.691-0.629c0.705,0,1.25,0.195,1.629,0.584c0.379,0.393,0.568,0.953,0.568,1.686V31.248z"/>
	<path fill="#FFFFFF" d="M31.865,28.361c-0.244,0-0.42,0.068-0.527,0.215c-0.109,0.135-0.16,0.367-0.16,0.689v0.781h1.365v-0.781
		c0-0.322-0.055-0.555-0.162-0.689C32.275,28.43,32.102,28.361,31.865,28.361z"/>
	<path fill="#FFFFFF" d="M26.543,28.336c-0.109,0-0.219,0.021-0.328,0.072c-0.105,0.049-0.211,0.131-0.316,0.236v4.812
		c0.123,0.125,0.248,0.219,0.365,0.273c0.119,0.055,0.242,0.084,0.373,0.084c0.189,0,0.328-0.055,0.418-0.164
		c0.086-0.109,0.131-0.285,0.131-0.531v-3.99c0-0.262-0.053-0.459-0.16-0.594C26.912,28.4,26.752,28.336,26.543,28.336z"/>
	<polygon fill="#FFFFFF" points="16.557,19.808 18.514,19.808 18.514,15.023 20.79,8.275 18.803,8.275 17.592,12.884 17.467,12.884 
		16.198,8.275 14.226,8.275 16.557,15.238 	"/>
	<path fill="#FFFFFF" d="M23.442,20.023c0.789,0,1.409-0.207,1.861-0.621c0.449-0.418,0.674-0.984,0.674-1.713v-4.396
		c0-0.646-0.23-1.18-0.688-1.591c-0.46-0.41-1.05-0.616-1.769-0.616c-0.789,0-1.42,0.195-1.887,0.584
		c-0.467,0.392-0.702,0.914-0.702,1.575v4.41c0,0.724,0.229,1.297,0.685,1.726C22.073,19.808,22.682,20.023,23.442,20.023z
		 M22.721,13.18c0-0.185,0.064-0.335,0.196-0.452c0.136-0.113,0.307-0.169,0.519-0.169c0.23,0,0.416,0.056,0.559,0.169
		c0.141,0.117,0.211,0.268,0.211,0.452v4.635c0,0.228-0.07,0.408-0.207,0.539c-0.141,0.13-0.328,0.194-0.562,0.194
		c-0.229,0-0.408-0.062-0.529-0.191c-0.123-0.129-0.186-0.309-0.186-0.542V13.18z"/>
	<path fill="#FFFFFF" d="M28.6,19.931c0.326,0,0.662-0.093,1.008-0.271c0.348-0.182,0.682-0.447,1-0.795v0.943h1.738v-8.509h-1.738
		v6.46c-0.16,0.184-0.34,0.336-0.535,0.456s-0.355,0.18-0.486,0.18c-0.162,0-0.281-0.046-0.352-0.138
		c-0.072-0.088-0.113-0.234-0.113-0.435v-6.523h-1.734v7.11c0,0.508,0.102,0.887,0.305,1.139
		C27.896,19.803,28.197,19.931,28.6,19.931z"/>
</g>
</svg>
