<?xml version="1.0" encoding="utf-8"?>
<!-- Generator: Adobe Illustrator 15.0.0, SVG Export Plug-In . SVG Version: 6.00 Build 0)  -->
<!DOCTYPE svg PUBLIC "-//W3C//DTD SVG 1.1//EN" "http://www.w3.org/Graphics/SVG/1.1/DTD/svg11.dtd">
<svg version="1.1" id="Layer_1" xmlns="http://www.w3.org/2000/svg" xmlns:xlink="http://www.w3.org/1999/xlink" x="0px" y="0px"
	 width="48px" height="48px" viewBox="0 0 48 48" enable-background="new 0 0 48 48" xml:space="preserve">
<rect x="-2" y="-2" fill="#EF4E23" width="51" height="51"/>
<path id="icon_2_" fill="#FFFFFF" d="M25.746,19.846l1.93,0.898l2.875-0.857v-1.998c-0.102-3.396-2.877-6.121-6.301-6.121
	c-3.409,0-6.18,2.705-6.301,6.086v9.119c0,0.826-0.669,1.496-1.494,1.496c-0.826,0-1.494-0.67-1.494-1.496v-3.865h-4.833
	c0,0,0,3.871,0,3.916c0,3.488,2.827,6.314,6.313,6.314c3.457,0,6.259-2.777,6.307-6.223l0.008-9.007c0-0.826,0.67-1.494,1.494-1.494
	c0.826,0,1.496,0.668,1.496,1.494V19.846z M33.541,23.108v4.046c0,0.824-0.67,1.494-1.494,1.494c-0.826,0-1.496-0.67-1.496-1.494
	v-3.97l-2.875,0.859l-1.93-0.898v3.935c0.029,3.461,2.846,6.258,6.312,6.258c3.488,0,6.314-2.826,6.314-6.314
	c0-0.045,0-3.916,0-3.916H33.541z"/>
</svg>
