<?xml version="1.0" encoding="utf-8"?>
<!-- Generator: Adobe Illustrator 15.0.0, SVG Export Plug-In . SVG Version: 6.00 Build 0)  -->
<!DOCTYPE svg PUBLIC "-//W3C//DTD SVG 1.1//EN" "http://www.w3.org/Graphics/SVG/1.1/DTD/svg11.dtd">
<svg version="1.1" id="Layer_1" xmlns="http://www.w3.org/2000/svg" xmlns:xlink="http://www.w3.org/1999/xlink" x="0px" y="0px"
	 width="48px" height="48px" viewBox="0 0 48 48" enable-background="new 0 0 48 48" xml:space="preserve">
<rect x="-2" y="-2" fill-rule="evenodd" clip-rule="evenodd" fill="#373737" width="52" height="52"/>
<g>
	<defs>
		<path id="SVGID_1_" d="M36.368,19.021c-3.963,0-6.341,3.97-6.341,3.97s-1.982-3.97-6.339-3.97c-4.361,0-5.154,3.574-5.154,3.574
			s-1.188-3.178-4.754-3.178c-2.376,0-3.57,1.193-3.57,1.193l0.794-3.574h7.133v-3.177H8.627l-1.98,9.53h3.563
			c0,0,0.794-1.587,2.777-1.587c1.98,0,2.774,1.587,2.774,3.177c0,1.589-1.586,3.177-3.171,3.177c-2.38,0-2.774-2.383-2.774-2.383
			H6.25c0,0,0.791,5.162,5.945,5.162c5.15,0,6.339-3.177,6.339-3.177s0.793,3.177,5.154,3.177c4.356,0,6.339-3.574,6.339-3.574
			s2.378,3.574,6.341,3.574s5.549-2.779,5.549-5.956C41.917,21.802,40.331,19.021,36.368,19.021z M24.082,27.759
			c-1.98,0-3.168-1.19-3.168-2.779c0-1.59,1.188-2.779,3.168-2.779c1.983,0,3.963,2.779,3.963,2.779S26.065,27.759,24.082,27.759z
			 M35.971,27.759c-1.979,0-3.961-2.779-3.961-2.779s1.981-2.779,3.961-2.779c1.982,0,3.172,1.189,3.172,2.779
			C39.143,26.568,37.953,27.759,35.971,27.759z"/>
	</defs>
	<use xlink:href="#SVGID_1_"  overflow="visible" fill="#FFFFFF"/>
	<clipPath id="SVGID_2_">
		<use xlink:href="#SVGID_1_"  overflow="visible"/>
	</clipPath>
	<g clip-path="url(#SVGID_2_)">
		<rect x="2.983" y="12.006" fill="#FFFFFF" width="42.996" height="20.783"/>
		<ellipse opacity="0.2" fill="#FFFFFF" cx="15.857" cy="23.722" rx="8.225" ry="8.242"/>
		<path opacity="0.4" fill="#FFFFFF" d="M32.506,26.369c0,1.131-0.914,2.052-2.048,2.052c-1.13,0-2.047-0.921-2.047-2.052
			c0-1.134,0.917-2.053,2.047-2.053C31.592,24.316,32.506,25.235,32.506,26.369z"/>
		<ellipse opacity="0.4" fill="#FFFFFF" cx="32.11" cy="21.044" rx="2.773" ry="2.779"/>
		<ellipse opacity="0.15" fill="#FFFFFF" cx="22.9" cy="30.342" rx="4.227" ry="4.234"/>
		<ellipse opacity="0.4" fill="#FFFFFF" cx="21.675" cy="21.308" rx="3.003" ry="3.008"/>
		<ellipse fill="#FFFFFF" cx="42.083" cy="24.316" rx="2.642" ry="2.647"/>
		<ellipse opacity="0.63" fill="#FFFFFF" cx="17.381" cy="13.991" rx="3.236" ry="3.245"/>
		<circle opacity="0.63" fill="#FFFFFF" cx="15.07" cy="17.699" r="2.215"/>
		<circle opacity="0.63" fill="#FFFFFF" cx="13.286" cy="19.917" r="1.162"/>
		<ellipse fill="#FFFFFF" cx="8.793" cy="27.759" rx="4.03" ry="4.038"/>
	</g>
</g>
</svg>
