<?xml version="1.0" encoding="utf-8"?>
<!-- Generator: Adobe Illustrator 15.0.0, SVG Export Plug-In . SVG Version: 6.00 Build 0)  -->
<!DOCTYPE svg PUBLIC "-//W3C//DTD SVG 1.1//EN" "http://www.w3.org/Graphics/SVG/1.1/DTD/svg11.dtd">
<svg version="1.1" id="Layer_1" xmlns="http://www.w3.org/2000/svg" xmlns:xlink="http://www.w3.org/1999/xlink" x="0px" y="0px"
	 width="48px" height="48px" viewBox="0 0 48 48" enable-background="new 0 0 48 48" xml:space="preserve">
<rect x="-0.703" y="-2.059" fill="#F2F2F2" width="50.146" height="51.103"/>
<path fill="#D9D9D9" d="M24.37,23.493"/>
<path id="Simplenote" fill="#3C9DE2" d="M13.251,33.023c-2.153-2.343-3.858-5.383-4.079-9.459c0-0.396,0-0.793,0-1.189
	c0.087-1.722,0.526-3.282,1.076-4.702c0.713-1.84,1.814-3.599,3.116-4.701c-0.002,0.88,0.022,1.721,0.112,2.266
	c0.276,1.652,1.197,3.462,2.323,4.588c0.913,0.913,2.136,1.539,3.398,2.208c2.519,1.337,4.915,2.517,7.42,3.851
	c1.611,0.859,3.27,1.921,3.737,3.626c0.663,2.41-0.744,4.647-1.869,5.834c-1.037,1.093-2.398,1.842-4.021,2.096
	c-0.642,0-1.284,0-1.926,0C18.562,36.996,15.413,35.375,13.251,33.023z M22.822,18.467c2.322,1.217,4.72,2.452,7.081,3.681
	c1.216,0.634,2.322,1.29,3.171,2.209c1.545,1.674,2.509,3.857,2.322,7.024c0.382-0.371,0.729-0.885,1.019-1.416
	c0.842-1.542,1.524-3.506,1.701-5.778c-0.01-0.066,0.011-0.101,0.056-0.113c0-0.755,0-1.51,0-2.266
	C37.175,13.84,31.753,9.055,24.125,8.441c-0.245,0-0.491,0-0.736,0c-1.491,0.25-2.942,0.675-3.794,1.643
	c-0.6,0.679-1.071,1.885-1.134,2.662C18.192,16.078,20.581,17.292,22.822,18.467z"/>
</svg>
