<?xml version="1.0" encoding="utf-8"?>
<!-- Generator: Adobe Illustrator 15.0.0, SVG Export Plug-In . SVG Version: 6.00 Build 0)  -->
<!DOCTYPE svg PUBLIC "-//W3C//DTD SVG 1.1//EN" "http://www.w3.org/Graphics/SVG/1.1/DTD/svg11.dtd">
<svg version="1.1" id="Layer_1" xmlns="http://www.w3.org/2000/svg" xmlns:xlink="http://www.w3.org/1999/xlink" x="0px" y="0px"
	 width="48px" height="48px" viewBox="0 0 48 48" enable-background="new 0 0 48 48" xml:space="preserve">
<g>
	<rect fill="#F60713" width="48" height="48"/>
</g>
<path id="Krop" fill="#FFFFFF" d="M19.46,30.728c0.049,0.868-0.956,1.621-1.581,1.655c-0.278,0.016-0.459-0.113-0.469-0.287
	s0.191-0.324,0.179-0.533c-0.034-0.625-2.362-3.04-6.729-7.643c-1.146,5.115-1.621,7.895-1.74,8.25
	c-0.182,0.498-0.759,0.773-1.384,0.809c-0.556,0.029-0.923-0.299-0.954-0.854c-0.047-0.835,1.283-7.076,4.096-18.626
	c-0.01-0.173-0.053-0.31-0.054-0.345c-0.081-1.459,0.746-2.272,1.684-2.324c0.59-0.032,1.443,0.269,1.478,0.894
	c0.033,0.591-0.953,3.572-2.32,9.119c2.485-2.96,5.959-6.322,10.235-10.287c0.63-0.592,1.102-0.897,1.518-0.92
	c0.383-0.021,0.603,0.176,0.627,0.627c0.02,0.347-0.204,0.708-0.614,0.871c-2.385,2.256-5.87,6.038-10.602,11.213
	C17.408,26.38,19.405,29.721,19.46,30.728z M41.627,23.232c0.215,3.926-1.979,7.706-4.134,7.825
	c-0.834,0.046-1.694-0.395-2.01-1.073c-0.821,4.714-1.162,7.382-1.126,8.041c0.021,0.383,0.34,0.47,0.348,0.608
	c0.021,0.382-0.346,0.681-0.694,0.7c-0.832,0.046-1.338-0.274-1.379-1.005c-0.032-0.578,0.396-5.003,2.02-12.905
	c-0.516,0.509-1.073,0.832-1.667,0.969c-0.81,3.635-2.341,5.565-4.355,5.676c-1.347,0.075-2.369-0.691-2.632-2.166
	c-0.762,1.162-1.442,1.73-2.407,1.783c-1.286,0.07-2.098-0.756-2.175-2.146c-0.08-1.459,0.305-3.328,1.114-5.707l-0.953-0.227
	c-0.913,3.047-1.625,4.655-2.355,4.696c-0.243,0.014-0.46-0.15-0.48-0.496c-0.013-0.244,0.936-2.005,1.553-5.348
	c-0.396-0.223-0.616-0.419-0.633-0.732c-0.036-0.66,0.814-1.647,1.857-1.705c0.486-0.026,0.886,0.265,0.908,0.682
	c0.012,0.208-0.039,0.559-0.122,0.947l1.166,0.284c0.156-0.322,0.387-0.579,0.686-0.839c0.205-0.082,0.376-0.125,0.445-0.129
	c0.521-0.029,1.241,0.385,1.267,0.836c0.02,0.347-0.207,0.674-0.673,1.082c-1.355,2.584-1.932,4.776-1.842,6.409
	c0.033,0.592,0.296,0.926,0.538,0.912c0.612-0.033,1.415-0.979,2.267-2.854c0.262-1.174,0.755-2.545,1.509-3.872
	c0.634-1.15,1.298-1.744,1.993-1.783c0.452-0.025,0.845,0.163,1.04,0.535c0.206-0.045,0.379-0.091,0.587-0.102
	c0.938-0.052,1.721,0.881,1.854,2.65c1.212-0.462,1.655-1.517,2.068-2.02c0.7-3.334,1.02-4.701,1.775-4.743
	c0.381-0.021,0.884,0.229,0.906,0.647c0.027,0.486-0.495,1.77-0.961,4.061c0.99-1.623,1.744-2.501,2.474-2.541
	C40.515,20.123,41.515,21.218,41.627,23.232z M31.418,24.527c-0.034-0.625-0.296-0.958-0.679-0.938
	c-1.043,0.057-2.917,3.332-2.778,5.868c0.04,0.729,0.303,1.063,0.79,1.036C29.897,30.432,31.559,27.063,31.418,24.527z
	 M39.914,23.154c-0.04-0.73-0.268-1.067-0.58-1.049c-0.556,0.03-2.318,2.184-3.438,6.532c0.106,0.656,0.652,1.079,1.208,1.048
	c0.938-0.052,1.518-0.919,2.12-2.626C39.765,25.496,39.968,24.126,39.914,23.154z"/>
</svg>
