<?xml version="1.0" encoding="utf-8"?>
<!-- Generator: Adobe Illustrator 15.0.0, SVG Export Plug-In . SVG Version: 6.00 Build 0)  -->
<!DOCTYPE svg PUBLIC "-//W3C//DTD SVG 1.1//EN" "http://www.w3.org/Graphics/SVG/1.1/DTD/svg11.dtd">
<svg version="1.1" id="Layer_1" xmlns="http://www.w3.org/2000/svg" xmlns:xlink="http://www.w3.org/1999/xlink" x="0px" y="0px"
	 width="48px" height="48px" viewBox="0 0 48 48" enable-background="new 0 0 48 48" xml:space="preserve">
<g>
	<rect fill="#D3E7F7" width="48" height="48"/>
	<g>
		<path fill="#4E4E4E" d="M23.981,17.971c-0.032,0-0.065-0.002-0.099-0.007c-0.347-0.054-0.586-0.378-0.532-0.726l0.999-6.503
			c0.025-0.174,0.124-0.329,0.27-0.429c0.145-0.101,0.323-0.134,0.497-0.097l8.164,1.814c0.343,0.076,0.56,0.416,0.483,0.76
			c-0.075,0.342-0.41,0.56-0.76,0.483l-7.5-1.667l-0.895,5.83C24.561,17.746,24.289,17.971,23.981,17.971z"/>
		<g>
			<circle fill="#E8E8E8" cx="32.709" cy="12.548" r="2.785"/>
			<path fill="#4E4E4E" d="M32.71,15.969c-1.887,0-3.422-1.534-3.422-3.421s1.535-3.422,3.422-3.422
				c1.886,0,3.421,1.535,3.421,3.422S34.596,15.969,32.71,15.969z M32.71,10.399c-1.186,0-2.149,0.963-2.149,2.148
				c0,1.185,0.964,2.148,2.149,2.148c1.185,0,2.148-0.964,2.148-2.148C34.858,11.362,33.895,10.399,32.71,10.399z"/>
		</g>
		<g>
			<ellipse fill="#E8E8E8" cx="13.13" cy="21.339" rx="3.103" ry="2.946"/>
			<path fill="#4E4E4E" d="M13.13,24.921c-2.062,0-3.739-1.606-3.739-3.582c0-1.974,1.677-3.58,3.739-3.58
				c2.063,0,3.74,1.606,3.74,3.58C16.87,23.314,15.193,24.921,13.13,24.921z M13.13,19.031c-1.359,0-2.467,1.035-2.467,2.308
				c0,1.273,1.107,2.31,2.467,2.31c1.36,0,2.467-1.036,2.467-2.31C15.597,20.066,14.49,19.031,13.13,19.031z"/>
		</g>
		<g>
			<ellipse fill="#E8E8E8" cx="35.252" cy="21.339" rx="3.104" ry="2.946"/>
			<path fill="#4E4E4E" d="M35.252,24.921c-2.062,0-3.74-1.606-3.74-3.582c0-1.974,1.678-3.58,3.74-3.58s3.74,1.606,3.74,3.58
				C38.992,23.314,37.314,24.921,35.252,24.921z M35.252,19.031c-1.36,0-2.467,1.035-2.467,2.308c0,1.273,1.106,2.31,2.467,2.31
				s2.467-1.036,2.467-2.31C37.719,20.066,36.612,19.031,35.252,19.031z"/>
		</g>
		<g>
			<linearGradient id="SVGID_1_" gradientUnits="userSpaceOnUse" x1="23.98" y1="17.7383" x2="23.98" y2="33.7899">
				<stop  offset="0" style="stop-color:#FFFFFF"/>
				<stop  offset="1" style="stop-color:#D2DADF"/>
			</linearGradient>
			<ellipse fill="url(#SVGID_1_)" cx="23.98" cy="25.711" rx="12.254" ry="8.404"/>
			<path fill="#4E4E4E" d="M23.979,34.758c-7.111,0-12.897-4.059-12.897-9.047c0-4.987,5.786-9.045,12.897-9.045
				c7.112,0,12.897,4.058,12.897,9.045C36.877,30.699,31.092,34.758,23.979,34.758z M23.979,17.95
				c-6.403,0-11.611,3.481-11.611,7.761s5.208,7.762,11.611,7.762s11.612-3.482,11.612-7.762S30.383,17.95,23.979,17.95z"/>
		</g>
		<ellipse fill="#E8E8E8" cx="23.98" cy="25.711" rx="11.777" ry="8.077"/>
		<path fill="#4E4E4E" d="M28.502,28.287c-0.271,0.277-0.847,0.602-1.614,0.823c-0.767,0.224-1.719,0.362-2.749,0.362
			c-1.026,0-1.98-0.139-2.747-0.362c-0.768-0.222-1.345-0.546-1.614-0.824c-0.283-0.284-0.743-0.284-1.027-0.001
			c-0.283,0.279-0.286,0.74-0.002,1.024c0.546,0.544,1.315,0.92,2.235,1.193c0.923,0.269,1.999,0.419,3.155,0.421
			c1.156-0.002,2.234-0.152,3.156-0.421c0.921-0.273,1.69-0.649,2.238-1.193c0.282-0.284,0.279-0.745-0.006-1.024
			C29.243,28.002,28.784,28.004,28.502,28.287z"/>
		<g>
			<circle fill="#EF4B23" cx="19.492" cy="23.566" r="1.668"/>
			<circle fill="#EF4B23" cx="28.828" cy="23.566" r="1.67"/>
		</g>
	</g>
</g>
</svg>
