<?xml version="1.0" encoding="utf-8"?>
<!-- Generator: Adobe Illustrator 15.0.0, SVG Export Plug-In . SVG Version: 6.00 Build 0)  -->
<!DOCTYPE svg PUBLIC "-//W3C//DTD SVG 1.1//EN" "http://www.w3.org/Graphics/SVG/1.1/DTD/svg11.dtd">
<svg version="1.1" id="Layer_1" xmlns="http://www.w3.org/2000/svg" xmlns:xlink="http://www.w3.org/1999/xlink" x="0px" y="0px"
	 width="48px" height="48px" viewBox="0 0 48 48" enable-background="new 0 0 48 48" xml:space="preserve">
<rect x="-0.485" y="-0.248" fill="#DC0606" width="48.477" height="48.477"/>
<path id="Zynga_1_" fill="#FFFFFF" d="M32.294,6.728c0,0,2.396-0.227,4.273,1.007c0.68-0.033,1.229,0.261,1.587,0.91
	c0.355,0.649,1.003,2.209,0.485,3.151c-0.162,0.195-0.518-0.585-0.518-0.585s-0.26,0.942-0.745,1.299
	c0.064,1.949-0.713,3.314-0.939,3.769c-0.097,0.26-0.032,0.488,0.064,0.748c0.098,0.26,1.393,4.84,1.328,6.367
	c-0.065,1.527-0.841,3.348-1.457,3.964c0.129,1.268-0.453,2.34-0.744,2.859c-0.292,0.52-0.939,2.469-1.102,3.377
	c-0.161,0.91-0.227,1.886-0.031,2.178c0.193,0.293,1.067,1.202,1.003,1.657c-0.065,0.454-1.003,0.974-1.458,0.974
	c-0.452,0-1.393-0.292-1.618-0.91c-0.227-0.616-0.259-1.688-0.097-2.305c0.162-0.618,1.263-5.134,0.615-7.798
	c-1.587,0.714-4.242,0.683-4.242,0.683s-0.452,2.371-1.003,3.735c-0.193,0.324-0.163,2.534-0.163,3.932
	c0,1.396,0.487,3.573,0.487,3.573s0.679,0.486,0.582,1.104c-0.098,0.618-0.874,0.975-1.554,0.975s-1.587-0.521-1.587-1.364
	c0-0.845,0.129-2.761,0.064-4.158s-0.031-2.307-0.258-3.184c-0.227-0.878-0.875-3.185-0.94-4.971c-0.227,0-0.453-0.162-0.453-0.162
	s-1.068,1.234-1.812,1.948c0.097,0.487,0.355,1.365,0.355,1.56c0,0.195,0.194,0.357,0.518,0.487
	c0.323,0.131,1.328,0.683,1.295,1.235c-0.032,0.552-1.295,0.648-2.397,0.162c-0.259-0.13-1.197-3.28-1.327-3.704
	c-0.13-0.422-0.227-0.648-0.064-1.007c0.161-0.356,0.615-1.526,0.55-2.209s-1.327-1.755-2.169-1.755
	c-0.647,0-1.637,0.994-2.363,1.56c-0.875,0.684-1.878,1.723-2.137,1.885c-0.259,0.163-2.3,3.867-2.688,4.938
	c-0.161,0.421-0.486,2.534-2.201,2.469c-0.777-0.065-1.489-0.91,0.713-2.437c0.558-1.292,1.335-2.633,1.383-2.9
	c0.049-0.269,0.632-3.605,1.604-6.773c0.972-3.167,2.404-4.678,2.671-4.897c0.218-0.17,0.339-0.269,0.121-0.39
	c-0.218-0.121-2.525-2.096-2.087-6.286c0.072-0.487,0.292-0.365,0.436,0.756c0.146,1.12,1.044,3.752,3.036,4.58
	c0.195,0.073,1.628-1.023,8.937-1.559c0.049-1.292,0.242-2.656,0.242-2.656s-0.51-0.39-0.582-1.169
	c-0.243,0.39-0.389,0.487-0.704,0.438c-0.315-0.048-0.291-1.559-0.219-2.631c0.074-1.072,1.312-1.535,1.773-1.584
	c0.606-0.317,1.263-0.268,1.263-0.268S29.137,6.208,32.294,6.728z"/>
</svg>
