<?xml version="1.0" encoding="utf-8"?>
<!-- Generator: Adobe Illustrator 15.0.0, SVG Export Plug-In . SVG Version: 6.00 Build 0)  -->
<!DOCTYPE svg PUBLIC "-//W3C//DTD SVG 1.1//EN" "http://www.w3.org/Graphics/SVG/1.1/DTD/svg11.dtd">
<svg version="1.1" id="Layer_1" xmlns="http://www.w3.org/2000/svg" xmlns:xlink="http://www.w3.org/1999/xlink" x="0px" y="0px"
	 width="48px" height="48px" viewBox="0 0 48 48" enable-background="new 0 0 48 48" xml:space="preserve">
<rect x="-2" y="-2" fill-rule="evenodd" clip-rule="evenodd" fill="#E5E5E5" width="52" height="52"/>
<g>
	<path fill="#FFFFFF" d="M31.455,22.978c-0.034-3.384,2.76-5.008,2.886-5.089c-1.571-2.295-4.017-2.611-4.887-2.646
		c-2.082-0.212-4.061,1.224-5.116,1.224c-1.055,0-2.685-1.194-4.409-1.163c-2.269,0.033-4.361,1.318-5.529,3.351
		c-2.356,4.087-0.603,10.146,1.694,13.465c1.123,1.621,2.462,3.446,4.217,3.38c1.693-0.066,2.332-1.095,4.378-1.095
		c2.047,0,2.62,1.095,4.411,1.061c1.82-0.032,2.976-1.652,4.088-3.281c1.291-1.885,1.82-3.708,1.852-3.801
		C35,28.364,31.492,27.019,31.455,22.978z"/>
	<path fill="#FFFFFF" d="M28.091,13.045c0.932-1.13,1.562-2.701,1.391-4.266c-1.345,0.054-2.973,0.893-3.937,2.023
		c-0.864,1.003-1.621,2.599-1.418,4.134C25.626,15.054,27.155,14.175,28.091,13.045z"/>
</g>
</svg>
