<?xml version="1.0" encoding="utf-8"?>
<!-- Generator: Adobe Illustrator 15.0.0, SVG Export Plug-In . SVG Version: 6.00 Build 0)  -->
<!DOCTYPE svg PUBLIC "-//W3C//DTD SVG 1.1//EN" "http://www.w3.org/Graphics/SVG/1.1/DTD/svg11.dtd">
<svg version="1.1" id="Layer_1" xmlns="http://www.w3.org/2000/svg" xmlns:xlink="http://www.w3.org/1999/xlink" x="0px" y="0px"
	 width="48px" height="48px" viewBox="0 0 48 48" enable-background="new 0 0 48 48" xml:space="preserve">
<rect x="-1.596" y="-1.651" fill="#8BBB29" width="50.146" height="51.104"/>
<g>
	<path fill="#FFFFFF" d="M33.89,36.389h-4.08v-3.627c-1.209,1.494-2.489,2.57-3.84,3.221c-1.353,0.652-2.855,0.979-4.509,0.979
		c-3.625,0-6.075-1.266-7.346-3.793c-0.7-1.383-1.05-3.363-1.05-5.939V10.841h4.365v16.103c0,1.557,0.231,2.812,0.692,3.768
		c0.764,1.59,2.147,2.385,4.151,2.385c1.018,0,1.853-0.104,2.504-0.311c1.176-0.35,2.21-1.049,3.1-2.098
		c0.717-0.844,1.182-1.715,1.396-2.613c0.215-0.896,0.323-2.184,0.323-3.853V10.841h4.294V36.389z"/>
</g>
</svg>
