<?xml version="1.0" encoding="utf-8"?>
<!-- Generator: Adobe Illustrator 15.0.0, SVG Export Plug-In . SVG Version: 6.00 Build 0)  -->
<!DOCTYPE svg PUBLIC "-//W3C//DTD SVG 1.1//EN" "http://www.w3.org/Graphics/SVG/1.1/DTD/svg11.dtd">
<svg version="1.1" id="Layer_1" xmlns="http://www.w3.org/2000/svg" xmlns:xlink="http://www.w3.org/1999/xlink" x="0px" y="0px"
	 width="48px" height="48px" viewBox="0 0 48 48" enable-background="new 0 0 48 48" xml:space="preserve">
<rect x="-1.206" y="-1.641" fill="#8BBB29" width="50.146" height="51.104"/>
<g>
	<path fill="#FFFFFF" d="M35.06,36.335h-4.385v-3.897c-1.3,1.605-2.676,2.761-4.128,3.461c-1.454,0.7-3.069,1.051-4.847,1.051
		c-3.897,0-6.53-1.359-7.897-4.077c-0.752-1.486-1.128-3.614-1.128-6.384V8.873h4.692v17.308c0,1.675,0.248,3.025,0.744,4.052
		c0.821,1.709,2.308,2.563,4.462,2.563c1.094,0,1.992-0.111,2.692-0.333c1.265-0.377,2.376-1.129,3.332-2.256
		c0.771-0.906,1.27-1.843,1.501-2.809c0.23-0.965,0.347-2.346,0.347-4.141V8.873h4.615V36.335z"/>
</g>
</svg>
