<?xml version="1.0" encoding="utf-8"?>
<!-- Generator: Adobe Illustrator 15.0.0, SVG Export Plug-In . SVG Version: 6.00 Build 0)  -->
<!DOCTYPE svg PUBLIC "-//W3C//DTD SVG 1.1//EN" "http://www.w3.org/Graphics/SVG/1.1/DTD/svg11.dtd">
<svg version="1.1" id="Layer_1" xmlns="http://www.w3.org/2000/svg" xmlns:xlink="http://www.w3.org/1999/xlink" x="0px" y="0px"
	 width="48px" height="48px" viewBox="0 0 48 48" enable-background="new 0 0 48 48" xml:space="preserve">
<rect x="-2" y="-2" fill="#1C6188" width="52" height="52"/>
<g>
	<path fill="#FFFFFF" d="M12.43,22.208c0,4.734,2.751,8.826,6.742,10.766l-5.706-15.633C12.802,18.828,12.43,20.475,12.43,22.208z
		 M32.466,21.605c0-1.479-0.531-2.503-0.986-3.299c-0.605-0.986-1.174-1.82-1.174-2.806c0-1.1,0.833-2.123,2.008-2.123
		c0.053,0,0.104,0.007,0.154,0.01c-2.127-1.95-4.963-3.141-8.076-3.141c-4.179,0-7.855,2.145-9.994,5.392
		c0.281,0.009,0.545,0.015,0.77,0.015c1.25,0,3.188-0.152,3.188-0.152c0.645-0.038,0.721,0.909,0.077,0.985
		c0,0-0.648,0.076-1.369,0.114l4.356,12.956l2.617-7.851l-1.863-5.105c-0.645-0.038-1.254-0.114-1.254-0.114
		c-0.646-0.038-0.57-1.023,0.075-0.985c0,0,1.976,0.152,3.15,0.152c1.251,0,3.188-0.152,3.188-0.152
		c0.645-0.038,0.721,0.909,0.076,0.985c0,0-0.649,0.076-1.369,0.114l4.322,12.857l1.193-3.986
		C32.162,23.917,32.466,22.628,32.466,21.605z M24.602,23.255l-3.589,10.428c1.071,0.315,2.205,0.487,3.379,0.487
		c1.393,0,2.729-0.24,3.972-0.678c-0.032-0.052-0.062-0.105-0.085-0.165L24.602,23.255z M34.888,16.47
		c0.051,0.381,0.08,0.79,0.08,1.23c0,1.213-0.227,2.578-0.91,4.284l-3.652,10.562c3.556-2.073,5.947-5.926,5.947-10.339
		C36.353,20.129,35.821,18.174,34.888,16.47z"/>
	<g>
		<path fill="#FFFFFF" d="M10.448,22.208c0,7.689,6.255,13.943,13.943,13.943c7.688,0,13.943-6.254,13.943-13.943
			c0-7.688-6.256-13.942-13.943-13.942C16.703,8.266,10.448,14.521,10.448,22.208z M11.088,22.208
			c0-7.335,5.968-13.303,13.304-13.303s13.304,5.968,13.304,13.303c0,7.336-5.968,13.305-13.304,13.305S11.088,29.544,11.088,22.208
			z"/>
	</g>
</g>
</svg>
