<?xml version="1.0" encoding="utf-8"?>
<!-- Generator: Adobe Illustrator 15.0.0, SVG Export Plug-In . SVG Version: 6.00 Build 0)  -->
<!DOCTYPE svg PUBLIC "-//W3C//DTD SVG 1.1//EN" "http://www.w3.org/Graphics/SVG/1.1/DTD/svg11.dtd">
<svg version="1.1" id="Layer_1" xmlns="http://www.w3.org/2000/svg" xmlns:xlink="http://www.w3.org/1999/xlink" x="0px" y="0px"
	 width="48px" height="48px" viewBox="0 0 48 48" enable-background="new 0 0 48 48" xml:space="preserve">
<rect x="-2" y="-2" fill="#2C4762" width="51" height="51"/>
<path fill="#FFFFFF" d="M24.89,7.627v7.025h7.026v5.422H24.89v7.789c0,1.764-0.021,2.779,0.165,3.279
	c0.186,0.496,0.65,1.012,1.158,1.311c0.674,0.404,1.439,0.605,2.305,0.605c1.537,0,3.068-0.5,4.59-1.5v4.791
	c-1.297,0.611-2.473,1.041-3.525,1.285c-1.055,0.246-2.191,0.371-3.414,0.371c-1.389,0-2.209-0.176-3.275-0.525
	c-1.068-0.352-1.979-0.854-2.729-1.498c-0.757-0.65-1.277-1.342-1.568-2.072c-0.292-0.73-0.438-1.793-0.438-3.182V20.075H14.03
	v-4.303c1.193-0.387,2.576-0.942,3.426-1.666c0.853-0.725,1.536-1.593,2.05-2.608c0.516-1.014,0.871-2.306,1.064-3.871H24.89z"/>
</svg>
