<?xml version="1.0" encoding="utf-8"?>
<!-- Generator: Adobe Illustrator 15.0.0, SVG Export Plug-In . SVG Version: 6.00 Build 0)  -->
<!DOCTYPE svg PUBLIC "-//W3C//DTD SVG 1.1//EN" "http://www.w3.org/Graphics/SVG/1.1/DTD/svg11.dtd">
<svg version="1.1" id="Layer_1" xmlns="http://www.w3.org/2000/svg" xmlns:xlink="http://www.w3.org/1999/xlink" x="0px" y="0px"
	 width="48px" height="48px" viewBox="0 0 48 48" enable-background="new 0 0 48 48" xml:space="preserve">
<rect fill="#007FC5" width="48" height="48"/>
<path fill-rule="evenodd" clip-rule="evenodd" fill="#FFFFFF" d="M26.218,12.394c0,2.466,0,4.932,0,7.397
	c-3.983-1.951-8.295,0.102-9.633,3.006c-0.93,2.017,0.008,4.657,1.465,5.625c2.356,1.564,6.416,0.563,8.168-1.155
	c0.703-0.69,1.663-1.91,1.849-2.929c0.322-1.757,0-3.776,0-5.625c0-1.843,0-3.677,0-5.548c3.192,1.744,5.77,4.123,10.712,4.238
	c0.53,2.855-1.951,3.999-3.776,5.009c0.494,4.811-1.486,8.389-4.084,10.633c-2.438,2.108-5.712,3.527-9.556,3.314
	c-6.321-0.351-12.008-5.38-12.021-12.251c-0.008-3.918,1.57-6.559,3.698-8.631C15.811,12.778,21.073,10.534,26.218,12.394z"/>
</svg>
