<?xml version="1.0" encoding="utf-8"?>
<!-- Generator: Adobe Illustrator 15.0.0, SVG Export Plug-In . SVG Version: 6.00 Build 0)  -->
<!DOCTYPE svg PUBLIC "-//W3C//DTD SVG 1.1//EN" "http://www.w3.org/Graphics/SVG/1.1/DTD/svg11.dtd">
<svg version="1.1" id="Layer_1" xmlns="http://www.w3.org/2000/svg" xmlns:xlink="http://www.w3.org/1999/xlink" x="0px" y="0px"
	 width="48px" height="48px" viewBox="0 0 48 48" enable-background="new 0 0 48 48" xml:space="preserve">
<rect x="-1.5" y="-3.215" fill="#FAFAFA" width="52" height="52"/>
<g>
	<path id="e" fill="#E53238" d="M11.925,18.955c-2.393,0-4.386,1.016-4.386,4.077c0,2.427,1.341,3.954,4.448,3.954
		c3.658,0,3.893-2.41,3.893-2.41h-1.772c0,0-0.38,1.299-2.229,1.299c-1.506,0-2.587-1.018-2.587-2.442h6.774v-0.895
		C16.064,21.129,15.168,18.955,11.925,18.955z M11.863,20.099c1.433,0,2.409,0.878,2.409,2.192H9.331
		C9.331,20.895,10.604,20.099,11.863,20.099z"/>
	<path id="b" fill="#0064D2" d="M16.063,15.989v9.46c0,0.537-0.038,1.291-0.038,1.291h1.691c0,0,0.06-0.543,0.06-1.037
		c0,0,0.835,1.307,3.106,1.307c2.391,0,4.017-1.66,4.017-4.039c0-2.212-1.493-3.993-4.012-3.993c-2.36,0-3.094,1.274-3.094,1.274
		v-4.264H16.063z M20.449,20.148c1.624,0,2.657,1.206,2.657,2.823c0,1.734-1.192,2.871-2.645,2.871
		c-1.734,0-2.668-1.356-2.668-2.856C17.792,21.588,18.632,20.148,20.449,20.148z"/>
	<path id="a" fill="#F5AF02" d="M29.1,18.955c-3.6,0-3.832,1.971-3.832,2.286h1.793c0,0,0.095-1.151,1.915-1.151
		c1.186,0,2.102,0.542,2.102,1.583v0.371h-2.102c-2.787,0-4.263,0.816-4.263,2.471c0,1.629,1.362,2.516,3.204,2.516
		c2.508,0,3.317-1.385,3.317-1.385c0,0.549,0.041,1.094,0.041,1.094h1.594c0,0-0.063-0.676-0.063-1.107v-3.721
		C32.806,19.47,30.837,18.955,29.1,18.955L29.1,18.955z M31.075,23.156v0.494c0,0.645-0.396,2.247-2.739,2.247
		c-1.283,0-1.831-0.641-1.831-1.381C26.505,23.165,28.356,23.156,31.075,23.156L31.075,23.156z"/>
	<path id="y" fill="#86B817" d="M31.841,19.264h2.016l2.894,5.794l2.885-5.794h1.826l-5.257,10.318H34.29l1.516-2.877L31.841,19.264
		z"/>
</g>
</svg>
