<?xml version="1.0" encoding="utf-8"?>
<!-- Generator: Adobe Illustrator 15.0.0, SVG Export Plug-In . SVG Version: 6.00 Build 0)  -->
<!DOCTYPE svg PUBLIC "-//W3C//DTD SVG 1.1//EN" "http://www.w3.org/Graphics/SVG/1.1/DTD/svg11.dtd">
<svg version="1.1" id="Layer_1" xmlns="http://www.w3.org/2000/svg" xmlns:xlink="http://www.w3.org/1999/xlink" x="0px" y="0px"
	 width="48px" height="48px" viewBox="0 0 48 48" enable-background="new 0 0 48 48" xml:space="preserve">
<rect fill="#C93C27" width="48" height="48"/>
<g>
	<path fill="#FFFFFF" d="M26.854,28.026c-0.509,0.511-0.079,1.442-0.079,1.442l3.824,6.387c0,0,0.627,0.842,1.172,0.842
		c0.547,0,1.085-0.448,1.085-0.448l3.024-4.321c0,0,0.304-0.547,0.312-1.023c0.011-0.679-1.012-0.865-1.012-0.865l-7.159-2.299
		C28.021,27.74,27.319,27.554,26.854,28.026z"/>
	<path fill="#FFFFFF" d="M26.49,24.809c0.365,0.62,1.377,0.438,1.377,0.438l7.143-2.087c0,0,0.974-0.396,1.11-0.924
		c0.139-0.527-0.158-1.164-0.158-1.164l-3.413-4.02c0,0-0.297-0.509-0.909-0.56c-0.68-0.057-1.095,0.762-1.095,0.762l-4.036,6.35
		C26.509,23.603,26.153,24.235,26.49,24.809z"/>
	<path fill="#FFFFFF" d="M23.116,22.331c0.842-0.206,0.975-1.427,0.975-1.427l-0.058-10.169c0,0-0.128-1.254-0.69-1.594
		c-0.884-0.537-1.146-0.256-1.4-0.218l-5.929,2.203c0,0-0.581,0.192-0.883,0.677c-0.433,0.687,0.439,1.691,0.439,1.691l6.163,8.401
		C21.733,21.894,22.341,22.523,23.116,22.331z"/>
	<path fill="#FFFFFF" d="M21.651,26.446c0.022-0.784-0.941-1.256-0.941-1.256l-6.374-3.219c0,0-0.945-0.39-1.403-0.117
		c-0.351,0.208-0.662,0.583-0.693,0.915l-0.415,5.109c0,0-0.062,0.885,0.167,1.289c0.326,0.57,1.395,0.173,1.395,0.173l7.44-1.645
		C21.117,27.5,21.624,27.483,21.651,26.446z"/>
	<path fill="#FFFFFF" d="M23.501,29.203c-0.639-0.327-1.402,0.353-1.402,0.353l-4.983,5.485c0,0-0.621,0.837-0.463,1.353
		c0.148,0.482,0.395,0.723,0.744,0.892l5.004,1.579c0,0,0.606,0.127,1.065-0.007c0.652-0.188,0.531-1.21,0.531-1.21l0.115-7.426
		C24.112,30.222,24.086,29.506,23.501,29.203z"/>
</g>
</svg>
