<?xml version="1.0" encoding="utf-8"?>
<!-- Generator: Adobe Illustrator 15.0.0, SVG Export Plug-In . SVG Version: 6.00 Build 0)  -->
<!DOCTYPE svg PUBLIC "-//W3C//DTD SVG 1.1//EN" "http://www.w3.org/Graphics/SVG/1.1/DTD/svg11.dtd">
<svg version="1.1" id="Layer_1" xmlns="http://www.w3.org/2000/svg" xmlns:xlink="http://www.w3.org/1999/xlink" x="0px" y="0px"
	 width="48px" height="48px" viewBox="0 0 48 48" enable-background="new 0 0 48 48" xml:space="preserve">
<rect x="-1.146" y="-1.375" fill="#E5001C" width="50.146" height="51.104"/>
<path fill-rule="evenodd" clip-rule="evenodd" fill="#FFFFFF" d="M24.493,19.824c0.04,0.041,9.106,20.721,9.098,20.704
	c-1.984,0-3.959,0-5.941,0c0-0.065-2.814-6.743-2.786-6.778c-2.14,0-4.267,0-6.404,0C18.517,33.767,24.582,19.754,24.493,19.824
	L24.493,19.824z"/>
<path fill-rule="evenodd" clip-rule="evenodd" fill="#FFFFFF" d="M5.184,7.125c0.047,0,13.922,0,13.926,0
	C19.149,7.116,5.276,40.523,5.23,40.479C5.23,40.434,5.198,7.102,5.184,7.125L5.184,7.125z"/>
<path fill-rule="evenodd" clip-rule="evenodd" fill="#FFFFFF" d="M29.709,7.125h14.398c0,0.084-0.01,33.42-0.01,33.372
	C44.106,40.604,29.709,7.125,29.709,7.125L29.709,7.125z"/>
</svg>
