<?xml version="1.0" encoding="utf-8"?>
<!-- Generator: Adobe Illustrator 15.0.0, SVG Export Plug-In . SVG Version: 6.00 Build 0)  -->
<!DOCTYPE svg PUBLIC "-//W3C//DTD SVG 1.1//EN" "http://www.w3.org/Graphics/SVG/1.1/DTD/svg11.dtd">
<svg version="1.1" id="Layer_1" xmlns="http://www.w3.org/2000/svg" xmlns:xlink="http://www.w3.org/1999/xlink" x="0px" y="0px"
	 width="48px" height="48px" viewBox="0 0 48 48" enable-background="new 0 0 48 48" xml:space="preserve">
<rect x="-1.27" y="-1.965" fill="#E5001C" width="50.146" height="51.104"/>
<g>
	<path fill="#FFFFFF" d="M23.662,19.886c0.037,0.038,8.423,19.165,8.414,19.148c-1.834,0-3.661,0-5.493,0
		c0-0.059-2.604-6.235-2.577-6.268c-1.979,0-3.947,0-5.924,0C18.136,32.782,23.744,19.821,23.662,19.886L23.662,19.886z"/>
	<path fill="#FFFFFF" d="M5.804,8.141c0.043,0,12.876,0,12.88,0C18.72,8.133,5.889,39.031,5.846,38.989
		C5.846,38.947,5.817,8.119,5.804,8.141L5.804,8.141z"/>
	<path fill="#FFFFFF" d="M28.486,8.141h13.317c0,0.077-0.01,30.91-0.01,30.866C41.802,39.105,28.486,8.141,28.486,8.141
		L28.486,8.141z"/>
</g>
</svg>
