<?xml version="1.0" encoding="utf-8"?>
<!-- Generator: Adobe Illustrator 15.0.0, SVG Export Plug-In . SVG Version: 6.00 Build 0)  -->
<!DOCTYPE svg PUBLIC "-//W3C//DTD SVG 1.1//EN" "http://www.w3.org/Graphics/SVG/1.1/DTD/svg11.dtd">
<svg version="1.1" id="Layer_1" xmlns="http://www.w3.org/2000/svg" xmlns:xlink="http://www.w3.org/1999/xlink" x="0px" y="0px"
	 width="48px" height="48px" viewBox="0 0 48 48" enable-background="new 0 0 48 48" xml:space="preserve">
<rect x="-2" y="-2" fill-rule="evenodd" clip-rule="evenodd" fill="#00B386" width="52" height="52"/>
<path fill="#FFFFFF" d="M27.208,14.402c0-1.761,3.463-2.672,3.463,0.304c-0.011,1.633-0.231,3.143-0.581,4.525h3.599
	c0.274-1.668,0.262-3.316,0.262-5.254c0-5.467-10.082-6.378-10.082,0.547c0,4.863,2.291,7.422,4.688,8.769
	c-1.999,3.915-4.688,6.052-4.688,6.052c-7.532-6.135-6.803-16.521-6.803-16.521h-3.28c0.061,14.031,7.471,18.95,8.382,19.68
	s1.094,0.669,2.185,0.608c1.096-0.062,3.584-2.552,6.621-7.29c0.294-0.456,0.558-0.896,0.796-1.321
	c1.272,0.284,2.181,0.289,2.181,0.289v-2.977C27.572,21.205,27.208,15.74,27.208,14.402z"/>
</svg>
