<?xml version="1.0" encoding="utf-8"?>
<!-- Generator: Adobe Illustrator 15.0.0, SVG Export Plug-In . SVG Version: 6.00 Build 0)  -->
<!DOCTYPE svg PUBLIC "-//W3C//DTD SVG 1.1//EN" "http://www.w3.org/Graphics/SVG/1.1/DTD/svg11.dtd">
<svg version="1.1" id="Layer_1" xmlns="http://www.w3.org/2000/svg" xmlns:xlink="http://www.w3.org/1999/xlink" x="0px" y="0px"
	 width="48px" height="48px" viewBox="0 0 48 48" enable-background="new 0 0 48 48" xml:space="preserve">
<rect x="-2.494" y="-2.062" fill="#00B386" width="52" height="52"/>
<path fill="#FFFFFF" d="M27.556,15.483c0-2.135,4.198-3.24,4.198,0.369c-0.012,1.979-0.28,3.812-0.703,5.487h4.364
	c0.332-2.023,0.317-4.021,0.317-6.371c0-6.63-12.226-7.733-12.226,0.664c0,5.896,2.778,9,5.684,10.633
	c-2.422,4.747-5.684,7.34-5.684,7.34c-9.134-7.441-8.25-20.035-8.25-20.035H11.28c0.074,17.013,9.059,22.978,10.164,23.864
	c1.104,0.885,1.326,0.812,2.649,0.735c1.329-0.074,4.347-3.092,8.03-8.838c0.354-0.554,0.674-1.088,0.964-1.602
	c1.541,0.344,2.645,0.351,2.645,0.351v-3.61C27.997,23.733,27.556,17.106,27.556,15.483z"/>
</svg>
