<?xml version="1.0" encoding="utf-8"?>
<!-- Generator: Adobe Illustrator 15.0.0, SVG Export Plug-In . SVG Version: 6.00 Build 0)  -->
<!DOCTYPE svg PUBLIC "-//W3C//DTD SVG 1.1//EN" "http://www.w3.org/Graphics/SVG/1.1/DTD/svg11.dtd">
<svg version="1.1" id="Layer_1" xmlns="http://www.w3.org/2000/svg" xmlns:xlink="http://www.w3.org/1999/xlink" x="0px" y="0px"
	 width="48px" height="48px" viewBox="0 0 48 48" enable-background="new 0 0 48 48" xml:space="preserve">
<rect x="-2" y="-2" fill="#252525" width="52" height="52"/>
<g>
	<path fill="#FFFFFF" d="M34.074,22.136c2.527,0,4.576-2.041,4.576-4.559c0-2.519-2.049-4.561-4.576-4.561
		c-2.529,0-4.578,2.042-4.578,4.561C29.496,20.095,31.545,22.136,34.074,22.136"/>
	<path fill="#FFFFFF" d="M34.479,23.194c-0.033-0.003-0.068-0.006-0.102-0.008c-0.027-0.003-0.053-0.003-0.08-0.006
		c-0.072-0.004-0.145-0.005-0.219-0.005h-0.002H34.07c-0.074,0-0.146,0.001-0.221,0.005c-0.025,0.003-0.053,0.003-0.08,0.006
		c-0.033,0.002-0.066,0.005-0.1,0.008c-2.59,0.224-4.627,2.529-4.627,5.164v1.769c0,0.251,0.205,0.458,0.459,0.458h0.16h8.822h0.162
		c0.252,0,0.459-0.207,0.459-0.458v-1.769C39.105,25.724,37.068,23.418,34.479,23.194"/>
	<path fill="#FFFFFF" d="M23.47,22.981c2.276,0,4.12-1.838,4.12-4.104c0-2.268-1.844-4.104-4.12-4.104
		c-2.275,0-4.119,1.837-4.119,4.104C19.351,21.144,21.195,22.981,23.47,22.981"/>
	<path fill="#FFFFFF" d="M23.834,23.934c-0.029-0.002-0.062-0.006-0.091-0.008c-0.024-0.002-0.049-0.003-0.072-0.005
		c-0.065-0.003-0.131-0.005-0.197-0.005H23.47h-0.004c-0.065,0-0.132,0.002-0.197,0.005c-0.023,0.002-0.048,0.003-0.072,0.005
		c-0.03,0.002-0.062,0.006-0.091,0.008c-2.33,0.2-4.164,2.276-4.164,4.646v1.594l0,0c0,0.227,0.186,0.41,0.413,0.41H19.5h7.94h0.146
		c0.227,0,0.412-0.184,0.412-0.41l0,0v-1.594C27.998,26.21,26.164,24.134,23.834,23.934"/>
	<path fill="#FFFFFF" d="M13.833,23.74c2.047,0,3.707-1.652,3.707-3.692s-1.66-3.693-3.707-3.693c-2.049,0-3.708,1.653-3.708,3.693
		S11.784,23.74,13.833,23.74"/>
	<path fill="#FFFFFF" d="M14.161,24.599c-0.028-0.003-0.056-0.006-0.083-0.006c-0.021-0.002-0.043-0.005-0.064-0.005
		c-0.06-0.005-0.118-0.005-0.178-0.005h-0.002H13.83c-0.062,0-0.12,0-0.18,0.005c-0.021,0-0.041,0.003-0.064,0.005
		c-0.026,0-0.054,0.003-0.082,0.006c-2.097,0.181-3.746,2.05-3.746,4.181v1.436c0,0.202,0.166,0.368,0.37,0.368h0.132h7.145h0.132
		c0.205,0,0.371-0.166,0.371-0.368v-1.436C17.907,26.648,16.257,24.779,14.161,24.599"/>
</g>
</svg>
