<?xml version="1.0" encoding="utf-8"?>
<!-- Generator: Adobe Illustrator 15.0.0, SVG Export Plug-In . SVG Version: 6.00 Build 0)  -->
<!DOCTYPE svg PUBLIC "-//W3C//DTD SVG 1.1//EN" "http://www.w3.org/Graphics/SVG/1.1/DTD/svg11.dtd">
<svg version="1.1" id="Layer_1" xmlns="http://www.w3.org/2000/svg" xmlns:xlink="http://www.w3.org/1999/xlink" x="0px" y="0px"
	 width="48px" height="48px" viewBox="0 0 48 48" enable-background="new 0 0 48 48" xml:space="preserve">
<rect x="-2" y="-2" fill="#FCF0C0" width="52" height="52"/>
<g>
	<path fill="#743D12" d="M29.936,9.675h2.28v17.784c0,1.318-0.133,2.578-0.399,3.781c-0.266,1.203-0.739,2.261-1.424,3.173
		s-1.621,1.642-2.812,2.187c-1.19,0.543-2.724,0.815-4.598,0.815c-1.444,0-2.686-0.185-3.724-0.551
		c-1.039-0.367-1.887-0.83-2.546-1.388c-0.659-0.558-1.159-1.172-1.501-1.843c-0.342-0.672-0.526-1.299-0.551-1.882h2.432
		c0.177,0.734,0.456,1.336,0.836,1.807c0.38,0.467,0.829,0.836,1.349,1.102c0.519,0.267,1.096,0.449,1.729,0.551
		c0.633,0.102,1.292,0.152,1.976,0.152c1.544,0,2.787-0.266,3.724-0.799c0.938-0.531,1.646-1.229,2.128-2.09
		c0.479-0.86,0.791-1.836,0.933-2.926c0.139-1.089,0.194-2.203,0.17-3.345c-0.734,1.217-1.742,2.135-3.021,2.756
		c-1.28,0.62-2.616,0.931-4.009,0.931c-1.495,0-2.793-0.285-3.895-0.854s-2.014-1.329-2.736-2.28
		c-0.722-0.949-1.26-2.058-1.615-3.325c-0.355-1.266-0.532-2.584-0.532-3.952c0-1.444,0.165-2.799,0.494-4.066
		s0.855-2.362,1.577-3.287c0.722-0.924,1.64-1.653,2.755-2.185c1.114-0.532,2.47-0.798,4.066-0.798c0.633,0,1.279,0.089,1.938,0.266
		c0.659,0.178,1.298,0.431,1.919,0.76c0.621,0.33,1.19,0.748,1.71,1.254c0.52,0.507,0.943,1.077,1.271,1.71h0.076V9.675z
		 M29.936,19.593c0-1.19-0.146-2.299-0.437-3.325c-0.292-1.026-0.716-1.913-1.272-2.66c-0.559-0.747-1.254-1.336-2.09-1.767
		c-0.837-0.43-1.787-0.646-2.851-0.646c-0.963,0-1.85,0.171-2.66,0.513c-0.811,0.342-1.52,0.842-2.128,1.501
		s-1.083,1.463-1.425,2.413c-0.342,0.95-0.513,2.046-0.513,3.287c-0.051,1.242,0.05,2.401,0.304,3.477
		c0.253,1.077,0.659,2.021,1.216,2.831c0.557,0.812,1.267,1.451,2.128,1.92s1.887,0.703,3.078,0.703c1.039,0,1.97-0.223,2.793-0.666
		c0.823-0.441,1.521-1.038,2.09-1.785c0.569-0.746,1.007-1.621,1.312-2.622C29.784,21.766,29.936,20.708,29.936,19.593z"/>
</g>
</svg>
